<svg width="18" height="19" viewBox="0 0 18 19" fill="none" xmlns="http://www.w3.org/2000/svg">
<path d="M9.00088 13.1133C8.80941 13.1123 8.62056 13.0687 8.44802 12.9857C8.27549 12.9027 8.1236 12.7823 8.00338 12.6333L4.84588 8.80828C4.66137 8.57801 4.54527 8.30053 4.51079 8.00748C4.47631 7.71443 4.52485 7.41759 4.65088 7.15078C4.75309 6.9189 4.91988 6.72134 5.13134 6.5817C5.3428 6.44206 5.58999 6.36623 5.84338 6.36328H12.1584C12.4118 6.36623 12.659 6.44206 12.8704 6.5817C13.0819 6.72134 13.2487 6.9189 13.3509 7.15078C13.4769 7.41759 13.5254 7.71443 13.491 8.00748C13.4565 8.30053 13.3404 8.57801 13.1559 8.80828L9.99838 12.6333C9.87815 12.7823 9.72626 12.9027 9.55373 12.9857C9.3812 13.0687 9.19234 13.1123 9.00088 13.1133Z" fill="white"/>
</svg>
