<svg width="90" height="93" viewBox="0 0 90 93" fill="none" xmlns="http://www.w3.org/2000/svg">
<path d="M49.1917 89.5428C41.9727 89.5428 35.5688 88.5531 29.98 86.5737C24.4144 84.6176 19.7221 81.73 15.9031 77.911C12.084 74.1152 9.18479 69.4579 7.20541 63.9389C5.22602 58.4199 4.23633 52.1208 4.23633 45.0416C4.23633 38.1487 5.23766 31.9543 7.24034 26.4586C9.24301 20.9629 12.1539 16.2823 15.9729 12.4166C19.8153 8.52774 24.4843 5.55866 29.98 3.50941C35.4757 1.46017 41.7166 0.435547 48.7026 0.435547C55.386 0.435547 61.2775 1.48346 66.3774 3.57928C71.4772 5.67509 75.762 8.55102 79.2317 12.2071C82.7248 15.8631 85.3562 20.0547 87.126 24.782C88.8958 29.5092 89.7807 34.5043 89.7807 39.7671C89.7807 43.4464 89.5478 47.0442 89.0821 50.5606C88.6163 54.0536 87.7547 57.2206 86.4972 60.0616C85.263 62.8793 83.4699 65.1381 81.118 66.8381C78.7893 68.5147 75.762 69.388 72.0361 69.4579C70.0567 69.5277 68.1355 69.2949 66.2726 68.7593C64.4096 68.2237 62.8261 67.362 61.522 66.1744C60.218 64.9635 59.4262 63.4266 59.1468 61.5636H58.7276C58.1687 62.9375 57.2373 64.2183 55.9332 65.4059C54.6291 66.5703 52.9641 67.5018 50.9382 68.2004C48.9355 68.8757 46.6068 69.1551 43.9521 69.0387C41.018 68.9223 38.3749 68.2586 36.0229 67.0477C33.6709 65.8368 31.6566 64.1601 29.98 62.0177C28.3266 59.8753 27.0575 57.337 26.1726 54.4029C25.2877 51.4687 24.8452 48.2086 24.8452 44.6224C24.8452 41.1759 25.3459 38.0904 26.3472 35.3659C27.3486 32.618 28.7108 30.2544 30.4341 28.275C32.1806 26.2723 34.1833 24.6888 36.4421 23.5245C38.7009 22.3601 41.0878 21.6266 43.6028 21.3239C46.0479 21.0444 48.2951 21.1143 50.3444 21.5335C52.3936 21.9526 54.0935 22.593 55.4442 23.4546C56.8181 24.3162 57.6797 25.2594 58.029 26.284H58.4831L54.3806 25.0678L58.4831 22.3718H67.076V54.7871C67.076 56.6268 67.5534 58.187 68.5081 59.4678C69.4862 60.7486 70.8717 61.389 72.6648 61.389C74.7839 61.389 76.4373 60.6088 77.6249 59.0486C78.8359 57.4884 79.6858 55.0899 80.1748 51.853C80.6872 48.6161 80.9433 44.471 80.9433 39.4178C80.9433 35.8782 80.4659 32.5482 79.5112 29.4277C78.5797 26.284 77.1941 23.443 75.3545 20.9047C73.5381 18.3432 71.3025 16.1425 68.6478 14.3029C65.9931 12.4632 62.9658 11.0427 59.566 10.0414C56.1894 9.04005 52.4518 8.53938 48.3533 8.53938C42.7878 8.53938 37.8393 9.401 33.5079 11.1242C29.1766 12.8242 25.5205 15.2809 22.5398 18.4945C19.5824 21.7081 17.3352 25.5621 15.7983 30.0565C14.2846 34.5275 13.5278 39.5459 13.5278 45.1114C13.5278 50.9099 14.3079 56.0563 15.8681 60.5506C17.4283 65.0217 19.7337 68.7942 22.7843 71.868C25.8349 74.9419 29.6074 77.2706 34.1018 78.8541C38.5961 80.4609 43.7775 81.2643 49.6457 81.2643C52.2539 81.2643 54.8154 81.0314 57.3304 80.5657C59.8454 80.1233 62.0809 79.6109 64.037 79.0288C66.0164 78.4699 67.4951 78.0158 68.4732 77.6665L70.9183 85.3162C69.8532 86.1725 68.2131 87.1847 66.805 88.0475C66.0632 88.3783 66.0908 87.0528 65.1548 87.3073C62.7795 87.9593 60.1947 88.4949 57.4003 88.914C54.6291 89.3332 51.8929 89.5428 49.1917 89.5428ZM45.9781 60.4808C49.0054 60.4808 51.4388 59.8753 53.2785 58.6644C55.1414 57.4535 56.4804 55.6487 57.2955 53.2502C58.1338 50.8284 58.553 47.8011 58.553 44.1683C58.5297 40.6287 58.0756 37.811 57.1907 35.7152C56.3291 33.5961 54.9784 32.0824 53.1388 31.1742C51.3224 30.2428 48.9821 29.777 46.1178 29.777C43.4864 29.777 41.2392 30.4174 39.3762 31.6982C37.5366 32.979 36.1277 34.7138 35.1497 36.9028C34.1949 39.0918 33.7059 41.5252 33.6826 44.2032C33.7059 47.021 34.1018 49.6757 34.8702 52.1674C35.662 54.6358 36.9428 56.6384 38.7126 58.1754C40.5056 59.7123 42.9275 60.4808 45.9781 60.4808Z" fill="url(#paint0_linear_2279_938)"/>
<path d="M45.093 92.2752C37.8741 92.2752 31.4702 91.2855 25.8813 89.3061C20.3158 87.35 15.6235 84.4625 11.8044 80.6434C7.98537 76.8477 5.08616 72.1903 3.10677 66.6713C1.12739 61.1523 0.137695 54.8532 0.137695 47.774C0.137695 40.8811 1.13903 34.6868 3.1417 29.1911C5.14437 23.6954 8.05523 19.0147 11.8743 15.1491C15.7166 11.2602 20.3856 8.29108 25.8813 6.24184C31.377 4.19259 37.6179 3.16797 44.604 3.16797C51.2873 3.16797 57.1789 4.21588 62.2787 6.3117C67.3786 8.40752 71.6633 11.2834 75.1331 14.9395C78.6261 18.5955 81.2575 22.7872 83.0273 27.5144C84.7971 32.2416 85.6821 37.2367 85.6821 42.4995C85.6821 46.1788 85.4492 49.7767 84.9834 53.293C84.5177 56.786 83.6561 59.953 82.3986 62.794C81.1644 65.6117 79.3713 67.8706 77.0193 69.5705C74.6907 71.2472 71.6633 72.1204 67.9374 72.1903C65.9581 72.2601 64.0369 72.0273 62.1739 71.4917C60.311 70.9561 58.7275 70.0945 57.4234 68.9068C56.1194 67.6959 55.3276 66.159 55.0482 64.296H54.629C54.0701 65.67 53.1386 66.9507 51.8346 68.1384C50.5305 69.3027 48.8655 70.2342 46.8395 70.9328C44.8369 71.6081 42.5082 71.8876 39.8535 71.7711C36.9193 71.6547 34.2763 70.991 31.9243 69.7801C29.5723 68.5692 27.558 66.8925 25.8813 64.7501C24.228 62.6077 22.9588 60.0695 22.0739 57.1353C21.189 54.2012 20.7466 50.941 20.7466 47.3548C20.7466 43.9084 21.2473 40.8229 22.2486 38.0983C23.2499 35.3504 24.6122 32.9868 26.3354 31.0074C28.082 29.0048 30.0846 27.4213 32.3435 26.2569C34.6023 25.0926 36.9892 24.359 39.5042 24.0563C41.9493 23.7769 44.1965 23.8467 46.2457 24.2659C48.295 24.685 49.9949 25.3254 51.3455 26.1871C52.7195 27.0487 53.5811 27.9918 53.9304 29.0164H54.3845V25.1042H62.9773V57.5195C62.9773 59.3592 63.4547 60.9194 64.4095 62.2002C65.3875 63.481 66.7731 64.1214 68.5662 64.1214C70.6853 64.1214 72.3387 63.3413 73.5263 61.781C74.7372 60.2208 75.5872 57.8223 76.0762 54.5854C76.5885 51.3485 76.8447 47.2035 76.8447 42.1502C76.8447 38.6106 76.3673 35.2806 75.4125 32.1601C74.4811 29.0164 73.0955 26.1754 71.2558 23.6371C69.4395 21.0756 67.2039 18.875 64.5492 17.0353C61.8945 15.1956 58.8672 13.7751 55.4673 12.7738C52.0907 11.7725 48.3532 11.2718 44.2547 11.2718C38.6891 11.2718 33.7407 12.1334 29.4093 13.8567C25.0779 15.5566 21.4219 18.0134 18.4412 21.2269C15.4837 24.4405 13.2366 28.2945 11.6996 32.7889C10.186 37.26 9.42916 42.2783 9.42916 47.8438C9.42916 53.6423 10.2093 58.7887 11.7695 63.2831C13.3297 67.7541 15.6351 71.5266 18.6857 74.6005C21.7363 77.6743 25.5088 80.003 30.0031 81.5865C34.4975 83.1933 39.6788 83.9967 45.5471 83.9967C48.1552 83.9967 50.7168 83.7639 53.2318 83.2981C55.7468 82.8557 57.9823 82.3434 59.9384 81.7612C61.9178 81.2023 63.3965 80.7482 64.3745 80.3989L66.8197 88.0486C65.3759 88.724 63.4547 89.3876 61.0562 90.0397C58.6809 90.6917 56.0961 91.2273 53.3016 91.6465C50.5305 92.0656 47.7943 92.2752 45.093 92.2752ZM41.8794 63.2132C44.9067 63.2132 47.3402 62.6077 49.1799 61.3968C51.0428 60.1859 52.3818 58.3812 53.1968 55.9826C54.0352 53.5608 54.4543 50.5335 54.4543 46.9007C54.4311 43.3611 53.977 40.5434 53.0921 38.4476C52.2304 36.3285 50.8798 34.8148 49.0401 33.9067C47.2238 32.9752 44.8834 32.5094 42.0191 32.5094C39.3877 32.5094 37.1405 33.1498 35.2776 34.4306C33.4379 35.7114 32.0291 37.4463 31.051 39.6352C30.0963 41.8242 29.6072 44.2577 29.584 46.9357C29.6072 49.7534 30.0031 52.4081 30.7716 54.8998C31.5633 57.3682 32.8441 59.3709 34.6139 60.9078C36.407 62.4447 38.8288 63.2132 41.8794 63.2132Z" fill="url(#paint1_linear_2279_938)"/>
<defs>
<linearGradient id="paint0_linear_2279_938" x1="46.6981" y1="-25.5442" x2="-6.85456" y2="0.435547" gradientUnits="userSpaceOnUse">
<stop stop-color="#8372E3"/>
<stop offset="1" stop-color="#463A8C"/>
</linearGradient>
<linearGradient id="paint1_linear_2279_938" x1="30.5348" y1="-23.4273" x2="14.0997" y2="82.156" gradientUnits="userSpaceOnUse">
<stop stop-color="white"/>
<stop offset="1" stop-color="#806DEC"/>
</linearGradient>
</defs>
</svg>
