<svg width="71" height="72" viewBox="0 0 71 72" fill="none" xmlns="http://www.w3.org/2000/svg">
<path d="M28.2715 61.1216C24.2159 59.5132 20.8386 57.5304 18.1397 55.1732C15.4487 52.8342 13.4558 50.1665 12.1611 47.17C10.8612 44.1866 10.2701 40.9241 10.3877 37.3825C10.5053 33.8408 11.3527 30.0814 12.9299 26.1042C14.4657 22.2317 16.4083 18.9747 18.7579 16.3334C21.1075 13.692 23.7857 11.7109 26.7925 10.39C29.8177 9.06123 33.1023 8.43342 36.6464 8.50658C40.1906 8.57973 43.9251 9.39455 47.8499 10.951C51.6047 12.4401 54.6812 14.3415 57.0794 16.6552C59.4776 18.9689 61.2441 21.5393 62.3789 24.3663C63.5267 27.1986 64.0712 30.1398 64.0123 33.1899C63.9533 36.2401 63.3376 39.2435 62.165 42.2002C61.3453 44.2673 60.4129 46.2367 59.3678 48.1085C58.3279 49.9672 57.1382 51.5545 55.7987 52.8704C54.4775 54.1784 52.9669 55.048 51.2668 55.479C49.5849 55.9022 47.6896 55.7183 45.5808 54.9274C44.4532 54.5256 43.4257 53.9668 42.4984 53.2508C41.5711 52.5348 40.8734 51.698 40.4054 50.7402C39.9426 49.7693 39.8402 48.7295 40.0982 47.6206L39.8627 47.5272C39.2426 48.1745 38.434 48.6866 37.4367 49.0632C36.4447 49.4268 35.3017 49.5792 34.0079 49.5203C32.7323 49.4535 31.3617 49.0917 29.8962 48.4348C28.2737 47.7156 26.9367 46.7539 25.8851 45.5496C24.8335 44.3452 24.0754 42.9545 23.6108 41.3773C23.1592 39.8053 23.0117 38.0965 23.1683 36.2509C23.3249 34.4053 23.8027 32.4751 24.6017 30.4604C25.3695 28.5241 26.3383 26.9022 27.5079 25.5946C28.6827 24.2739 29.9746 23.2495 31.3838 22.5214C32.8112 21.7854 34.2891 21.3419 35.8176 21.1911C37.346 21.0402 38.8504 21.1599 40.3308 21.5501C41.7668 21.9379 43.0137 22.4778 44.0716 23.1699C45.1295 23.862 45.9419 24.6005 46.5088 25.3855C47.0887 26.1757 47.3626 26.8975 47.3306 27.551L47.5857 27.6521L45.5518 26.0548L48.4573 25.4542L53.2849 27.3687L46.0628 45.5801C45.6529 46.6136 45.5735 47.5965 45.8245 48.5288C46.0886 49.4663 46.7244 50.1348 47.7318 50.5343C48.9223 51.0064 50.025 50.9365 51.0398 50.3245C52.0678 49.7178 53.0797 48.5596 54.0756 46.8501C55.0846 45.1457 56.152 42.874 57.2779 40.035C58.0665 38.0464 58.5403 36.0692 58.6991 34.1034C58.8762 32.1297 58.7308 30.2248 58.2627 28.3889C57.813 26.5451 57.0473 24.8107 55.9658 23.1857C54.8842 21.5607 53.4999 20.0881 51.8129 18.7681C50.139 17.4532 48.1507 16.3392 45.8481 15.4261C42.7213 14.1861 39.7493 13.5676 36.9319 13.5707C34.1197 13.5607 31.5184 14.1264 29.1278 15.2677C26.7502 16.4143 24.6291 18.0788 22.7643 20.2614C20.9177 22.436 19.3744 25.0868 18.1344 28.2136C16.8425 31.4712 16.1342 34.5363 16.0094 37.409C15.8898 40.2685 16.3445 42.9016 17.3735 45.3082C18.4025 47.7148 20.0031 49.8636 22.1753 51.7546C24.3423 53.6586 27.0742 55.2644 30.3711 56.5718C31.8364 57.1529 33.3274 57.5928 34.8441 57.8915C36.3556 58.2033 37.7257 58.4135 38.9544 58.5223C40.191 58.6493 41.1229 58.7236 41.7502 58.7453L41.4195 63.5878C40.6304 63.8315 39.4835 64.0348 38.5001 64.2058C38.0097 64.2264 38.3205 63.4879 37.7379 63.4223C36.2582 63.2594 34.6867 62.9844 33.0233 62.5973C31.3731 62.2154 29.7892 61.7235 28.2715 61.1216ZM32.9411 44.0782C34.6419 44.7527 36.144 44.9547 37.4473 44.6843C38.7637 44.419 39.9181 43.7034 40.9104 42.5375C41.921 41.3637 42.8309 39.7563 43.6403 37.7154C44.4158 35.7216 44.7885 34.0374 44.7583 32.6627C44.7464 31.2802 44.3248 30.1289 43.4936 29.2088C42.6807 28.2808 41.4696 27.4977 39.8604 26.8596C38.3821 26.2733 36.9769 26.1324 35.6449 26.4369C34.326 26.7466 33.148 27.4073 32.1108 28.4192C31.0867 29.4363 30.2698 30.6945 29.66 32.1938C29.0453 33.7821 28.6762 35.3617 28.5528 36.9328C28.4477 38.496 28.721 39.9065 29.3729 41.1643C30.0379 42.4272 31.2273 43.3985 32.9411 44.0782Z" fill="url(#paint0_linear_2279_949)"/>
<path d="M25.3594 61.7447C21.3037 60.1363 17.9265 58.1535 15.2276 55.7962C12.5366 53.4573 10.5437 50.7895 9.24903 47.7931C7.94913 44.8097 7.35798 41.5472 7.47556 38.0055C7.59315 34.4639 8.44057 30.7044 10.0178 26.7272C11.5536 22.8547 13.4962 19.5978 15.8458 16.9564C18.1954 14.315 20.8736 12.3339 23.8804 11.013C26.9056 9.68428 30.1902 9.05647 33.7343 9.12962C37.2784 9.20277 41.0129 10.0176 44.9378 11.5741C48.6926 13.0631 51.7691 14.9645 54.1673 17.2782C56.5655 19.5919 58.332 22.1623 59.4668 24.9894C60.6146 27.8216 61.1591 30.7628 61.1002 33.813C61.0412 36.8631 60.4255 39.8665 59.2529 42.8233C58.4332 44.8904 57.5007 46.8598 56.4557 48.7315C55.4157 50.5902 54.2261 52.1775 52.8866 53.4935C51.5654 54.8015 50.0548 55.671 48.3547 56.1021C46.6728 56.5252 44.7775 56.3413 42.6687 55.5504C41.5411 55.1487 40.5136 54.5898 39.5863 53.8738C38.659 53.1579 37.9613 52.321 37.4933 51.3632C37.0304 50.3924 36.9281 49.3525 37.1861 48.2436L36.9506 48.1502C36.3305 48.7976 35.5219 49.3096 34.5246 49.6863C33.5326 50.0499 32.3896 50.2022 31.0957 50.1433C29.8202 50.0766 28.4496 49.7147 26.9841 49.0578C25.3616 48.3387 24.0246 47.377 22.973 46.1726C21.9214 44.9683 21.1633 43.5775 20.6987 42.0004C20.2471 40.4284 20.0996 38.7196 20.2562 36.874C20.4128 35.0284 20.8906 33.0982 21.6896 31.0834C22.4574 29.1472 23.4262 27.5252 24.5958 26.2176C25.7705 24.8969 27.0625 23.8725 28.4717 23.1444C29.8991 22.4084 31.377 21.965 32.9055 21.8141C34.4339 21.6632 35.9383 21.7829 37.4187 22.1732C38.8547 22.561 40.1016 23.1009 41.1595 23.793C42.2174 24.485 43.0298 25.2236 43.5966 26.0085C44.1766 26.7987 44.4505 27.5205 44.4185 28.174L44.6736 28.2752L45.5452 26.0773L50.3728 27.9918L43.1507 46.2031C42.7408 47.2367 42.6614 48.2196 42.9124 49.1519C43.1765 50.0893 43.8123 50.7578 44.8197 51.1573C46.0102 51.6294 47.1129 51.5595 48.1277 50.9476C49.1557 50.3408 50.1676 49.1827 51.1635 47.4731C52.1725 45.7687 53.2399 43.497 54.3658 40.6581C55.1544 38.6695 55.6282 36.6923 55.787 34.7264C55.9641 32.7527 55.8186 30.8479 55.3506 29.012C54.9009 27.1682 54.1352 25.4338 53.0536 23.8087C51.9721 22.1837 50.5878 20.7112 48.9008 19.3911C47.2269 18.0763 45.2386 16.9623 42.936 16.0491C39.8092 14.8091 36.8371 14.1907 34.0198 14.1938C31.2076 14.1838 28.6062 14.7495 26.2157 15.8908C23.8381 17.0373 21.717 18.7018 19.8522 20.8844C18.0056 23.0591 16.4623 25.7098 15.2223 28.8366C13.9304 32.0943 13.2221 35.1594 13.0973 38.032C12.9777 40.8915 13.4324 43.5246 14.4614 45.9312C15.4904 48.3378 17.091 50.4866 19.2632 52.3776C21.4302 54.2817 24.1621 55.8874 27.459 57.1949C28.9243 57.776 30.4153 58.2159 31.932 58.5145C33.4435 58.8263 34.8136 59.0366 36.0423 59.1453C37.2789 59.2723 38.2108 59.3467 38.8381 59.3683L38.5074 64.2108C37.5458 64.2686 36.3186 64.2134 34.8258 64.0453C33.3461 63.8824 31.7746 63.6074 30.1112 63.2203C28.461 62.8384 26.877 62.3465 25.3594 61.7447ZM30.029 44.7013C31.7298 45.3757 33.2319 45.5778 34.5352 45.3073C35.8516 45.0421 37.006 44.3265 37.9983 43.1605C39.0088 41.9867 39.9188 40.3793 40.7282 38.3384C41.5037 36.3446 41.8764 34.6604 41.8462 33.2858C41.8343 31.9033 41.4127 30.752 40.5815 29.8319C39.7686 28.9039 38.5575 28.1208 36.9483 27.4826C35.47 26.8963 34.0648 26.7554 32.7328 27.0599C31.4139 27.3696 30.2358 28.0304 29.1987 29.0423C28.1746 30.0593 27.3576 31.3176 26.7479 32.8169C26.1332 34.4051 25.7641 35.9848 25.6407 37.5558C25.5356 39.119 25.8089 40.5295 26.4608 41.7873C27.1258 43.0503 28.3152 44.0216 30.029 44.7013Z" fill="url(#paint1_linear_2279_949)"/>
<defs>
<linearGradient id="paint0_linear_2279_949" x1="52.5121" y1="-4.09134" x2="16.6372" y2="-1.42711" gradientUnits="userSpaceOnUse">
<stop stop-color="#8372E3"/>
<stop offset="1" stop-color="#463A8C"/>
</linearGradient>
<linearGradient id="paint1_linear_2279_949" x1="42.959" y1="-6.50208" x2="10.2015" y2="49.1543" gradientUnits="userSpaceOnUse">
<stop stop-color="#8473E4"/>
<stop offset="1" stop-color="#806DEC"/>
</linearGradient>
</defs>
</svg>
