<svg width="19" height="19" viewBox="0 0 19 19" fill="none" xmlns="http://www.w3.org/2000/svg">
<path d="M9.50088 13.4766C9.30941 13.4756 9.12056 13.432 8.94802 13.349C8.77549 13.266 8.6236 13.1456 8.50338 12.9966L5.34588 9.17156C5.16137 8.94129 5.04527 8.66382 5.01079 8.37076C4.97631 8.07771 5.02485 7.78087 5.15088 7.51406C5.25309 7.28218 5.41988 7.08462 5.63134 6.94498C5.8428 6.80534 6.08999 6.72951 6.34338 6.72656H12.6584C12.9118 6.72951 13.159 6.80534 13.3704 6.94498C13.5819 7.08462 13.7487 7.28218 13.8509 7.51406C13.9769 7.78087 14.0254 8.07771 13.991 8.37076C13.9565 8.66382 13.8404 8.94129 13.6559 9.17156L10.4984 12.9966C10.3782 13.1456 10.2263 13.266 10.0537 13.349C9.8812 13.432 9.69234 13.4756 9.50088 13.4766Z" fill="#2813A0"/>
</svg>
