<svg width="157" height="24" viewBox="0 0 157 24" fill="none" xmlns="http://www.w3.org/2000/svg">
<path d="M144.939 20.0754H141.361V4.0166H144.939V10.9678L151.248 4.0166H155.722L149.551 10.486L156.226 20.0754H151.868L147.073 13.0784L144.939 15.3036V20.0754Z" fill="#5E48DB"/>
<path d="M131.511 20.4892C126.602 20.4892 123.207 17.1856 123.207 12.0009C123.207 7.04566 126.441 3.60449 131.511 3.60449C135.778 3.60449 138.715 6.05919 139.426 10.2345H135.755C135.342 8.14684 133.691 6.79331 131.511 6.79331C128.667 6.79331 126.854 8.83507 126.854 12.0009C126.854 15.2356 128.667 17.3004 131.511 17.3004C133.714 17.3004 135.365 15.9468 135.755 13.8592H139.426C138.669 18.0345 135.732 20.4892 131.511 20.4892Z" fill="#5E48DB"/>
<path d="M114.425 20.4883C110.318 20.4883 107.45 18.263 107.45 14.7989V4.0166H111.029V14.7072C111.029 16.2672 112.337 17.2536 114.402 17.2536C116.466 17.2536 117.797 16.2672 117.797 14.7072V4.0166H121.376V14.7989C121.376 18.1483 118.669 20.4883 114.425 20.4883Z" fill="#5E48DB"/>
<path d="M95.4895 20.0754H91.9106V4.0166H100.307C103.381 4.0166 105.515 5.92072 105.515 8.67365C105.515 10.7384 103.978 12.3672 101.661 12.8489C102.922 13.0325 103.863 13.7666 104.322 14.9366L106.249 20.0754H102.441L100.789 15.5101C100.582 14.9136 100.055 14.5925 99.3436 14.5925H95.4895V20.0754ZM95.4895 7.20542V11.4725H99.94C101.317 11.4725 102.005 10.3942 102.005 9.33895C102.005 8.26071 101.317 7.20542 99.94 7.20542H95.4895Z" fill="#5E48DB"/>
<path d="M84.9408 20.0754H81.362V7.20542H76.2002V4.0166H90.0796V7.20542H84.9408V20.0754Z" fill="#5E48DB"/>
<path d="M69.2444 20.4892C64.8397 20.4892 61.9721 18.4015 61.7427 15.0292H65.3903C65.6656 16.4745 66.9044 17.3692 69.2215 17.3692C70.9421 17.3692 71.8597 16.7727 71.8597 15.7404C71.8597 14.8227 71.3321 14.4327 69.7262 13.9739L67.2715 13.2627C64.8168 12.5515 62.1786 11.588 62.1786 8.44507C62.1786 5.73802 64.4038 3.60449 68.1891 3.60449C72.2497 3.60449 74.9568 5.92155 75.1174 9.27095H71.4927C71.4238 7.91743 70.3685 6.74743 68.0974 6.74743C66.5833 6.74743 65.7115 7.32096 65.7115 8.2386C65.7115 9.27095 66.6521 9.61507 68.4185 10.1657L70.6897 10.8768C73.1903 11.6568 75.4844 12.5057 75.4844 15.5339C75.4844 18.5621 73.0297 20.4892 69.2444 20.4892Z" fill="#5E48DB"/>
<path d="M49.5529 20.0754H45.9741V4.0166H54.3706C57.4447 4.0166 59.5782 5.92072 59.5782 8.67365C59.5782 10.7384 58.0412 12.3672 55.7241 12.8489C56.9859 13.0325 57.9265 13.7666 58.3853 14.9366L60.3123 20.0754H56.5041L54.8523 15.5101C54.6459 14.9136 54.1182 14.5925 53.407 14.5925H49.5529V20.0754ZM49.5529 7.20542V11.4725H54.0035C55.38 11.4725 56.0682 10.3942 56.0682 9.33895C56.0682 8.26071 55.38 7.20542 54.0035 7.20542H49.5529Z" fill="#5E48DB"/>
<path d="M23.2906 20.0754H19.7118V7.20542H14.55V4.0166H28.4294V7.20542H23.2906V20.0754Z" fill="#5E48DB"/>
<path d="M7.50175 20.4892C3.09705 20.4892 0.229411 18.4015 0 15.0292H3.64764C3.92293 16.4745 5.16175 17.3692 7.47881 17.3692C9.19939 17.3692 10.117 16.7727 10.117 15.7404C10.117 14.8227 9.58939 14.4327 7.98351 13.9739L5.52881 13.2627C3.07411 12.5515 0.435881 11.588 0.435881 8.44507C0.435881 5.73802 2.66117 3.60449 6.44646 3.60449C10.507 3.60449 13.2141 5.92155 13.3747 9.27095H9.74998C9.68116 7.91743 8.62586 6.74743 6.35469 6.74743C4.84058 6.74743 3.96882 7.32096 3.96882 8.2386C3.96882 9.27095 4.9094 9.61507 6.67587 10.1657L8.94704 10.8768C11.4476 11.6568 13.7417 12.5057 13.7417 15.5339C13.7417 18.5621 11.287 20.4892 7.50175 20.4892Z" fill="#5E48DB"/>
<path d="M44.2735 9.13932C44.703 8.52014 44.2949 7.67648 43.5433 7.62972L38.8804 7.33963C38.6294 7.32402 38.395 7.21205 38.2266 7.02731L35.0032 3.49171C34.5239 2.96595 33.6532 3.12354 33.382 3.7851L31.5746 8.19519C31.4667 8.4585 31.2484 8.66227 30.9775 8.75252L26.6239 10.2028C25.8823 10.4499 25.7148 11.4198 26.3327 11.8891L30.6544 15.1719C30.8839 15.3462 31.0224 15.6139 31.0321 15.9019L31.1954 20.7234C31.2227 21.532 32.1773 21.9439 32.7965 21.4144L35.9336 18.7315C36.3171 18.4034 36.8266 18.2618 37.3228 18.3454L41.5263 19.0528C42.2269 19.1707 42.8187 18.5234 42.6338 17.8414L41.5156 13.7164C41.4413 13.4422 41.4925 13.1483 41.6556 12.9132L44.2735 9.13932Z" fill="#5E48DB"/>
</svg>
