<svg width="33" height="33" viewBox="0 0 33 33" fill="none" xmlns="http://www.w3.org/2000/svg">
<path fill-rule="evenodd" clip-rule="evenodd" d="M12.5767 0.841797C10.8078 0.843102 9.37613 2.27577 9.37744 4.04115C9.37613 5.80654 10.8091 7.2392 12.5781 7.24051L15.7787 7.24051L15.7787 4.04246C15.78 2.27707 14.347 0.844406 12.5767 0.841797C12.5781 0.841797 12.5781 0.841797 12.5767 0.841797ZM12.5767 9.37515L4.04437 9.37515C2.2754 9.37646 0.842446 10.8091 0.843753 12.5745C0.841138 14.3399 2.2741 15.7726 4.04307 15.7752L12.5767 15.7752C14.3457 15.7739 15.7787 14.3412 15.7774 12.5758C15.7787 10.8091 14.3457 9.37646 12.5767 9.37515Z" fill="#32C7F0"/>
<path fill-rule="evenodd" clip-rule="evenodd" d="M32.8477 12.5745C32.849 10.8091 31.416 9.37646 29.6471 9.37515C27.8781 9.37646 26.4451 10.8091 26.4464 12.5745L26.4464 15.7752L29.6471 15.7752C31.416 15.7739 32.849 14.3412 32.8477 12.5745ZM24.314 12.5745L24.314 4.04115C24.3153 2.27707 22.8837 0.844406 21.1147 0.841797C19.3457 0.843102 17.9128 2.27577 17.9141 4.04115L17.9141 12.5745C17.9115 14.3399 19.3444 15.7726 21.1134 15.7752C22.8823 15.7739 24.3153 14.3412 24.314 12.5745Z" fill="#2BB87E"/>
<path fill-rule="evenodd" clip-rule="evenodd" d="M21.1069 32.8429C22.8758 32.8416 24.3088 31.4089 24.3075 29.6435C24.3088 27.8781 22.8758 26.4455 21.1069 26.4442L17.9063 26.4442L17.9063 29.6435C17.9049 31.4076 19.3379 32.8403 21.1069 32.8429ZM21.1069 24.3082L29.6406 24.3082C31.4095 24.3069 32.8425 22.8742 32.8412 21.1089C32.8438 19.3435 31.4108 17.9108 29.6419 17.9082L21.1082 17.9082C19.3392 17.9095 17.9063 19.3422 17.9076 21.1076C17.9063 22.8742 19.3379 24.3069 21.1069 24.3082Z" fill="#EDB42A"/>
<path fill-rule="evenodd" clip-rule="evenodd" d="M0.843751 21.1076C0.842443 22.8729 2.2754 24.3056 4.04437 24.3069C5.81334 24.3056 7.2463 22.8729 7.24499 21.1076L7.24499 17.9082L4.04437 17.9082C2.2754 17.9095 0.842443 19.3422 0.843751 21.1076ZM9.37743 21.1076L9.37743 29.6409C9.37482 31.4063 10.8078 32.839 12.5767 32.8416C14.3457 32.8403 15.7787 31.4076 15.7774 29.6422L15.7774 21.1102C15.78 19.3448 14.347 17.9121 12.5781 17.9095C10.8078 17.9095 9.37613 19.3422 9.37743 21.1076Z" fill="#E01759"/>
</svg>
