<svg width="261" height="22" viewBox="0 0 261 22" fill="none" xmlns="http://www.w3.org/2000/svg">
<path d="M107.766 16.6993H105.09V4.63135H107.766V9.85503L112.483 4.63135H115.828L111.214 9.49301L116.206 16.6993H112.946L109.361 11.4411L107.766 13.1134V16.6993Z" fill="#3D3D3C"/>
<path d="M97.7252 17.0098C94.0543 17.0098 91.5156 14.5273 91.5156 10.6311C91.5156 6.90729 93.9341 4.32129 97.7252 4.32129C100.916 4.32129 103.112 6.16598 103.643 9.30363H100.899C100.59 7.73479 99.3548 6.71763 97.7252 6.71763C95.5982 6.71763 94.2429 8.252 94.2429 10.6311C94.2429 13.0619 95.5982 14.6135 97.7252 14.6135C99.3722 14.6135 100.607 13.5963 100.899 12.0275H103.643C103.077 15.1652 100.882 17.0098 97.7252 17.0098Z" fill="#3D3D3C"/>
<path d="M84.9491 17.0096C81.8785 17.0096 79.7344 15.3373 79.7344 12.7341V4.63135H82.4104V12.6651C82.4104 13.8375 83.3882 14.5788 84.932 14.5788C86.4758 14.5788 87.4707 13.8375 87.4707 12.6651V4.63135H90.1467V12.7341C90.1467 15.2511 88.1225 17.0096 84.9491 17.0096Z" fill="#3D3D3C"/>
<path d="M70.7893 16.6993H68.1133V4.63135H74.3915C76.6903 4.63135 78.2854 6.06227 78.2854 8.13106C78.2854 9.68264 77.1362 10.9067 75.4037 11.2687C76.347 11.4066 77.0504 11.9583 77.3934 12.8375L78.8344 16.6993H75.9869L74.7519 13.2685C74.5975 12.8203 74.2029 12.5789 73.671 12.5789H70.7893V16.6993ZM70.7893 7.02769V10.2343H74.1171C75.1462 10.2343 75.661 9.42403 75.661 8.63101C75.661 7.82071 75.1462 7.02769 74.1171 7.02769H70.7893Z" fill="#3D3D3C"/>
<path d="M62.903 16.6993H60.2269V7.02769H56.3672V4.63135H66.7453V7.02769H62.903V16.6993Z" fill="#3D3D3C"/>
<path d="M51.1643 17.0098C47.8706 17.0098 45.7262 15.441 45.5547 12.9068H48.2823C48.4883 13.9929 49.4144 14.6652 51.1469 14.6652C52.4335 14.6652 53.1198 14.217 53.1198 13.4412C53.1198 12.7516 52.7252 12.4585 51.5244 12.1137L49.6888 11.5793C47.8535 11.0448 45.8806 10.3208 45.8806 7.95892C45.8806 5.92461 47.5447 4.32129 50.3751 4.32129C53.4112 4.32129 55.4354 6.06253 55.5556 8.57955H52.8451C52.7939 7.5624 52.0047 6.68316 50.3064 6.68316C49.1743 6.68316 48.5224 7.11416 48.5224 7.80377C48.5224 8.57956 49.2258 8.83813 50.5466 9.2519L52.2449 9.78634C54.1146 10.3725 55.83 11.0104 55.83 13.286C55.83 15.5617 53.9944 17.0098 51.1643 17.0098Z" fill="#3D3D3C"/>
<path d="M36.4416 16.6993H33.7656V4.63135H40.0441C42.3427 4.63135 43.9381 6.06227 43.9381 8.13106C43.9381 9.68264 42.7885 10.9067 41.0561 11.2687C41.9996 11.4066 42.7028 11.9583 43.0461 12.8375L44.4868 16.6993H41.6392L40.4042 13.2685C40.2498 12.8203 39.8552 12.5789 39.3236 12.5789H36.4416V16.6993ZM36.4416 7.02769V10.2343H39.7695C40.7988 10.2343 41.3133 9.42403 41.3133 8.63101C41.3133 7.82071 40.7988 7.02769 39.7695 7.02769H36.4416Z" fill="#3D3D3C"/>
<path d="M17.1099 16.6993H14.4339V7.02769H10.5742V4.63135H20.9522V7.02769H17.1099V16.6993Z" fill="#3D3D3C"/>
<path d="M5.60934 17.0098C2.31576 17.0098 0.171535 15.441 0 12.9068H2.72746C2.93333 13.9929 3.85963 14.6652 5.59216 14.6652C6.87872 14.6652 7.56488 14.217 7.56488 13.4412C7.56488 12.7516 7.17033 12.4585 5.96956 12.1137L4.1341 11.5793C2.29861 11.0448 0.325918 10.3208 0.325918 7.95892C0.325918 5.92461 1.98984 4.32129 4.82024 4.32129C7.8565 4.32129 9.88065 6.06253 10.0007 8.57955H7.29042C7.23894 7.5624 6.44986 6.68316 4.75164 6.68316C3.61947 6.68316 2.96763 7.11416 2.96763 7.80377C2.96763 8.57956 3.67092 8.83813 4.99178 9.2519L6.69003 9.78634C8.55979 10.3725 10.2752 11.0104 10.2752 13.286C10.2752 15.5617 8.43974 17.0098 5.60934 17.0098Z" fill="#3D3D3C"/>
<path d="M32.4951 8.48038C32.8162 8.01509 32.511 7.38111 31.9491 7.34594L28.4623 7.12795C28.2746 7.11623 28.0995 7.03207 27.9736 6.89324L25.5632 4.23631C25.2049 3.84122 24.5537 3.95962 24.351 4.45679L22.9997 7.77088C22.919 7.96877 22.7556 8.12191 22.5532 8.18971L19.2979 9.27958C18.7432 9.46523 18.6179 10.1941 19.0799 10.5468L22.3115 13.0138C22.483 13.1448 22.5868 13.3459 22.594 13.5623L22.716 17.1856C22.7364 17.7933 23.4503 18.1028 23.9132 17.7049L26.2588 15.6888C26.5458 15.4422 26.9266 15.3358 27.2978 15.3986L30.4409 15.9302C30.9647 16.0188 31.4073 15.5324 31.2691 15.0198L30.4328 11.92C30.3774 11.7139 30.4154 11.4931 30.5375 11.3164L32.4951 8.48038Z" fill="#3D3D3C"/>
<path d="M124.235 16.224C123.544 16.224 122.895 16.0933 122.289 15.832C121.682 15.5707 121.148 15.2113 120.686 14.754C120.228 14.2967 119.869 13.7647 119.608 13.158C119.351 12.5513 119.223 11.9027 119.223 11.212C119.223 10.5167 119.351 9.868 119.608 9.266C119.869 8.65933 120.228 8.12733 120.686 7.67C121.148 7.21267 121.682 6.85333 122.289 6.592C122.895 6.33067 123.544 6.2 124.235 6.2C124.925 6.2 125.574 6.33067 126.181 6.592C126.787 6.85333 127.319 7.21267 127.777 7.67C128.234 8.12733 128.591 8.65933 128.848 9.266C129.109 9.868 129.24 10.5167 129.24 11.212C129.24 11.9027 129.109 12.5513 128.848 13.158C128.591 13.7647 128.234 14.2967 127.777 14.754C127.319 15.2113 126.787 15.5707 126.181 15.832C125.574 16.0933 124.925 16.224 124.235 16.224ZM124.277 14.152C123.866 14.152 123.493 14.0797 123.157 13.935C122.821 13.7857 122.527 13.557 122.275 13.249C122.032 12.941 121.869 12.6073 121.785 12.248C121.701 11.8887 121.659 11.5363 121.659 11.191C121.668 10.8317 121.715 10.477 121.799 10.127C121.887 9.77233 122.046 9.448 122.275 9.154C122.527 8.846 122.823 8.61967 123.164 8.475C123.504 8.32567 123.887 8.251 124.312 8.251C124.564 8.251 124.799 8.279 125.019 8.335C125.243 8.38633 125.462 8.47733 125.677 8.608C125.896 8.73867 126.087 8.90433 126.251 9.105C126.419 9.30567 126.54 9.53433 126.615 9.791L125.901 10.015C125.835 9.86567 125.747 9.72333 125.635 9.588C125.527 9.448 125.401 9.329 125.257 9.231C125.121 9.133 124.97 9.063 124.802 9.021C124.634 8.97433 124.461 8.951 124.284 8.951C124.004 8.951 123.742 9.00933 123.5 9.126C123.257 9.238 123.052 9.40133 122.884 9.616C122.72 9.826 122.606 10.071 122.541 10.351C122.48 10.631 122.45 10.9063 122.45 11.177C122.45 11.4803 122.485 11.7743 122.555 12.059C122.629 12.339 122.739 12.5817 122.884 12.787C123.042 13.0017 123.243 13.165 123.486 13.277C123.728 13.389 123.992 13.445 124.277 13.445C124.65 13.445 124.984 13.354 125.278 13.172C125.418 13.0787 125.537 12.969 125.635 12.843C125.733 12.7123 125.817 12.5677 125.887 12.409L126.615 12.633C126.507 12.899 126.372 13.123 126.209 13.305C126.05 13.487 125.894 13.6317 125.74 13.739C125.53 13.8743 125.306 13.977 125.068 14.047C124.834 14.117 124.571 14.152 124.277 14.152ZM124.235 15.412C124.813 15.412 125.355 15.3047 125.859 15.09C126.363 14.8707 126.806 14.5697 127.189 14.187C127.576 13.7997 127.877 13.3517 128.092 12.843C128.311 12.3297 128.421 11.7813 128.421 11.198C128.421 10.6193 128.311 10.078 128.092 9.574C127.877 9.07 127.576 8.62667 127.189 8.244C126.806 7.85667 126.363 7.55567 125.859 7.341C125.355 7.12167 124.813 7.012 124.235 7.012C123.651 7.012 123.103 7.12167 122.59 7.341C122.081 7.55567 121.633 7.85667 121.246 8.244C120.863 8.62667 120.562 9.07 120.343 9.574C120.128 10.078 120.021 10.6193 120.021 11.198C120.021 11.7813 120.128 12.3297 120.343 12.843C120.562 13.3517 120.863 13.7997 121.246 14.187C121.633 14.5697 122.081 14.8707 122.59 15.09C123.103 15.3047 123.651 15.412 124.235 15.412ZM133.161 16L133.175 15.23L137.809 11.023C138.22 10.6543 138.488 10.302 138.614 9.966C138.74 9.62533 138.803 9.26133 138.803 8.874C138.803 8.43533 138.698 8.03633 138.488 7.677C138.278 7.31767 137.993 7.033 137.634 6.823C137.279 6.60833 136.88 6.501 136.437 6.501C135.984 6.501 135.578 6.61067 135.219 6.83C134.86 7.04933 134.575 7.33867 134.365 7.698C134.16 8.05733 134.057 8.44933 134.057 8.874H133.245C133.245 8.28133 133.387 7.747 133.672 7.271C133.957 6.79033 134.339 6.41 134.82 6.13C135.305 5.85 135.847 5.71 136.444 5.71C137.046 5.71 137.585 5.85467 138.061 6.144C138.542 6.42867 138.922 6.81133 139.202 7.292C139.482 7.77267 139.622 8.30233 139.622 8.881C139.622 9.28233 139.575 9.64167 139.482 9.959C139.393 10.2717 139.251 10.5657 139.055 10.841C138.859 11.1117 138.607 11.3847 138.299 11.66L133.924 15.629L133.756 15.209H139.622V16H133.161ZM144.48 16.21C143.888 16.21 143.351 16.0677 142.87 15.783C142.394 15.4983 142.014 15.118 141.729 14.642C141.445 14.1613 141.302 13.6247 141.302 13.032V8.888C141.302 8.29533 141.445 7.761 141.729 7.285C142.014 6.80433 142.394 6.42167 142.87 6.137C143.351 5.85233 143.888 5.71 144.48 5.71C145.073 5.71 145.61 5.85233 146.09 6.137C146.571 6.42167 146.951 6.80433 147.231 7.285C147.516 7.761 147.658 8.29533 147.658 8.888V13.032C147.658 13.6247 147.516 14.1613 147.231 14.642C146.951 15.118 146.571 15.4983 146.09 15.783C145.61 16.0677 145.073 16.21 144.48 16.21ZM144.48 15.419C144.914 15.419 145.309 15.314 145.663 15.104C146.023 14.8893 146.31 14.6023 146.524 14.243C146.739 13.8837 146.846 13.487 146.846 13.053V8.86C146.846 8.43067 146.739 8.03633 146.524 7.677C146.31 7.31767 146.023 7.033 145.663 6.823C145.309 6.60833 144.914 6.501 144.48 6.501C144.046 6.501 143.65 6.60833 143.29 6.823C142.936 7.033 142.651 7.31767 142.436 7.677C142.222 8.03633 142.114 8.43067 142.114 8.86V13.053C142.114 13.487 142.222 13.8837 142.436 14.243C142.651 14.6023 142.936 14.8893 143.29 15.104C143.65 15.314 144.046 15.419 144.48 15.419ZM149.335 16L149.349 15.23L153.983 11.023C154.393 10.6543 154.662 10.302 154.788 9.966C154.914 9.62533 154.977 9.26133 154.977 8.874C154.977 8.43533 154.872 8.03633 154.662 7.677C154.452 7.31767 154.167 7.033 153.808 6.823C153.453 6.60833 153.054 6.501 152.611 6.501C152.158 6.501 151.752 6.61067 151.393 6.83C151.033 7.04933 150.749 7.33867 150.539 7.698C150.333 8.05733 150.231 8.44933 150.231 8.874H149.419C149.419 8.28133 149.561 7.747 149.846 7.271C150.13 6.79033 150.513 6.41 150.994 6.13C151.479 5.85 152.02 5.71 152.618 5.71C153.22 5.71 153.759 5.85467 154.235 6.144C154.715 6.42867 155.096 6.81133 155.376 7.292C155.656 7.77267 155.796 8.30233 155.796 8.881C155.796 9.28233 155.749 9.64167 155.656 9.959C155.567 10.2717 155.425 10.5657 155.229 10.841C155.033 11.1117 154.781 11.3847 154.473 11.66L150.098 15.629L149.93 15.209H155.796V16H149.335ZM161.725 16V13.956H156.923V13.165L160.346 5.92H161.249L157.826 13.165H161.725V10.12H162.537V13.165H163.692V13.956H162.537V16H161.725Z" fill="#3D3D3C"/>
</svg>
