<svg width="83" height="86" viewBox="0 0 83 86" fill="none" xmlns="http://www.w3.org/2000/svg">
<path d="M47.1724 76.9843C41.3734 77.8337 36.1126 77.7921 31.3902 76.8596C26.6892 75.9432 22.5801 74.1756 19.0629 71.5571C15.5484 68.9573 12.6715 65.5571 10.4321 61.3566C8.19264 57.1561 6.65646 52.2124 5.82352 46.5256C5.01251 40.9885 5.08806 35.8948 6.0502 31.2444C7.01233 26.594 8.79992 22.4915 11.413 18.9369C14.042 15.3609 17.4433 12.4264 21.6169 10.1336C25.7905 7.84083 30.6833 6.28345 36.2952 5.46147C41.664 4.67511 46.52 4.8237 50.8633 5.90724C55.2066 6.99078 58.987 8.79688 62.2045 11.3256C65.4406 13.8515 68.0476 16.909 70.0255 20.4982C72.0034 24.0874 73.302 27.9958 73.9212 32.2235C74.3541 35.1791 74.5904 38.0967 74.63 40.9761C74.6668 43.8369 74.3473 46.4824 73.6714 48.9125C73.0115 51.3212 71.8369 53.3467 70.1476 54.989C68.4742 56.6099 66.1451 57.6676 63.1603 58.1621C61.5784 58.4511 60.0077 58.4901 58.4482 58.279C56.8887 58.068 55.5152 57.5621 54.328 56.7615C53.1379 55.9422 52.3211 54.8008 51.8774 53.3371L51.5407 53.3865C51.2534 54.5559 50.6558 55.6943 49.748 56.8018C48.8374 57.8906 47.6095 58.8347 46.0642 59.6343C44.5349 60.4124 42.6972 60.9109 40.5509 61.1297C38.1802 61.3814 35.9789 61.1593 33.9471 60.4633C31.9153 59.7673 30.0999 58.6574 28.5009 57.1337C26.9207 55.6072 25.6026 53.7175 24.5465 51.4646C23.4904 49.2117 22.7514 46.6449 22.3294 43.7641C21.9239 40.9955 21.9631 38.458 22.4469 36.1515C22.928 33.8263 23.7442 31.7673 24.8956 29.9745C26.0629 28.1603 27.4854 26.6526 29.1629 25.4515C30.8404 24.2504 32.6715 23.3803 34.6562 22.8412C36.5875 22.3291 38.4009 22.1208 40.0964 22.2164C41.7919 22.312 43.2328 22.6264 44.4192 23.1596C45.6242 23.6901 46.4273 24.3463 46.8285 25.1283L47.1933 25.0749L46.733 21.9322L53.6356 20.9212L55.8923 23.6229L57.4496 46.9606C57.6661 48.4384 58.2331 49.6356 59.1508 50.5521C60.0872 51.4659 61.2756 51.8173 62.7159 51.6063C64.4182 51.357 65.6546 50.5358 66.4251 49.1427C67.2142 47.7469 67.6148 45.7201 67.6268 43.0624C67.6575 40.4019 67.3755 37.042 66.781 32.9827C66.3645 30.1393 65.5892 27.5205 64.4551 25.1261C63.337 22.7103 61.8897 20.5912 60.1132 18.7686C58.3527 16.9246 56.2979 15.4199 53.949 14.2544C51.6 13.089 49.001 12.3041 46.152 11.8997C43.3218 11.4926 40.2605 11.5302 36.9681 12.0124C32.4973 12.6673 28.6235 13.9416 25.3469 15.8356C22.0675 17.7107 19.4196 20.1144 17.4033 23.0467C15.4057 25.9761 14.054 29.3364 13.3482 33.1276C12.6583 36.8974 12.6408 41.0177 13.2956 45.4885C13.9779 50.1464 15.2101 54.1888 16.9922 57.6156C18.7716 61.0236 21.0674 63.7828 23.8796 65.8931C26.6919 68.0035 29.9963 69.4303 33.793 70.1735C37.5924 70.9354 41.8491 70.9712 46.5631 70.2807C48.6582 69.9738 50.6886 69.4854 52.6541 68.8153C54.6223 68.164 56.3578 67.4894 57.8607 66.7916C59.385 66.1098 60.5194 65.571 61.264 65.1753L63.5165 67.8733C62.4362 68.5856 61.5827 72.5042 59.7327 73.3102C57.9013 74.1135 55.8879 74.8479 53.6924 75.5134C51.5157 76.1762 49.3423 76.6665 47.1724 76.9843ZM41.1715 54.0167C43.6033 53.6605 45.4869 52.8878 46.8222 51.6986C48.1763 50.5067 49.0396 48.8994 49.4121 46.8767C49.8005 44.8326 49.7811 42.3515 49.3537 39.4333C48.9185 36.5926 48.2222 34.3826 47.2647 32.8031C46.3233 31.2022 45.0602 30.1452 43.4755 29.6321C41.9068 29.0975 39.972 28.9988 37.6711 29.3358C35.5573 29.6454 33.8275 30.4242 32.4816 31.6723C31.1545 32.9176 30.2269 34.477 29.6988 36.3505C29.1894 38.2212 29.0828 40.2336 29.3792 42.3876C29.7295 44.6483 30.3598 46.7343 31.2703 48.6454C32.1968 50.5352 33.4613 51.9932 35.0638 53.0196C36.685 54.0433 38.7209 54.3756 41.1715 54.0167Z" fill="url(#paint0_linear_2279_945)"/>
<path d="M49.4282 79.6718C43.6292 80.5212 38.3685 80.4796 33.6461 79.5471C28.9451 78.6307 24.8359 76.8631 21.3187 74.2446C17.8043 71.6448 14.9273 68.2446 12.6879 64.0441C10.4485 59.8436 8.91232 54.8999 8.07938 49.2131C7.26837 43.676 7.34392 38.5823 8.30606 33.9319C9.26819 29.2815 11.0558 25.179 13.6688 21.6244C16.2978 18.0484 19.6991 15.1139 23.8727 12.8211C28.0464 10.5283 32.9391 8.97095 38.5511 8.14897C43.9198 7.36261 48.7759 7.5112 53.1192 8.59474C57.4625 9.67828 61.2429 11.4844 64.4603 14.0131C67.6965 16.539 70.3035 19.5965 72.2814 23.1857C74.2593 26.7749 75.5578 30.6833 76.177 34.911C76.61 37.8666 76.8462 40.7842 76.8858 43.6636C76.9227 46.5244 76.6032 49.1699 75.9273 51.6C75.2674 54.0087 74.0927 56.0342 72.4034 57.6765C70.73 59.2974 68.4009 60.3551 65.4161 60.8496C63.8343 61.1386 62.2636 61.1776 60.7041 60.9665C59.1445 60.7555 57.7711 60.2496 56.5838 59.449C55.3938 58.6297 54.5769 57.4883 54.1332 56.0246L53.7965 56.074C53.5092 57.2434 52.9117 58.3818 52.0038 59.4893C51.0933 60.5781 49.8654 61.5222 48.3201 62.3218C46.7908 63.0999 44.953 63.5984 42.8068 63.8172C40.4361 64.0689 38.2348 63.8468 36.203 63.1508C34.1711 62.4548 32.3557 61.3449 30.7568 59.8212C29.1766 58.2947 27.8584 56.405 26.8023 54.1521C25.7463 51.8992 25.0073 49.3324 24.5853 46.4516C24.1798 43.683 24.2189 41.1455 24.7027 38.839C25.1838 36.5138 26 34.4548 27.1514 32.662C28.3188 30.8478 29.7412 29.3401 31.4188 28.139C33.0963 26.9379 34.9274 26.0678 36.9121 25.5287C38.8434 25.0166 40.6568 24.8083 42.3523 24.9039C44.0478 24.9995 45.4887 25.3139 46.675 25.8471C47.8801 26.3776 48.6832 27.0338 49.0843 27.8158L49.4491 27.7624L48.9888 24.6197L55.8915 23.6087L59.7055 49.6481C59.9219 51.1259 60.489 52.3231 61.4067 53.2396C62.343 54.1534 63.5314 54.5048 64.9718 54.2938C66.6741 54.0445 67.9105 53.2233 68.6809 51.8302C69.4701 50.4344 69.8707 48.4076 69.8827 45.7499C69.9133 43.0894 69.6314 39.7295 69.0368 35.6702C68.6204 32.8268 67.8451 30.208 66.711 27.8136C65.5928 25.3978 64.1455 23.2787 62.369 21.4561C60.6085 19.6121 58.5538 18.1074 56.2048 16.9419C53.8558 15.7765 51.2568 14.9916 48.4079 14.5872C45.5776 14.1801 42.5163 14.2177 39.224 14.6999C34.7531 15.3548 30.8794 16.6291 27.6027 18.5231C24.3233 20.3982 21.6755 22.8019 19.6592 25.7342C17.6615 28.6636 16.3098 32.0239 15.604 35.8151C14.9142 39.5849 14.8966 43.7052 15.5515 48.176C16.2337 52.8339 17.4659 56.8763 19.2481 60.3031C21.0275 63.7111 23.3233 66.4703 26.1355 68.5806C28.9477 70.691 32.2522 72.1178 36.0488 72.861C39.8482 73.6229 44.1049 73.6587 48.819 72.9682C50.9141 72.6613 52.9444 72.1729 54.9099 71.5028C56.8782 70.8515 58.6137 70.1769 60.1166 69.4791C61.6408 68.7973 62.7753 68.2585 63.5198 67.8628L66.3841 73.7202C65.3038 74.4326 63.8386 75.1917 61.9885 75.9977C60.1572 76.801 58.1438 77.5354 55.9483 78.2009C53.7716 78.8637 51.5982 79.354 49.4282 79.6718ZM43.4273 56.7042C45.8592 56.348 47.7428 55.5753 49.0781 54.3861C50.4321 53.1942 51.2954 51.5869 51.6679 49.5642C52.0564 47.5201 52.0369 45.039 51.6095 42.1208C51.1743 39.2801 50.478 37.0701 49.5206 35.4906C48.5791 33.8897 47.316 32.8327 45.7314 32.3196C44.1627 31.785 42.2279 31.6863 39.927 32.0233C37.8131 32.3329 36.0833 33.1117 34.7375 34.3598C33.4104 35.6051 32.4828 37.1645 31.9546 39.038C31.4452 40.9087 31.3387 42.9211 31.6351 45.0751C31.9853 47.3358 32.6157 49.4218 33.5262 51.3329C34.4526 53.2227 35.7171 54.6807 37.3196 55.7071C38.9409 56.7308 40.9768 57.0631 43.4273 56.7042Z" fill="url(#paint1_linear_2279_945)"/>
<defs>
<linearGradient id="paint0_linear_2279_945" x1="20.0261" y1="2.56875" x2="72.5596" y2="46.2923" gradientUnits="userSpaceOnUse">
<stop stop-color="#9A8CE9"/>
<stop offset="1" stop-color="#463A8C"/>
</linearGradient>
<linearGradient id="paint1_linear_2279_945" x1="-17.7501" y1="13.6609" x2="48.7807" y2="82.0527" gradientUnits="userSpaceOnUse">
<stop stop-color="white"/>
<stop offset="0.808554" stop-color="#8372E3"/>
</linearGradient>
</defs>
</svg>
