<svg width="74" height="76" viewBox="0 0 74 76" fill="none" xmlns="http://www.w3.org/2000/svg">
<path d="M32.6056 66.3441C27.795 65.5064 23.6423 64.1037 20.1477 62.1361C16.6658 60.1867 13.874 57.718 11.7722 54.7298C9.66772 51.7572 8.27617 48.3171 7.59759 44.4096C6.919 40.5021 6.99045 36.1896 7.81196 31.4721C8.61185 26.8787 9.99795 22.8671 11.9703 19.4372C13.9426 16.0073 16.4255 13.226 19.4191 11.0931C22.4309 8.94749 25.8868 7.51074 29.7869 6.78289C33.687 6.05505 37.9647 6.09647 42.6202 6.90717C47.0739 7.68274 50.8784 9.06475 54.0336 11.0532C57.1889 13.0416 59.7105 15.4554 61.5984 18.2944C63.5019 21.1361 64.769 24.2347 65.3998 27.5902C66.0306 30.9458 66.0407 34.3771 65.43 37.8842C65.003 40.3361 64.4303 42.7066 63.7119 44.9958C62.9962 47.2695 62.0545 49.28 60.8868 51.0273C59.7374 52.7618 58.2804 54.0589 56.5158 54.9188C54.7694 55.7659 52.6507 55.9965 50.1597 55.6107C48.8325 55.4276 47.5793 55.0494 46.4 54.4763C45.2207 53.9032 44.2654 53.1453 43.5342 52.2025C42.8057 51.2443 42.4565 50.1282 42.4865 48.8543L42.2071 48.8057C41.6753 49.6564 40.9059 50.4018 39.8991 51.0419C38.8949 51.6665 37.6773 52.094 36.2461 52.3244C34.8332 52.542 33.249 52.458 31.4934 52.0724C29.5516 51.6543 27.8673 50.9053 26.4405 49.8254C25.0137 48.7455 23.866 47.3945 22.9973 45.7722C22.1441 44.1527 21.5929 42.314 21.3437 40.256C21.0945 38.198 21.178 35.9741 21.5942 33.5843C21.9941 31.2876 22.6858 29.2896 23.6693 27.5902C24.6554 25.8752 25.8375 24.4582 27.2156 23.3391C28.6118 22.2073 30.1301 21.3844 31.7705 20.8706C33.4109 20.3569 35.0866 20.145 36.7977 20.2351C38.4596 20.3327 39.9489 20.64 41.2659 21.1571C42.5829 21.6743 43.6414 22.2983 44.4414 23.0292C45.257 23.7628 45.7217 24.4913 45.8356 25.2146L46.1382 25.2673L46.5922 22.6602L52.3184 23.6574L53.4009 26.3832L48.5568 45.2587C48.3433 46.4846 48.4803 47.5797 48.968 48.544C49.4711 49.511 50.3201 50.0985 51.515 50.3066C52.9272 50.5525 54.1195 50.2245 55.092 49.3227C56.08 48.4235 56.9247 46.9237 57.6262 44.8234C58.3432 42.7259 58.995 39.9934 59.5814 36.6259C59.9921 34.2672 60.0604 31.9927 59.7863 29.8025C59.5304 27.5994 58.9367 25.5454 58.0054 23.6404C57.0922 21.7227 55.8578 19.9968 54.3022 18.4628C52.7467 16.9288 50.8941 15.6309 48.7447 14.569C46.6108 13.5099 44.1782 12.7426 41.447 12.267C37.7382 11.6211 34.3406 11.621 31.2542 12.2667C28.1706 12.8969 25.4491 14.1098 23.0899 15.9054C20.7462 17.7037 18.8014 20.0112 17.2557 22.8279C15.7281 25.6317 14.6415 28.888 13.9956 32.5969C13.3227 36.4609 13.2454 39.9809 13.7635 43.157C14.2844 46.3175 15.3829 49.099 17.0591 51.5014C18.7353 53.9038 20.979 55.8934 23.7902 57.4702C26.5987 59.0625 29.9583 60.1991 33.8689 60.8801C35.6069 61.1828 37.3409 61.3248 39.0709 61.3063C40.7982 61.3033 42.3474 61.2214 43.7185 61.0604C45.1024 60.9177 46.1405 60.7867 46.8328 60.6674L47.913 63.3891C46.8725 63.6716 45.1767 66.5507 43.5027 66.7068C41.8442 66.8657 40.0595 66.9227 38.1487 66.8777C36.2534 66.8354 34.4057 66.6576 32.6056 66.3441ZM33.8366 46.6045C35.854 46.9558 37.5459 46.8348 38.9123 46.2413C40.2943 45.6506 41.396 44.6033 42.2175 43.0995C43.0572 41.5829 43.6878 39.6142 44.1094 37.1933C44.5046 34.8319 44.529 32.9015 44.1825 31.4022C43.8543 29.89 43.1299 28.7246 42.0093 27.9059C40.907 27.0744 39.4015 26.4925 37.4927 26.1601C35.7392 25.8547 34.1674 26.0207 32.7773 26.658C31.4027 27.298 30.2626 28.2906 29.3568 29.6358C28.4665 30.9837 27.8582 32.5486 27.5319 34.3305C27.2205 36.2109 27.1762 38.0259 27.3992 39.7756C27.6403 41.5124 28.2614 42.9955 29.2625 44.2251C30.279 45.4574 31.8037 46.2505 33.8366 46.6045Z" fill="url(#paint0_linear_2279_952)"/>
<path d="M33.6915 69.058C28.8809 68.2203 24.7283 66.8176 21.2336 64.85C17.7518 62.9006 14.9599 60.4318 12.8582 57.4437C10.7537 54.471 9.36211 51.031 8.68352 47.1235C8.00493 43.216 8.07639 38.9035 8.8979 34.186C9.69779 29.5926 11.0839 25.581 13.0562 22.1511C15.0285 18.7212 17.5115 15.9398 20.505 13.807C23.5168 11.6614 26.9727 10.2246 30.8728 9.49676C34.7729 8.76891 39.0507 8.81034 43.7061 9.62104C48.1598 10.3966 51.9643 11.7786 55.1196 13.7671C58.2748 15.7555 60.7964 18.1692 62.6844 21.0082C64.5878 23.8499 65.855 26.9486 66.4858 30.3041C67.1166 33.6597 67.1266 37.091 66.5159 40.5981C66.0889 43.05 65.5162 45.4205 64.7978 47.7097C64.0821 49.9834 63.1404 51.9939 61.9728 53.7411C60.8233 55.4756 59.3663 56.7728 57.6017 57.6327C55.8553 58.4798 53.7366 58.7104 51.2456 58.3246C49.9184 58.1414 48.6652 57.7633 47.4859 57.1902C46.3066 56.6171 45.3514 55.8592 44.6202 54.9164C43.8917 53.9581 43.5424 52.8421 43.5724 51.5682L43.2931 51.5195C42.7612 52.3702 41.9918 53.1157 40.985 53.7557C39.9809 54.3803 38.7632 54.8078 37.3321 55.0383C35.9191 55.2559 34.3349 55.1719 32.5794 54.7862C30.6376 54.3681 28.9533 53.6192 27.5265 52.5393C26.0997 51.4594 24.9519 50.1083 24.0832 48.4861C23.23 46.8666 22.6789 45.0278 22.4297 42.9698C22.1805 40.9119 22.2639 38.688 22.6801 36.2982C23.08 34.0015 23.7717 32.0034 24.7552 30.304C25.7414 28.5891 26.9235 27.1721 28.3015 26.053C29.6978 24.9211 31.2161 24.0983 32.8565 23.5845C34.4968 23.0707 36.1726 22.8589 37.8837 22.949C39.5455 23.0465 41.0349 23.3539 42.3518 23.871C43.6688 24.3881 44.7273 25.0121 45.5274 25.7431C46.343 26.4767 46.8077 27.2051 46.9216 27.9285L47.2242 27.9812L47.6781 25.3741L53.4043 26.3713L49.6427 47.9725C49.4292 49.1985 49.5663 50.2936 50.0539 51.2579C50.557 52.2249 51.406 52.8124 52.6009 53.0205C54.0131 53.2664 55.2054 52.9384 56.1779 52.0365C57.1659 51.1373 58.0106 49.6376 58.7122 47.5373C59.4292 45.4397 60.0809 42.7072 60.6673 39.3398C61.078 36.981 61.1464 34.7065 60.8722 32.5163C60.6163 30.3133 60.0227 28.2593 59.0913 26.3543C58.1781 24.4365 56.9438 22.7106 55.3882 21.1766C53.8326 19.6426 51.9801 18.3447 49.8306 17.2829C47.6967 16.2238 45.2641 15.4564 42.5329 14.9808C38.8241 14.335 35.4265 14.3349 32.3402 14.9806C29.2565 15.6108 26.5351 16.8237 24.1758 18.6193C21.8321 20.4176 19.8874 22.7251 18.3416 25.5417C16.8141 28.3456 15.7274 31.6019 15.0815 35.3107C14.4087 39.1748 14.3313 42.6948 14.8495 45.8708C15.3703 49.0314 16.4689 51.8129 18.145 54.2153C19.8212 56.6177 22.0649 58.6073 24.8761 60.184C27.6847 61.7763 31.0442 62.913 34.9548 63.594C36.6928 63.8966 38.4269 64.0387 40.1569 64.0202C41.8842 64.0172 43.4334 63.9352 44.8045 63.7743C46.1884 63.6315 47.2264 63.5005 47.9187 63.3813L48.6604 68.7627C47.6199 69.0452 46.2627 69.2645 44.5886 69.4207C42.9301 69.5796 41.1455 69.6365 39.2346 69.5916C37.3393 69.5493 35.4916 69.3715 33.6915 69.058ZM34.9225 49.3184C36.9399 49.6697 38.6318 49.5486 39.9983 48.9552C41.3802 48.3644 42.482 47.3171 43.3034 45.8134C44.1431 44.2968 44.7738 42.328 45.1953 39.9072C45.5906 37.5458 45.6149 35.6154 45.2685 34.116C44.9402 32.6039 44.2158 31.4385 43.0953 30.6198C41.9929 29.7883 40.4874 29.2063 38.5787 28.8739C36.8251 28.5686 35.2533 28.7346 33.8632 29.3719C32.4887 30.0119 31.3485 31.0045 30.4427 32.3497C29.5524 33.6976 28.9442 35.2625 28.6179 37.0444C28.3064 38.9248 28.2622 40.7398 28.4851 42.4894C28.7263 44.2262 29.3474 45.7094 30.3484 46.939C31.3649 48.1713 32.8897 48.9644 34.9225 49.3184Z" fill="url(#paint1_linear_2279_952)"/>
<defs>
<linearGradient id="paint0_linear_2279_952" x1="44.2992" y1="-10.6381" x2="5.59742" y2="0.460026" gradientUnits="userSpaceOnUse">
<stop stop-color="#8372E3"/>
<stop offset="1" stop-color="#463A8C"/>
</linearGradient>
<linearGradient id="paint1_linear_2279_952" x1="-2.28712" y1="-0.676317" x2="32.5591" y2="70.7737" gradientUnits="userSpaceOnUse">
<stop stop-color="white"/>
<stop offset="0.808554" stop-color="#8372E3"/>
</linearGradient>
</defs>
</svg>
