<svg width="56" height="33" viewBox="0 0 56 33" fill="none" xmlns="http://www.w3.org/2000/svg">
<path fill-rule="evenodd" clip-rule="evenodd" d="M7.98536 9.96237L4.8742 2.10037C3.99801 -0.113781 0.711145 0.495556 0.686861 2.87664L0.507736 20.4396C0.502851 20.5762 0.500388 20.7134 0.500388 20.8512C0.500388 20.9101 0.500839 20.969 0.501738 21.0277L0.5 21.1981L0.505442 21.1926C0.695158 27.5931 6.20221 32.7262 12.968 32.7262C19.8537 32.7262 25.4356 27.4096 25.4356 20.8512C25.4356 14.2927 19.8537 8.97609 12.968 8.97609C11.1965 8.97609 9.51139 9.32798 7.98536 9.96237Z" fill="#BAFD32"/>
<path fill-rule="evenodd" clip-rule="evenodd" d="M37.5949 9.96272L34.4836 2.10037C33.6074 -0.113781 30.3205 0.495556 30.2962 2.87664L30.1171 20.4379C30.1122 20.5752 30.1097 20.7131 30.1097 20.8516C30.1097 20.9113 30.1102 20.9708 30.1111 21.0303L30.1094 21.1981L30.1147 21.1926C30.3043 27.5933 35.8114 32.7267 42.5773 32.7267C49.463 32.7267 55.0449 27.41 55.0449 20.8516C55.0449 14.2932 49.463 8.97652 42.5773 8.97652C40.8059 8.97652 39.1208 9.32838 37.5949 9.96272Z" fill="#BAFD32"/>
</svg>
