<svg width="55" height="32" viewBox="0 0 55 32" fill="none" xmlns="http://www.w3.org/2000/svg">
<path fill-rule="evenodd" clip-rule="evenodd" d="M7.48536 9.23581L4.3742 1.37381C3.49801 -0.840343 0.211145 -0.231007 0.186861 2.15008L0.007736 19.713C0.00285073 19.8496 0.000388266 19.9868 0.000388254 20.1246C0.000388248 20.1835 0.000839172 20.2424 0.00173792 20.3011L0 20.4715L0.00544208 20.466C0.195158 26.8665 5.70221 31.9997 12.468 31.9997C19.3537 31.9997 24.9356 26.683 24.9356 20.1246C24.9356 13.5662 19.3537 8.24953 12.468 8.24953C10.6965 8.24953 9.01139 8.60142 7.48536 9.23581Z" fill="#CEC5FD"/>
<path fill-rule="evenodd" clip-rule="evenodd" d="M37.0948 9.2359L33.9836 1.37381C33.1074 -0.840343 29.8205 -0.231007 29.7962 2.15008L29.6172 19.7062C29.6121 19.8452 29.6096 19.9847 29.6096 20.1248C29.6096 20.1861 29.6101 20.2472 29.611 20.3083L29.6094 20.4715L29.6146 20.4662C29.8043 26.8667 35.3114 31.9999 42.0772 31.9999C48.9629 31.9999 54.5448 26.6832 54.5448 20.1248C54.5448 13.5664 48.9629 8.24972 42.0772 8.24972C40.3058 8.24972 38.6207 8.60157 37.0948 9.2359Z" fill="#CEC5FD"/>
</svg>
