<svg width="61" height="61" viewBox="0 0 61 61" fill="none" xmlns="http://www.w3.org/2000/svg">
<path d="M24.5365 8.63005C25.025 6.95586 27.2213 6.56861 28.2529 7.97474L35.3403 17.6346C35.75 18.193 36.4082 18.514 37.1004 18.4931L49.0759 18.1309C50.8191 18.0782 51.866 20.0472 50.8475 21.4629L43.8507 31.1887C43.4463 31.7508 43.3443 32.476 43.5782 33.1279L47.6233 44.4055C48.2121 46.0471 46.6629 47.6513 45.0018 47.1201L33.5902 43.471C32.9305 43.2601 32.2093 43.3872 31.6616 43.811L22.1862 51.1431C20.8069 52.2104 18.8025 51.2328 18.7944 49.4888L18.7384 37.5078C18.7351 36.8153 18.3913 36.1687 17.819 35.7787L7.91776 29.0326C6.47651 28.0506 6.78688 25.8423 8.44298 25.2956L19.8201 21.5401C20.4777 21.323 20.9864 20.7962 21.1804 20.1314L24.5365 8.63005Z" fill="#FEE825"/>
<g filter="url(#filter0_f_2212_4579)">
<path d="M24.5365 8.63005C25.025 6.95586 27.2213 6.56861 28.2529 7.97474L35.3403 17.6346C35.75 18.193 36.4082 18.514 37.1004 18.4931L49.0759 18.1309C50.8191 18.0782 51.866 20.0472 50.8475 21.4629L43.8507 31.1887C43.4463 31.7508 43.3443 32.476 43.5782 33.1279L47.6233 44.4055C48.2121 46.0471 46.6629 47.6513 45.0018 47.1201L33.5902 43.471C32.9305 43.2601 32.2093 43.3872 31.6616 43.811L22.1862 51.1431C20.8069 52.2104 18.8025 51.2328 18.7944 49.4888L18.7384 37.5078C18.7351 36.8153 18.3913 36.1687 17.819 35.7787L7.91776 29.0326C6.47651 28.0506 6.78688 25.8423 8.44298 25.2956L19.8201 21.5401C20.4777 21.323 20.9864 20.7962 21.1804 20.1314L24.5365 8.63005Z" fill="url(#paint0_linear_2212_4579)" fill-opacity="0.65"/>
</g>
<g filter="url(#filter1_f_2212_4579)">
<path d="M25.0721 11.7078C25.5484 10.0085 27.779 9.61514 28.8078 11.049L34.2785 18.6742C34.6851 19.2409 35.3462 19.5694 36.0436 19.551L45.3204 19.3066C47.0469 19.2611 48.0899 21.2002 47.1003 22.6157L41.6568 30.4021C41.2676 30.9588 41.1711 31.669 41.3975 32.3093L44.5865 41.326C45.1702 42.9764 43.6008 44.5764 41.9394 44.0245L33.1998 41.1214C32.5267 40.8978 31.7863 41.0284 31.2302 41.4687L24.0106 47.1858C22.6382 48.2726 20.6162 47.306 20.6003 45.5555L20.513 35.9918C20.5068 35.3127 20.1732 34.6783 19.6171 34.2883L11.8388 28.8332C10.4247 27.8416 10.7416 25.6627 12.3796 25.115L21.1805 22.1718C21.8421 21.9505 22.351 21.4158 22.5392 20.7441L25.0721 11.7078Z" fill="url(#paint1_linear_2212_4579)"/>
</g>
<path d="M24.5365 8.63005C25.025 6.95586 27.2213 6.56861 28.2529 7.97474L35.3403 17.6346C35.75 18.193 36.4082 18.514 37.1004 18.4931L49.0759 18.1309C50.8191 18.0782 51.866 20.0472 50.8475 21.4629L43.8507 31.1887C43.4463 31.7508 43.3443 32.476 43.5782 33.1279L47.6233 44.4055C48.2121 46.0471 46.6629 47.6513 45.0018 47.1201L33.5902 43.471C32.9305 43.2601 32.2093 43.3872 31.6616 43.811L22.1862 51.1431C20.8069 52.2104 18.8025 51.2328 18.7944 49.4888L18.7384 37.5078C18.7351 36.8153 18.3913 36.1687 17.819 35.7787L7.91776 29.0326C6.47651 28.0506 6.78688 25.8423 8.44298 25.2956L19.8201 21.5401C20.4777 21.323 20.9864 20.7962 21.1804 20.1314L24.5365 8.63005Z" fill="url(#paint2_linear_2212_4579)"/>
<g filter="url(#filter2_f_2212_4579)">
<ellipse cx="2.46723" cy="0.822424" rx="2.46723" ry="0.822424" transform="matrix(0.997513 -0.0704851 0.070488 0.997513 44.4102 19.543)" fill="white"/>
</g>
<g filter="url(#filter3_f_2212_4579)">
<path d="M30.5068 13.4545C30.5068 13.4545 36.2048 19.5829 35.899 19.8226C35.1023 20.4472 34.0481 19.8794 33.3246 19.0567C30.6542 16.0206 30.5068 13.4545 30.5068 13.4545Z" fill="white"/>
</g>
<g opacity="0.77" filter="url(#filter4_f_2212_4579)">
<path d="M13.7165 26.325C11.4896 26.8396 11.5764 25.7533 13.2382 25.342C19.6668 23.751 20.8707 22.6239 22.172 22.3944C23.7987 22.1076 23.1991 18.7078 24.5307 13.2887C25.6345 8.79657 26.88 11.8012 26.601 12.9236C25.8873 15.794 26.1734 22.6037 23.5898 23.5167C20.8665 24.4791 15.9434 25.8103 13.7165 26.325Z" fill="white"/>
</g>
<g filter="url(#filter5_f_2212_4579)">
<path d="M20.6266 50.8307C20.7518 51.5405 20.8543 51.5452 21.208 51.5337C23.2783 51.1687 31.5256 43.4628 32.7086 43.2542C33.655 43.0874 41.1922 45.8245 44.8425 47.2139C44.8425 47.2139 46.1952 47.3378 46.8867 46.7009C47.5437 46.0958 47.7654 45.6311 47.7568 44.7178C47.7482 43.8044 43.7204 33.9326 43.4701 32.5129C43.1572 30.7384 47.7768 25.8069 49.2645 23.8673C50.7522 21.9277 51.3091 20.7621 51.1787 20.0227C51.0483 19.2833 50.2046 18.8222 50.4914 20.4489C50.7783 22.0755 43.0182 29.0856 42.4264 31.782C41.8345 34.4785 47.9307 44.8395 45.6168 45.5525C43.3029 46.2654 33.857 41.9844 32.4739 41.9233C31.0908 41.8622 20.4702 49.9434 20.6266 50.8307Z" fill="#C18B01"/>
</g>
<defs>
<filter id="filter0_f_2212_4579" x="5.79567" y="5.91188" width="46.6548" height="46.8774" filterUnits="userSpaceOnUse" color-interpolation-filters="sRGB">
<feFlood flood-opacity="0" result="BackgroundImageFix"/>
<feBlend mode="normal" in="SourceGraphic" in2="BackgroundImageFix" result="shape"/>
<feGaussianBlur stdDeviation="0.601188" result="effect1_foregroundBlur_2212_4579"/>
</filter>
<filter id="filter1_f_2212_4579" x="9.74001" y="8.96852" width="38.9467" height="39.8784" filterUnits="userSpaceOnUse" color-interpolation-filters="sRGB">
<feFlood flood-opacity="0" result="BackgroundImageFix"/>
<feBlend mode="normal" in="SourceGraphic" in2="BackgroundImageFix" result="shape"/>
<feGaussianBlur stdDeviation="0.601188" result="effect1_foregroundBlur_2212_4579"/>
</filter>
<filter id="filter2_f_2212_4579" x="43.2654" y="18.1482" width="7.3276" height="4.08249" filterUnits="userSpaceOnUse" color-interpolation-filters="sRGB">
<feFlood flood-opacity="0" result="BackgroundImageFix"/>
<feBlend mode="normal" in="SourceGraphic" in2="BackgroundImageFix" result="shape"/>
<feGaussianBlur stdDeviation="0.601188" result="effect1_foregroundBlur_2212_4579"/>
</filter>
<filter id="filter3_f_2212_4579" x="29.3045" y="12.2517" width="7.80905" height="9.03854" filterUnits="userSpaceOnUse" color-interpolation-filters="sRGB">
<feFlood flood-opacity="0" result="BackgroundImageFix"/>
<feBlend mode="normal" in="SourceGraphic" in2="BackgroundImageFix" result="shape"/>
<feGaussianBlur stdDeviation="0.601188" result="effect1_foregroundBlur_2212_4579"/>
</filter>
<filter id="filter4_f_2212_4579" x="10.8132" y="9.69411" width="17.0298" height="17.9692" filterUnits="userSpaceOnUse" color-interpolation-filters="sRGB">
<feFlood flood-opacity="0" result="BackgroundImageFix"/>
<feBlend mode="normal" in="SourceGraphic" in2="BackgroundImageFix" result="shape"/>
<feGaussianBlur stdDeviation="0.601188" result="effect1_foregroundBlur_2212_4579"/>
</filter>
<filter id="filter5_f_2212_4579" x="19.7232" y="18.4469" width="32.3758" height="33.9911" filterUnits="userSpaceOnUse" color-interpolation-filters="sRGB">
<feFlood flood-opacity="0" result="BackgroundImageFix"/>
<feBlend mode="normal" in="SourceGraphic" in2="BackgroundImageFix" result="shape"/>
<feGaussianBlur stdDeviation="0.450891" result="effect1_foregroundBlur_2212_4579"/>
</filter>
<linearGradient id="paint0_linear_2212_4579" x1="-2.29279" y1="21.8355" x2="36.8601" y2="39.827" gradientUnits="userSpaceOnUse">
<stop stop-color="#ECC770"/>
<stop offset="1" stop-color="#FEE825"/>
</linearGradient>
<linearGradient id="paint1_linear_2212_4579" x1="2.7888" y1="22.2801" x2="36.1137" y2="37.0885" gradientUnits="userSpaceOnUse">
<stop stop-color="white"/>
<stop offset="1" stop-color="white" stop-opacity="0"/>
</linearGradient>
<linearGradient id="paint2_linear_2212_4579" x1="36.2838" y1="55.7389" x2="20.772" y2="27.9451" gradientUnits="userSpaceOnUse">
<stop stop-color="#D7AA4B"/>
<stop offset="1" stop-color="#BF8331" stop-opacity="0"/>
</linearGradient>
</defs>
</svg>
