<svg width="44" height="44" viewBox="0 0 44 44" fill="none" xmlns="http://www.w3.org/2000/svg">
<path fill-rule="evenodd" clip-rule="evenodd" d="M28.8172 28.2886C25.9192 28.2886 23.57 25.9775 23.57 23.1269C23.57 20.2758 25.9192 17.9646 28.8172 17.9646C31.7152 17.9646 34.0644 20.2758 34.0644 23.1269C34.0644 25.9775 31.7152 28.2886 28.8172 28.2886ZM30.388 13.1888L30.388 8.59662C31.6064 8.03047 32.4598 6.81792 32.4598 5.41071L32.4598 5.30471C32.4598 3.36255 30.8446 1.77356 28.8705 1.77356L28.7633 1.77356C26.7892 1.77356 25.174 3.36255 25.174 5.30471L25.174 5.41071C25.174 6.81792 26.0274 8.03096 27.2458 8.59712L27.2458 13.1888C25.4318 13.4646 23.7744 14.2007 22.4074 15.284L9.59154 5.47609C9.67612 5.15661 9.73553 4.82772 9.73603 4.48198C9.73804 2.28275 7.92856 0.497115 5.69213 0.494143C3.45671 0.491667 1.64119 2.27235 1.63868 4.47207C1.63616 6.6718 3.44565 8.45743 5.68207 8.45991C6.4106 8.4609 7.08525 8.25732 7.67633 7.92645L20.2828 17.5748C19.2109 19.1668 18.5826 21.0738 18.5826 23.1269C18.5826 25.2761 19.2728 27.2643 20.4389 28.8994L16.6054 32.6712C16.3024 32.5816 15.9882 32.5192 15.6549 32.5192C13.8177 32.5192 12.3279 33.9843 12.3279 35.7918C12.3279 37.5997 13.8177 39.0649 15.6549 39.0649C17.4926 39.0649 18.9818 37.5997 18.9818 35.7918C18.9818 35.4649 18.9184 35.1553 18.8273 34.8571L22.6194 31.1263C24.3408 32.4186 26.4846 33.1953 28.8172 33.1953C34.4697 33.1953 39.0513 28.6874 39.0513 23.1269C39.0513 18.0929 35.2923 13.9342 30.388 13.1888Z" fill="#F88B4C"/>
</svg>
