<svg width="33" height="33" viewBox="0 0 33 33" fill="none" xmlns="http://www.w3.org/2000/svg">
<path fill-rule="evenodd" clip-rule="evenodd" d="M23.3695 23.7392C20.9652 23.7392 19.0161 21.8218 19.0161 19.4568C19.0161 17.0914 20.9652 15.174 23.3695 15.174C25.7739 15.174 27.7229 17.0914 27.7229 19.4568C27.7229 21.8218 25.7739 23.7392 23.3695 23.7392ZM24.6728 11.2117L24.6728 7.40186C25.6837 6.93215 26.3917 5.92617 26.3917 4.75869L26.3917 4.67075C26.3917 3.05945 25.0517 1.74115 23.4138 1.74115L23.3249 1.74115C21.687 1.74115 20.347 3.05945 20.347 4.67075L20.347 4.75869C20.347 5.92617 21.055 6.93256 22.0659 7.40227L22.0659 11.2117C20.5608 11.4406 19.1857 12.0512 18.0516 12.95L7.41875 4.81293C7.48893 4.54787 7.53822 4.27501 7.53864 3.98817C7.54031 2.1636 6.03905 0.682155 4.18357 0.67969C2.32892 0.677635 0.822644 2.15497 0.820551 3.97995C0.818458 5.80494 2.31972 7.28638 4.1752 7.28844C4.77963 7.28926 5.33937 7.12036 5.82976 6.84586L16.2889 14.8506C15.3996 16.1713 14.8782 17.7535 14.8782 19.4568C14.8782 21.2399 15.4509 22.8894 16.4183 24.2459L13.2379 27.3752C12.9864 27.3008 12.7257 27.2491 12.4492 27.2491C10.925 27.2491 9.68897 28.4646 9.68896 29.9641C9.68896 31.4641 10.925 32.6796 12.4492 32.6796C13.9739 32.6796 15.2095 31.4641 15.2095 29.9641C15.2095 29.6929 15.1568 29.4361 15.0812 29.1887L18.2275 26.0935C19.6556 27.1656 21.4342 27.81 23.3695 27.81C28.0592 27.81 31.8604 24.07 31.8604 19.4568C31.8604 15.2804 28.7418 11.8302 24.6728 11.2117Z" fill="#F88B4C"/>
</svg>
