<svg width="182" height="181" viewBox="0 0 182 181" fill="none" xmlns="http://www.w3.org/2000/svg">
<g filter="url(#filter0_f_2169_8435)">
<path d="M107.043 34.9475C105.647 30.8259 100.304 29.7765 97.4533 33.0641L75.0514 58.9001C74.0978 59.9999 72.7555 60.6877 71.3059 60.8194L36.3502 63.9944C32.2026 64.3711 29.8845 68.9638 32.0449 72.5244L50.0282 102.162C50.8903 103.583 51.0808 105.312 50.5487 106.887L39.7956 138.703C38.3488 142.984 42.2792 147.139 46.634 145.933L85.1138 135.276C86.7215 134.831 88.4438 135.121 89.8166 136.069L120.05 156.942C123.806 159.535 128.925 156.817 128.881 152.252L128.536 117.024C128.521 115.484 129.137 114.005 130.242 112.931L152.55 91.2428C155.481 88.3936 154.495 83.4695 150.694 81.9673L121.105 70.2742C119.566 69.6658 118.372 68.4107 117.841 66.8426L107.043 34.9475Z" fill="url(#paint0_linear_2169_8435)" fill-opacity="0.9"/>
</g>
<mask id="mask0_2169_8435" style="mask-type:alpha" maskUnits="userSpaceOnUse" x="31" y="31" width="124" height="127">
<path d="M107.109 34.7822C105.674 30.7058 100.373 29.6973 97.5415 32.9624L75.0514 58.9001C74.0978 59.9999 72.7555 60.6877 71.3059 60.8194L36.3502 63.9944C32.2026 64.3711 29.8845 68.9638 32.0449 72.5244L50.032 102.169C50.892 103.586 51.0838 105.31 50.5564 106.882L39.8696 138.728C38.4331 143.008 42.3657 147.154 46.7161 145.946L85.116 135.278C86.7224 134.831 88.4439 135.12 89.8171 136.065L120.17 156.963C123.934 159.554 129.054 156.821 128.995 152.252L128.543 117.034C128.523 115.488 129.14 114.002 130.249 112.924L152.611 91.1833C155.526 88.3494 154.57 83.4548 150.802 81.9267L121.54 70.0575C120.044 69.4507 118.88 68.2311 118.344 66.7083L107.109 34.7822Z" fill="#FFD900"/>
</mask>
<g mask="url(#mask0_2169_8435)">
<path d="M107.043 34.9475C105.647 30.8259 100.304 29.7765 97.4533 33.0641L75.0514 58.9001C74.0978 59.9999 72.7555 60.6877 71.3059 60.8194L36.3502 63.9944C32.2026 64.3711 29.8845 68.9638 32.0449 72.5244L50.0282 102.162C50.8903 103.583 51.0808 105.312 50.5487 106.887L39.7956 138.703C38.3488 142.984 42.2792 147.139 46.634 145.933L85.1138 135.276C86.7215 134.831 88.4438 135.121 89.8166 136.069L120.05 156.942C123.806 159.535 128.925 156.817 128.881 152.252L128.536 117.024C128.521 115.484 129.137 114.005 130.242 112.931L152.55 91.2428C155.481 88.3936 154.495 83.4695 150.694 81.9673L121.105 70.2742C119.566 69.6658 118.372 68.4107 117.841 66.8426L107.043 34.9475Z" fill="url(#paint1_linear_2169_8435)"/>
<path d="M103.771 33.5011C102.375 29.3795 97.0321 28.3301 94.1815 31.6177L71.7796 57.4537C70.826 58.5534 69.4837 59.2413 68.0341 59.3729L33.0784 62.548C28.9307 62.9247 26.6127 67.5174 28.7731 71.0779L46.7563 100.716C47.6185 102.137 47.809 103.866 47.2769 105.441L36.5238 137.256C35.0769 141.537 39.0073 145.693 43.3621 144.487L81.842 133.83C83.4496 133.384 85.172 133.675 86.5447 134.623L116.778 155.496C120.534 158.089 125.654 155.37 125.609 150.806L125.264 115.578C125.249 114.038 125.865 112.559 126.97 111.485L149.278 89.7964C152.209 86.9472 151.224 82.0231 147.422 80.5209L117.833 68.8278C116.294 68.2194 115.1 66.9643 114.569 65.3962L103.771 33.5011Z" fill="url(#paint2_linear_2169_8435)"/>
<g filter="url(#filter1_f_2169_8435)">
<path d="M93.2547 111.618C106.552 113.678 120.631 145.128 125.385 156.676C122.59 158.766 119.541 157.418 118.366 156.483C110.37 150.925 94.0621 139.425 91.2282 137.213C88.4591 135.053 85.6452 135.063 84.537 135.608C74.3967 138.877 47.3232 145.444 45.5633 145.997C43.3635 146.688 42.817 145.313 41.1233 144.491C39.7683 143.834 38.9807 142.314 39.483 141.806C51.4942 129.67 75.2404 108.828 93.2547 111.618Z" fill="url(#paint3_linear_2169_8435)"/>
</g>
<g filter="url(#filter2_f_2169_8435)">
<path d="M89.1137 110.977C75.8166 108.917 48.8941 134.163 40.8689 143.731C42.9014 146.569 43.4735 146.141 44.8762 145.606C54.1792 142.727 79.9313 137.236 83.3015 135.986C86.5946 134.764 89.2734 135.626 90.1649 136.48C98.841 142.664 116.841 155.395 118.351 156.454C120.239 157.778 121.618 158.352 123.481 158.081C124.971 157.865 125.614 157.007 125.289 156.372C117.512 141.17 107.128 113.767 89.1137 110.977Z" fill="url(#paint4_linear_2169_8435)"/>
</g>
<g filter="url(#filter3_f_2169_8435)">
<path d="M89.1154 110.977C75.8183 108.917 41.1763 143.342 41.1763 143.342C41.1763 143.342 44.7705 146.642 46.1733 146.106C55.4763 143.228 79.933 137.236 83.3032 135.986C86.5963 134.764 89.2751 135.626 90.1666 136.48C98.8427 142.664 116.843 155.395 118.353 156.454C120.24 157.778 121.619 158.352 123.482 158.081C124.973 157.865 125.616 157.007 125.29 156.372C117.514 141.17 107.13 113.767 89.1154 110.977Z" fill="url(#paint5_linear_2169_8435)" fill-opacity="0.3"/>
</g>
<g filter="url(#filter4_f_2169_8435)">
<path d="M55.2223 102.441C51.9201 102.556 51.4518 102.379 50.7383 101.747C46.3277 94.3919 37.2931 79.3208 36.4387 77.873C35.3707 76.0632 28.06 65.2291 34.1294 66.087C40.1988 66.945 68.9385 85.5714 69.4282 93.512C69.9179 101.453 59.3502 102.298 55.2223 102.441Z" fill="url(#paint6_linear_2169_8435)"/>
</g>
<g filter="url(#filter5_f_2169_8435)">
<path d="M55.2223 102.441C51.9201 102.556 51.4518 102.379 50.7383 101.747C46.3277 94.3919 37.2931 79.3208 36.4387 77.873C35.3707 76.0632 28.06 65.2291 34.1294 66.087C40.1988 66.945 68.9385 85.5714 69.4282 93.512C69.9179 101.453 59.3502 102.298 55.2223 102.441Z" fill="url(#paint7_linear_2169_8435)"/>
</g>
<g filter="url(#filter6_f_2169_8435)">
<path d="M69.1889 91.5197C69.1889 91.5197 74.7654 97.5171 74.3805 102.553C73.4592 114.611 67.5017 111.381 44.6017 143.758C21.7017 176.134 52.7046 106.693 50.7872 103.825C48.8698 100.957 69.1889 91.5197 69.1889 91.5197Z" fill="url(#paint8_linear_2169_8435)"/>
</g>
<g filter="url(#filter7_f_2169_8435)">
<path d="M115.235 104.327C112.738 108.644 120.775 130.98 126.109 141.566C126.764 142.882 127.378 141.321 127.475 140.456C127.39 131.47 126.647 115.883 126.95 113.931C127.328 111.49 143.368 98.0917 150.136 92.4203C155.55 87.8832 151.89 86.972 149.383 87.0835C137.524 89.1826 119.043 97.7423 115.235 104.327Z" fill="url(#paint9_linear_2169_8435)"/>
</g>
<g filter="url(#filter8_f_2169_8435)">
<path d="M91.3441 115.19C98.5045 116.612 109.099 127.505 113.437 133.21C110.023 126.323 101.402 112.838 90.7269 111.578C80.0513 110.319 67.1948 118.344 63.2905 127.075C69.952 122.926 79.7328 112.885 91.3441 115.19Z" fill="url(#paint10_linear_2169_8435)" fill-opacity="0.87"/>
</g>
<g filter="url(#filter9_f_2169_8435)">
<path d="M121.295 148.928L109.108 127.58C109.108 127.58 119.797 144.486 122.592 144.452C126.18 144.407 117.655 122.01 117.655 122.01C117.655 122.01 107.258 101.615 114.789 100.087C135.842 91.8006 146.674 86.5741 152.135 86.7568C144.298 89.0134 125.022 98.2031 122.654 103.661C120.286 109.118 125.934 147.152 125.934 147.152C126.212 150.288 122.556 150.597 121.295 148.928Z" fill="url(#paint11_linear_2169_8435)" fill-opacity="0.78"/>
</g>
<g filter="url(#filter10_f_2169_8435)">
<path d="M102.451 47.8743L102.371 34.0895C102.366 33.2325 101.53 32.6654 100.834 33.165C94.556 37.6688 87.4998 55.6809 82.5893 62.2174C81.3252 63.576 76.8736 65.9559 74.0648 67.2369C71.4651 68.4226 49.5016 65.9206 38.3024 65.7723C37.6521 65.7637 37.4667 66.607 38.0483 66.8982L45.0112 70.3834C46.5631 71.1602 48.1925 71.7439 49.8595 72.2268C60.8086 75.3987 82.7263 83.8105 87.6925 72.7043C92.3225 62.35 96.2619 51.0202 100.414 49.7616C101.326 49.4852 102.457 48.8272 102.451 47.8743Z" fill="url(#paint12_linear_2169_8435)"/>
</g>
<g filter="url(#filter11_f_2169_8435)">
<path d="M109.758 76.56C111.564 79.986 136.069 86.1822 146.079 86.3853C150.474 85.5924 155.053 83.7106 144.208 84.325C135.838 84.799 114.735 74.4081 112.229 74.0199C109.723 73.6317 106.699 47.4938 105.709 39.2569C104.643 30.3897 102.506 31.599 101.078 34.1942C99.6493 36.7893 106.191 69.7912 109.758 76.56Z" fill="white" fill-opacity="0.76"/>
</g>
<g filter="url(#filter12_f_2169_8435)">
<path d="M69.7627 103.843C69.0106 103.727 55.6275 104.883 53.5908 108.48C50.4476 114.032 48.0107 128.483 47.7485 130.176C47.4863 131.868 48.9372 131.608 49.6955 131.266C59.2197 127.513 70.7028 103.989 69.7627 103.843Z" fill="url(#paint13_linear_2169_8435)"/>
</g>
<g filter="url(#filter13_f_2169_8435)">
<ellipse cx="2.8993" cy="1.49512" rx="2.8993" ry="1.49512" transform="matrix(-0.747881 -0.663833 -0.724168 0.689623 39.1576 71.3604)" fill="white"/>
</g>
<g filter="url(#filter14_f_2169_8435)">
<ellipse cx="1.34522" cy="6.63506" rx="1.34522" ry="6.63506" transform="matrix(-0.85186 -0.523769 -0.580142 0.814516 87.7869 51.5859)" fill="white"/>
</g>
<g filter="url(#filter15_f_2169_8435)">
<path d="M115.02 150.143C115.349 149.94 115.337 149.53 115.193 149.108C114.939 148.359 114.288 147.838 113.63 147.4L93.7047 134.163L112.504 149.471C113.079 149.858 114.386 150.533 115.02 150.143Z" fill="white"/>
</g>
<g filter="url(#filter16_f_2169_8435)">
<path d="M62.207 107.47C62.5562 105.209 57.8392 106.009 56.7257 106.621C56.2393 106.546 54.9568 106.872 53.7187 108.777C52.4806 110.682 49.7767 122.78 48.5794 128.59C48.5083 129.155 48.49 130.339 48.9855 130.56C49.481 130.78 50.4075 130.008 50.8088 129.595C53.6036 123.209 61.8578 109.732 62.207 107.47Z" fill="url(#paint14_linear_2169_8435)"/>
</g>
<g filter="url(#filter17_f_2169_8435)">
<path d="M118.33 104.693C119.037 100.122 129.574 95.7233 135.388 94.7125C136.691 94.0649 138.593 92.6604 135.774 92.2238C132.251 91.678 116.252 99.278 115.142 101.539C114.032 103.799 115.852 111.263 116.524 111.425C117.196 111.587 117.445 110.406 118.33 104.693Z" fill="white"/>
</g>
<g filter="url(#filter18_f_2169_8435)">
<path d="M99.5222 38.1137C98.5405 41.3836 102.232 48.1172 103.647 49.4498C105.805 50.0978 106.096 40.9212 105.192 37.1473C104.482 34.1833 100.749 34.0264 99.5222 38.1137Z" fill="white"/>
</g>
<g filter="url(#filter19_f_2169_8435)">
<ellipse cx="1.4904" cy="4.95516" rx="1.4904" ry="4.95516" transform="matrix(-0.55907 -0.829121 -0.874984 0.484152 150.479 87.4502)" fill="white"/>
</g>
</g>
<defs>
<filter id="filter0_f_2169_8435" x="16.2214" y="16.1201" width="153.036" height="156.829" filterUnits="userSpaceOnUse" color-interpolation-filters="sRGB">
<feFlood flood-opacity="0" result="BackgroundImageFix"/>
<feBlend mode="normal" in="SourceGraphic" in2="BackgroundImageFix" result="shape"/>
<feGaussianBlur stdDeviation="7.5" result="effect1_foregroundBlur_2169_8435"/>
</filter>
<filter id="filter1_f_2169_8435" x="36.0766" y="108.11" width="92.5627" height="52.9247" filterUnits="userSpaceOnUse" color-interpolation-filters="sRGB">
<feFlood flood-opacity="0" result="BackgroundImageFix"/>
<feBlend mode="normal" in="SourceGraphic" in2="BackgroundImageFix" result="shape"/>
<feGaussianBlur stdDeviation="1.62693" result="effect1_foregroundBlur_2169_8435"/>
</filter>
<filter id="filter2_f_2169_8435" x="37.615" y="107.604" width="91.01" height="53.7968" filterUnits="userSpaceOnUse" color-interpolation-filters="sRGB">
<feFlood flood-opacity="0" result="BackgroundImageFix"/>
<feBlend mode="normal" in="SourceGraphic" in2="BackgroundImageFix" result="shape"/>
<feGaussianBlur stdDeviation="1.62693" result="effect1_foregroundBlur_2169_8435"/>
</filter>
<filter id="filter3_f_2169_8435" x="37.9224" y="107.634" width="90.7044" height="53.7665" filterUnits="userSpaceOnUse" color-interpolation-filters="sRGB">
<feFlood flood-opacity="0" result="BackgroundImageFix"/>
<feBlend mode="normal" in="SourceGraphic" in2="BackgroundImageFix" result="shape"/>
<feGaussianBlur stdDeviation="1.62693" result="effect1_foregroundBlur_2169_8435"/>
</filter>
<filter id="filter4_f_2169_8435" x="28.4922" y="62.7852" width="44.2063" height="42.9423" filterUnits="userSpaceOnUse" color-interpolation-filters="sRGB">
<feFlood flood-opacity="0" result="BackgroundImageFix"/>
<feBlend mode="normal" in="SourceGraphic" in2="BackgroundImageFix" result="shape"/>
<feGaussianBlur stdDeviation="1.62693" result="effect1_foregroundBlur_2169_8435"/>
</filter>
<filter id="filter5_f_2169_8435" x="28.4922" y="62.7852" width="44.2063" height="42.9423" filterUnits="userSpaceOnUse" color-interpolation-filters="sRGB">
<feFlood flood-opacity="0" result="BackgroundImageFix"/>
<feBlend mode="normal" in="SourceGraphic" in2="BackgroundImageFix" result="shape"/>
<feGaussianBlur stdDeviation="1.62693" result="effect1_foregroundBlur_2169_8435"/>
</filter>
<filter id="filter6_f_2169_8435" x="30.3751" y="85.7627" width="49.7813" height="72.335" filterUnits="userSpaceOnUse" color-interpolation-filters="sRGB">
<feFlood flood-opacity="0" result="BackgroundImageFix"/>
<feBlend mode="normal" in="SourceGraphic" in2="BackgroundImageFix" result="shape"/>
<feGaussianBlur stdDeviation="2.87842" result="effect1_foregroundBlur_2169_8435"/>
</filter>
<filter id="filter7_f_2169_8435" x="111.512" y="83.8213" width="44.6798" height="61.5058" filterUnits="userSpaceOnUse" color-interpolation-filters="sRGB">
<feFlood flood-opacity="0" result="BackgroundImageFix"/>
<feBlend mode="normal" in="SourceGraphic" in2="BackgroundImageFix" result="shape"/>
<feGaussianBlur stdDeviation="1.62693" result="effect1_foregroundBlur_2169_8435"/>
</filter>
<filter id="filter8_f_2169_8435" x="61.4133" y="109.57" width="53.9007" height="25.5172" filterUnits="userSpaceOnUse" color-interpolation-filters="sRGB">
<feFlood flood-opacity="0" result="BackgroundImageFix"/>
<feBlend mode="normal" in="SourceGraphic" in2="BackgroundImageFix" result="shape"/>
<feGaussianBlur stdDeviation="0.938615" result="effect1_foregroundBlur_2169_8435"/>
</filter>
<filter id="filter9_f_2169_8435" x="105.354" y="82.9975" width="50.5357" height="70.6847" filterUnits="userSpaceOnUse" color-interpolation-filters="sRGB">
<feFlood flood-opacity="0" result="BackgroundImageFix"/>
<feBlend mode="normal" in="SourceGraphic" in2="BackgroundImageFix" result="shape"/>
<feGaussianBlur stdDeviation="1.87723" result="effect1_foregroundBlur_2169_8435"/>
</filter>
<filter id="filter10_f_2169_8435" x="32.0672" y="27.3458" width="76.0156" height="56.5563" filterUnits="userSpaceOnUse" color-interpolation-filters="sRGB">
<feFlood flood-opacity="0" result="BackgroundImageFix"/>
<feBlend mode="normal" in="SourceGraphic" in2="BackgroundImageFix" result="shape"/>
<feGaussianBlur stdDeviation="2.81584" result="effect1_foregroundBlur_2169_8435"/>
</filter>
<filter id="filter11_f_2169_8435" x="97.1225" y="28.5453" width="57.5343" height="61.5949" filterUnits="userSpaceOnUse" color-interpolation-filters="sRGB">
<feFlood flood-opacity="0" result="BackgroundImageFix"/>
<feBlend mode="normal" in="SourceGraphic" in2="BackgroundImageFix" result="shape"/>
<feGaussianBlur stdDeviation="1.87723" result="effect1_foregroundBlur_2169_8435"/>
</filter>
<filter id="filter12_f_2169_8435" x="45.8401" y="101.958" width="25.8541" height="31.4371" filterUnits="userSpaceOnUse" color-interpolation-filters="sRGB">
<feFlood flood-opacity="0" result="BackgroundImageFix"/>
<feBlend mode="normal" in="SourceGraphic" in2="BackgroundImageFix" result="shape"/>
<feGaussianBlur stdDeviation="0.938615" result="effect1_foregroundBlur_2169_8435"/>
</filter>
<filter id="filter13_f_2169_8435" x="31.6052" y="66.406" width="8.60273" height="8.12165" filterUnits="userSpaceOnUse" color-interpolation-filters="sRGB">
<feFlood flood-opacity="0" result="BackgroundImageFix"/>
<feBlend mode="normal" in="SourceGraphic" in2="BackgroundImageFix" result="shape"/>
<feGaussianBlur stdDeviation="0.938615" result="effect1_foregroundBlur_2169_8435"/>
</filter>
<filter id="filter14_f_2169_8435" x="76.8972" y="48.9577" width="11.789" height="14.6558" filterUnits="userSpaceOnUse" color-interpolation-filters="sRGB">
<feFlood flood-opacity="0" result="BackgroundImageFix"/>
<feBlend mode="normal" in="SourceGraphic" in2="BackgroundImageFix" result="shape"/>
<feGaussianBlur stdDeviation="0.938615" result="effect1_foregroundBlur_2169_8435"/>
</filter>
<filter id="filter15_f_2169_8435" x="89.9503" y="130.409" width="29.0935" height="23.6066" filterUnits="userSpaceOnUse" color-interpolation-filters="sRGB">
<feFlood flood-opacity="0" result="BackgroundImageFix"/>
<feBlend mode="normal" in="SourceGraphic" in2="BackgroundImageFix" result="shape"/>
<feGaussianBlur stdDeviation="1.87723" result="effect1_foregroundBlur_2169_8435"/>
</filter>
<filter id="filter16_f_2169_8435" x="44.7877" y="102.213" width="21.1923" height="32.1398" filterUnits="userSpaceOnUse" color-interpolation-filters="sRGB">
<feFlood flood-opacity="0" result="BackgroundImageFix"/>
<feBlend mode="normal" in="SourceGraphic" in2="BackgroundImageFix" result="shape"/>
<feGaussianBlur stdDeviation="1.87723" result="effect1_foregroundBlur_2169_8435"/>
</filter>
<filter id="filter17_f_2169_8435" x="112.289" y="89.6933" width="27.4488" height="24.2491" filterUnits="userSpaceOnUse" color-interpolation-filters="sRGB">
<feFlood flood-opacity="0" result="BackgroundImageFix"/>
<feBlend mode="normal" in="SourceGraphic" in2="BackgroundImageFix" result="shape"/>
<feGaussianBlur stdDeviation="1.25149" result="effect1_foregroundBlur_2169_8435"/>
</filter>
<filter id="filter18_f_2169_8435" x="95.6039" y="31.2231" width="13.8239" height="22.0138" filterUnits="userSpaceOnUse" color-interpolation-filters="sRGB">
<feFlood flood-opacity="0" result="BackgroundImageFix"/>
<feBlend mode="normal" in="SourceGraphic" in2="BackgroundImageFix" result="shape"/>
<feGaussianBlur stdDeviation="1.87723" result="effect1_foregroundBlur_2169_8435"/>
</filter>
<filter id="filter19_f_2169_8435" x="138.392" y="83.4111" width="13.8376" height="10.4044" filterUnits="userSpaceOnUse" color-interpolation-filters="sRGB">
<feFlood flood-opacity="0" result="BackgroundImageFix"/>
<feBlend mode="normal" in="SourceGraphic" in2="BackgroundImageFix" result="shape"/>
<feGaussianBlur stdDeviation="1.25149" result="effect1_foregroundBlur_2169_8435"/>
</filter>
<linearGradient id="paint0_linear_2169_8435" x1="41.6039" y1="135.86" x2="144.457" y2="70.9129" gradientUnits="userSpaceOnUse">
<stop offset="1" stop-color="white"/>
</linearGradient>
<linearGradient id="paint1_linear_2169_8435" x1="41.6039" y1="135.86" x2="144.457" y2="70.9129" gradientUnits="userSpaceOnUse">
<stop stop-color="#FFD900"/>
<stop offset="1" stop-color="#FFE102"/>
</linearGradient>
<linearGradient id="paint2_linear_2169_8435" x1="58.4596" y1="83.4784" x2="120.853" y2="90.9852" gradientUnits="userSpaceOnUse">
<stop stop-color="#FFC400"/>
<stop offset="1" stop-color="#FFE102"/>
</linearGradient>
<linearGradient id="paint3_linear_2169_8435" x1="90.8912" y1="113.588" x2="106.078" y2="133.852" gradientUnits="userSpaceOnUse">
<stop stop-color="#B87409" stop-opacity="0"/>
<stop offset="1" stop-color="#E78F04"/>
</linearGradient>
<linearGradient id="paint4_linear_2169_8435" x1="90.7708" y1="113.57" x2="32.6822" y2="148.822" gradientUnits="userSpaceOnUse">
<stop stop-color="#C67D0A" stop-opacity="0"/>
<stop offset="1" stop-color="#E9890C"/>
</linearGradient>
<linearGradient id="paint5_linear_2169_8435" x1="98.8499" y1="154.528" x2="95.0893" y2="100.495" gradientUnits="userSpaceOnUse">
<stop stop-color="white" stop-opacity="0"/>
<stop offset="1" stop-color="white"/>
</linearGradient>
<linearGradient id="paint6_linear_2169_8435" x1="34.6164" y1="91.83" x2="47.2636" y2="67.0107" gradientUnits="userSpaceOnUse">
<stop stop-color="#C67D0A" stop-opacity="0"/>
<stop offset="1" stop-color="#C67D0A"/>
</linearGradient>
<linearGradient id="paint7_linear_2169_8435" x1="50.9417" y1="92.9651" x2="66.4376" y2="114.479" gradientUnits="userSpaceOnUse">
<stop stop-color="#C67D0A" stop-opacity="0"/>
<stop offset="1" stop-color="#C67D0A"/>
</linearGradient>
<linearGradient id="paint8_linear_2169_8435" x1="47.7066" y1="138.828" x2="56.3323" y2="91.039" gradientUnits="userSpaceOnUse">
<stop stop-color="#C67D0A" stop-opacity="0"/>
<stop offset="1" stop-color="#C67D0A"/>
</linearGradient>
<linearGradient id="paint9_linear_2169_8435" x1="167.429" y1="119.055" x2="73.2363" y2="166.458" gradientUnits="userSpaceOnUse">
<stop stop-color="#C67D0A" stop-opacity="0"/>
<stop offset="1" stop-color="#E9890C"/>
</linearGradient>
<linearGradient id="paint10_linear_2169_8435" x1="82.9978" y1="103.606" x2="86.5377" y2="132.157" gradientUnits="userSpaceOnUse">
<stop stop-color="white"/>
<stop offset="1" stop-color="white" stop-opacity="0"/>
</linearGradient>
<linearGradient id="paint11_linear_2169_8435" x1="65.3668" y1="151.607" x2="152.967" y2="78.0806" gradientUnits="userSpaceOnUse">
<stop stop-color="white" stop-opacity="0"/>
<stop offset="0.244793" stop-color="white"/>
<stop offset="0.463542" stop-color="white" stop-opacity="0.69"/>
<stop offset="0.754917" stop-color="white"/>
<stop offset="1" stop-color="white" stop-opacity="0"/>
</linearGradient>
<linearGradient id="paint12_linear_2169_8435" x1="63.3483" y1="41.6769" x2="92.5399" y2="122.698" gradientUnits="userSpaceOnUse">
<stop stop-color="white"/>
<stop offset="1" stop-color="white" stop-opacity="0"/>
</linearGradient>
<linearGradient id="paint13_linear_2169_8435" x1="34.4787" y1="131.598" x2="72.4314" y2="113.863" gradientUnits="userSpaceOnUse">
<stop stop-color="white"/>
<stop offset="1" stop-color="white" stop-opacity="0"/>
</linearGradient>
<linearGradient id="paint14_linear_2169_8435" x1="46.3783" y1="133.198" x2="56.9894" y2="106.312" gradientUnits="userSpaceOnUse">
<stop offset="0.207636" stop-color="white"/>
<stop offset="1" stop-color="white" stop-opacity="0"/>
</linearGradient>
</defs>
</svg>
