<svg width="80" height="83" viewBox="0 0 80 83" fill="none" xmlns="http://www.w3.org/2000/svg">
<g filter="url(#filter0_f_2033_7558)">
<path d="M36.3056 12.2357C34.8611 10.6501 32.2396 11.2409 31.615 13.2929L26.6999 29.4395C26.4913 30.1249 26.0248 30.7025 25.3988 31.0509L10.306 39.45C8.52446 40.4414 8.39142 42.9541 10.0583 44.1281L24.0886 54.0098C24.752 54.4771 25.1768 55.2122 25.2504 56.0203L26.7611 72.6114C26.9626 74.8234 29.5577 75.9077 31.2729 74.4964L46.4267 62.0285C47.0636 61.5044 47.9012 61.292 48.711 61.4491L66.0556 64.8156C68.3288 65.2568 70.1054 62.8762 69.0356 60.8225L61.9272 47.1771C61.2645 45.9049 61.2045 44.4032 61.7637 43.0822L67.8558 28.6911C68.6452 26.8261 67.2287 24.773 65.205 24.8489L49.6555 25.4326C48.8416 25.4631 48.0556 25.1334 47.5071 24.5313L36.3056 12.2357Z" fill="white"/>
</g>
<mask id="mask0_2033_7558" style="mask-type:alpha" maskUnits="userSpaceOnUse" x="8" y="11" width="62" height="65">
<path d="M36.3046 12.1478C34.8513 10.5902 32.2567 11.1913 31.6363 13.2292L26.7018 29.4395C26.4932 30.1249 26.0268 30.7025 25.4008 31.0509L10.308 39.45C8.52642 40.4414 8.39337 42.9541 10.0603 44.1281L24.0935 54.0119C24.7552 54.478 25.1796 55.2106 25.2547 56.0165L26.8013 72.6078C27.0073 74.8177 29.6015 75.8971 31.3143 74.4856L46.4299 62.0287C47.0661 61.5045 47.903 61.2913 48.7124 61.4473L66.4979 64.8754C68.7035 65.3005 70.4693 63.0583 69.5388 61.0138L62.3031 45.1147C61.9905 44.4277 61.9722 43.6428 62.2524 42.942L67.9889 28.5975C68.728 26.7494 67.3317 24.7491 65.342 24.8057L49.8094 25.2481C49.0155 25.2707 48.2502 24.9509 47.7084 24.3702L36.3046 12.1478Z" fill="#FFD900"/>
</mask>
<g mask="url(#mask0_2033_7558)">
<path d="M36.3075 12.2357C34.863 10.6501 32.2416 11.2409 31.6169 13.2929L26.7018 29.4395C26.4932 30.1249 26.0268 30.7025 25.4008 31.0509L10.308 39.45C8.52641 40.4414 8.39337 42.9541 10.0603 44.1281L24.0905 54.0098C24.754 54.4771 25.1787 55.2122 25.2523 56.0203L26.7631 72.6114C26.9645 74.8234 29.5596 75.9077 31.2749 74.4964L46.4286 62.0285C47.0656 61.5044 47.9032 61.292 48.7129 61.4491L66.0575 64.8156C68.3307 65.2568 70.1073 62.8762 69.0375 60.8225L61.9292 47.1771C61.2664 45.9049 61.2065 44.4032 61.7657 43.0822L67.8577 28.6911C68.6472 26.8261 67.2307 24.773 65.2069 24.8489L49.6574 25.4326C48.8436 25.4631 48.0576 25.1334 47.5091 24.5313L36.3075 12.2357Z" fill="url(#paint0_linear_2033_7558)"/>
<path d="M34.5497 12.2317C33.1052 10.6461 30.4838 11.237 29.8591 13.289L24.944 29.4356C24.7354 30.1209 24.269 30.6986 23.643 31.0469L8.55017 39.446C6.76859 40.4375 6.63555 42.9501 8.30247 44.1242L22.3327 54.0059C22.9961 54.4731 23.4209 55.2082 23.4945 56.0163L25.0053 72.6074C25.2067 74.8195 27.8018 75.9037 29.517 74.4924L44.6708 62.0245C45.3078 61.5004 46.1454 61.288 46.9551 61.4452L64.6816 64.8857C66.8846 65.3133 68.6529 63.0777 67.7295 61.0324L60.54 45.1077C60.2306 44.4224 60.2136 43.6407 60.4928 42.9426L66.2155 28.6324C66.9586 26.7742 65.5435 24.7664 63.5437 24.8414L47.8996 25.4286C47.0857 25.4592 46.2998 25.1294 45.7513 24.5274L34.5497 12.2317Z" fill="url(#paint1_linear_2033_7558)"/>
<g filter="url(#filter1_f_2033_7558)">
<path d="M45.38 49.6902C51.7633 47.9798 64.3517 59.4237 68.7873 63.708C67.9477 65.2101 66.3097 65.206 65.5957 65.0162C60.8968 64.0885 51.2811 62.1222 49.5677 61.684C47.8934 61.2559 46.6315 61.8201 46.2422 62.287C42.3383 65.783 31.485 74.1386 30.8045 74.7387C29.954 75.4889 29.4347 74.9749 28.5102 74.9395C27.7706 74.9111 27.1141 74.3793 27.2386 74.0497C30.2168 66.1662 36.7323 52.0073 45.38 49.6902Z" fill="url(#paint2_linear_2033_7558)"/>
</g>
<g filter="url(#filter2_f_2033_7558)">
<path d="M43.393 50.2235C37.0097 51.9339 29.9445 68.7182 28.2453 74.6464C29.7235 75.5274 29.8953 75.2201 30.4187 74.6987C34.0242 71.5459 44.4984 63.9406 45.7633 62.7044C46.9991 61.4964 48.3741 61.3542 48.9447 61.5638C54.0736 62.6395 64.6948 64.8269 65.5841 65.0065C66.6958 65.2308 67.4295 65.2167 68.2124 64.7238C68.8387 64.3295 68.9567 63.8132 68.684 63.59C62.1631 58.2519 52.0407 47.9064 43.393 50.2235Z" fill="url(#paint3_linear_2033_7558)"/>
</g>
<g filter="url(#filter3_f_2033_7558)">
<path d="M43.3931 50.2231C37.0099 51.9335 28.3053 74.4091 28.3053 74.4091C28.3053 74.4091 30.577 75.1889 31.1005 74.6676C34.706 71.5147 44.4986 63.9402 45.7634 62.7039C46.9993 61.496 48.3742 61.3537 48.9448 61.5634C54.0737 62.6391 64.6949 64.8265 65.5843 65.006C66.6959 65.2304 67.4296 65.2163 68.2125 64.7234C68.8388 64.329 68.9569 63.8128 68.6842 63.5896C62.1633 58.2515 52.0408 47.906 43.3931 50.2231Z" fill="url(#paint4_linear_2033_7558)" fill-opacity="0.3"/>
</g>
<g filter="url(#filter4_f_2033_7558)">
<path d="M26.468 53.096C25.0074 53.8043 24.7618 53.8172 24.3154 53.6728C20.8694 51.2189 13.8093 46.1898 13.1371 45.704C12.2969 45.0967 6.85517 41.6436 9.75239 40.8257C12.6496 40.0077 29.2693 42.73 31.0708 46.2286C32.8723 49.7272 28.2937 52.2107 26.468 53.096Z" fill="url(#paint5_linear_2033_7558)"/>
</g>
<g filter="url(#filter5_f_2033_7558)">
<path d="M26.468 53.096C25.0074 53.8043 24.7618 53.8172 24.3154 53.6728C20.8694 51.2189 13.8093 46.1898 13.1371 45.704C12.2969 45.0967 6.85517 41.6436 9.75239 40.8257C12.6496 40.0077 29.2693 42.73 31.0708 46.2286C32.8723 49.7272 28.2937 52.2107 26.468 53.096Z" fill="url(#paint6_linear_2033_7558)"/>
</g>
<g filter="url(#filter6_f_2033_7558)">
<path d="M30.5667 45.3742C30.5667 45.3742 34.2661 46.9817 35.0963 49.3388C37.0839 54.9822 33.7646 54.7039 29.9265 73.9178C26.0884 93.1317 26.1841 55.5223 24.7516 54.6046C23.3191 53.6869 30.5667 45.3742 30.5667 45.3742Z" fill="url(#paint7_linear_2033_7558)"/>
</g>
<g filter="url(#filter7_f_2033_7558)">
<path d="M53.8021 42.0219C53.5405 44.473 61.5995 52.9904 66.1035 56.7239C66.2628 56.8573 66.3351 56.9244 66.3541 56.9425C66.3615 56.9496 66.3608 56.9493 66.3541 56.9425C66.3177 56.9062 66.1038 56.6834 66.0263 56.4359C64.1985 52.3835 60.2806 45.6808 60.0276 44.7365C59.7113 43.5561 65.1973 33.6058 67.1079 29.6922C68.6364 26.5613 66.8108 26.8762 65.7069 27.4249C60.798 30.7328 54.2012 38.2828 53.8021 42.0219Z" fill="url(#paint8_linear_2033_7558)"/>
</g>
<g filter="url(#filter8_f_2033_7558)">
<path d="M45.233 51.6879C48.7326 50.9084 55.6612 53.7353 58.746 55.4565C55.841 53.0163 49.2827 48.6232 44.2364 50.1749C39.1901 51.7265 35.0133 57.9162 34.9986 62.6463C37.1646 59.4435 39.5581 52.9519 45.233 51.6879Z" fill="url(#paint9_linear_2033_7558)" fill-opacity="0.87"/>
</g>
<g filter="url(#filter9_f_2033_7558)">
<path d="M65.4064 61.0153L55.6803 53.7701C55.6803 53.7701 63.8491 59.3016 65.0975 58.7304C66.7003 57.997 58.41 49.5488 58.41 49.5488C58.41 49.5488 49.6775 42.3794 52.7561 40.1906C60.5629 32.2532 64.3877 27.7331 66.877 26.7305C63.806 29.3102 56.9777 37.3034 57.0009 40.2455C57.0242 43.1876 67.1366 59.2887 67.1366 59.2887C67.8862 60.6539 66.3051 61.5203 65.4064 61.0153Z" fill="url(#paint10_linear_2033_7558)" fill-opacity="0.78"/>
</g>
<g filter="url(#filter10_f_2033_7558)">
<path d="M36.8182 19.0043L34.0331 12.7699C33.861 12.3846 33.3716 12.2959 33.1587 12.6603C31.2367 15.9488 31.6544 25.5064 30.7506 29.442C30.4533 30.3086 28.9277 32.2712 27.9212 33.4096C26.989 34.4639 16.6138 37.6997 11.5567 39.8587C11.2634 39.9839 11.3469 40.3988 11.6653 40.4149L15.4891 40.6093C16.3462 40.6529 17.2 40.5929 18.0507 40.4796C23.6041 39.7402 35.1129 39.1902 35.1316 33.1767C35.1491 27.5682 34.6622 21.6554 36.276 20.2588C36.6301 19.9523 37.0092 19.4319 36.8182 19.0043Z" fill="url(#paint11_linear_2033_7558)"/>
</g>
<g filter="url(#filter11_f_2033_7558)">
<path d="M46.3197 29.4588C47.8132 30.6514 59.5465 29.6618 64.0836 27.764C65.8999 26.5313 67.582 24.7689 62.8325 27.2029C59.1676 29.0812 48.1172 27.8062 46.9142 28.1285C45.7113 28.4508 38.648 17.9796 36.5626 14.4463C34.3177 10.6426 33.5988 11.615 33.4741 13.0741C33.3493 14.5333 43.3691 27.1026 46.3197 29.4588Z" fill="white" fill-opacity="0.76"/>
</g>
<g filter="url(#filter12_f_2033_7558)">
<path d="M33.2788 50.8421C32.9177 50.9389 27.1364 54.1227 26.938 56.1566C26.6317 59.2954 28.4154 66.324 28.6347 67.1427C28.8541 67.9614 29.4539 67.5549 29.7264 67.2494C33.2573 63.6568 33.7301 50.7212 33.2788 50.8421Z" fill="url(#paint12_linear_2033_7558)"/>
</g>
<g filter="url(#filter13_f_2033_7558)">
<ellipse cx="1.42706" cy="0.737751" rx="1.42706" ry="0.737751" transform="matrix(-0.951149 -0.308729 -0.380878 0.924626 13.0605 42.2148)" fill="white"/>
</g>
<g filter="url(#filter14_f_2033_7558)">
<ellipse cx="0.661417" cy="3.27816" rx="0.661417" ry="3.27816" transform="matrix(-0.990429 -0.13802 -0.1991 0.97998 30.9668 23.5938)" fill="white"/>
</g>
<g filter="url(#filter15_f_2033_7558)">
<path d="M62.8303 62.8135C62.9381 62.6559 62.8503 62.4722 62.7013 62.3095C62.4383 62.0223 62.0423 61.9151 61.6587 61.8477L50.0728 59.814L61.5665 63.0094C61.9014 63.0703 62.6231 63.1163 62.8303 62.8135Z" fill="white"/>
</g>
<g filter="url(#filter16_f_2033_7558)">
<path d="M30.6084 53.9856C30.3148 52.8921 28.3553 54.192 27.9771 54.6906C27.7435 54.7532 27.2323 55.1556 27.0556 56.2645C26.879 57.3734 28.0739 63.3894 28.6934 66.2588C28.7739 66.5286 29.0016 67.0686 29.268 67.0698C29.5345 67.0711 29.797 66.5375 29.8949 66.2706C29.8784 62.8231 30.9019 55.0791 30.6084 53.9856Z" fill="url(#paint13_linear_2033_7558)"/>
</g>
<g filter="url(#filter17_f_2033_7558)">
<path d="M55.2637 41.5722C54.6712 39.3618 58.5282 35.2752 60.9387 33.6617C61.395 33.1094 61.9693 32.0954 60.6161 32.458C58.9247 32.9112 53.2522 39.533 53.2038 40.7774C53.1554 42.0218 55.4594 45.0402 55.7935 44.98C56.1276 44.9198 56.0043 44.3351 55.2637 41.5722Z" fill="white"/>
</g>
<g filter="url(#filter18_f_2033_7558)">
<path d="M43.793 45.1785C46.5013 44.68 49.2145 38.7316 49.3951 37.8973C48.0036 36.1552 36.2995 15.1694 34.8136 15.5675C33.3278 15.9657 36.8326 40.8475 36.3285 42.9082C37.0248 43.5075 41.0847 45.6769 43.793 45.1785Z" fill="url(#paint14_linear_2033_7558)" fill-opacity="0.8"/>
</g>
<g filter="url(#filter19_f_2033_7558)">
<path d="M33.5564 15.1587C33.7667 16.8347 36.766 19.1502 37.6671 19.4724C38.7655 19.337 37.0685 15.1234 35.9107 13.5941C35.0013 12.393 33.2935 13.0639 33.5564 15.1587Z" fill="white"/>
</g>
<g filter="url(#filter20_f_2033_7558)">
<ellipse cx="0.734933" cy="2.44046" rx="0.734933" ry="2.44046" transform="matrix(-0.844172 -0.53607 -0.602243 0.798314 66.2715 27.3711)" fill="white"/>
</g>
<g filter="url(#filter21_f_2033_7558)">
<path d="M41.4656 46.1097C42.8415 46.6546 46.7669 44.3035 47.5723 43.9155C46.5762 44.8715 47.2304 46.0306 41.7717 47.2524C39.417 47.7794 37.9307 45.337 37.7759 43.939C38.2974 44.5424 40.0896 45.5649 41.4656 46.1097Z" fill="url(#paint15_linear_2033_7558)"/>
</g>
<path d="M44.1388 46.2575C46.8974 45.5183 47.9973 43.7491 48.0207 41.9743C48.0148 41.8863 47.9277 41.8646 47.8564 41.8894C47.7194 41.9368 47.7209 42.0087 47.6906 42.0882C46.1223 46.1958 39.7487 46.0244 38.0284 43.868C37.5778 43.7509 37.6735 44.0622 37.7777 44.2325C38.3168 45.3587 40.4513 47.2455 44.1388 46.2575Z" fill="url(#paint16_linear_2033_7558)" stroke="black" stroke-opacity="0.3" stroke-width="0.0921957"/>
</g>
<mask id="mask1_2033_7558" style="mask-type:alpha" maskUnits="userSpaceOnUse" x="43" y="27" width="7" height="11">
<ellipse cx="3.21503" cy="4.95394" rx="3.21503" ry="4.95394" transform="matrix(-0.965926 0.25882 0.258818 0.965926 48.4277 26.9258)" fill="#551A03"/>
</mask>
<g mask="url(#mask1_2033_7558)">
<ellipse cx="3.21503" cy="4.95394" rx="3.21503" ry="4.95394" transform="matrix(-0.965926 0.25882 0.258818 0.965926 48.4277 26.9258)" fill="black"/>
<g filter="url(#filter22_f_2033_7558)">
<ellipse cx="0.945995" cy="1.58714" rx="0.945995" ry="1.58714" transform="matrix(-0.876352 0.481672 0.47852 0.878076 46.707 28.5703)" fill="white"/>
</g>
<g filter="url(#filter23_f_2033_7558)">
<path d="M48.1036 36.6774C48.8343 36.4816 49.585 35.63 49.3531 34.7645C49.2052 34.2124 48.5238 34.5922 48.4398 35.0092C48.3557 35.4263 47.9904 35.5241 47.309 35.904C46.6276 36.2838 47.1902 36.9221 48.1036 36.6774Z" fill="white" fill-opacity="0.87"/>
</g>
<path d="M43.5732 33.3553C43.924 34.6644 44.5851 35.7539 45.3666 36.458C46.1487 37.1626 47.0426 37.4748 47.8667 37.254C48.6908 37.0332 49.3089 36.3158 49.6339 35.3145C49.9586 34.3141 49.9865 33.04 49.6357 31.7308C49.2849 30.4216 48.6237 29.3322 47.8423 28.6281C47.0602 27.9235 46.1662 27.6113 45.3421 27.8321C44.5181 28.0529 43.9 28.7703 43.575 29.7715C43.2502 30.772 43.2224 32.0461 43.5732 33.3553Z" stroke="black" stroke-opacity="0.6" stroke-width="0.15366"/>
</g>
<mask id="mask2_2033_7558" style="mask-type:alpha" maskUnits="userSpaceOnUse" x="31" y="30" width="8" height="11">
<ellipse cx="3.21503" cy="4.95394" rx="3.21503" ry="4.95394" transform="matrix(-0.965926 0.25882 0.258818 0.965926 36.8633 30.0254)" fill="#551A03"/>
</mask>
<g mask="url(#mask2_2033_7558)">
<ellipse cx="3.21503" cy="4.95394" rx="3.21503" ry="4.95394" transform="matrix(-0.965926 0.25882 0.258818 0.965926 36.8633 30.0254)" fill="black"/>
<g filter="url(#filter24_f_2033_7558)">
<ellipse cx="0.945995" cy="1.58714" rx="0.945995" ry="1.58714" transform="matrix(-0.876352 0.481672 0.47852 0.878076 35.1426 31.6699)" fill="white"/>
</g>
<g filter="url(#filter25_f_2033_7558)">
<path d="M36.5391 39.777C37.2698 39.5812 38.0206 38.7296 37.7887 37.8641C37.6407 37.312 36.9594 37.6918 36.8753 38.1088C36.7913 38.5259 36.4259 38.6238 35.7445 39.0036C35.0631 39.3834 35.6257 40.0217 36.5391 39.777Z" fill="white" fill-opacity="0.87"/>
</g>
<path d="M32.0087 36.4549C32.3595 37.764 33.0207 38.8535 33.8021 39.5576C34.5842 40.2622 35.4782 40.5744 36.3023 40.3536C37.1263 40.1328 37.7444 39.4154 38.0694 38.4141C38.3942 37.4137 38.422 36.1396 38.0712 34.8304C37.7205 33.5212 37.0593 32.4318 36.2778 31.7277C35.4957 31.0231 34.6018 30.7109 33.7777 30.9317C32.9536 31.1525 32.3355 31.8699 32.0105 32.8712C31.6858 33.8716 31.6579 35.1457 32.0087 36.4549Z" stroke="black" stroke-opacity="0.6" stroke-width="0.15366"/>
</g>
<defs>
<filter id="filter0_f_2033_7558" x="1.88621" y="4.3325" width="74.4678" height="77.7959" filterUnits="userSpaceOnUse" color-interpolation-filters="sRGB">
<feFlood flood-opacity="0" result="BackgroundImageFix"/>
<feBlend mode="normal" in="SourceGraphic" in2="BackgroundImageFix" result="shape"/>
<feGaussianBlur stdDeviation="3.49928" result="effect1_foregroundBlur_2033_7558"/>
</filter>
<filter id="filter1_f_2033_7558" x="25.6246" y="47.9195" width="44.7606" height="28.8231" filterUnits="userSpaceOnUse" color-interpolation-filters="sRGB">
<feFlood flood-opacity="0" result="BackgroundImageFix"/>
<feBlend mode="normal" in="SourceGraphic" in2="BackgroundImageFix" result="shape"/>
<feGaussianBlur stdDeviation="0.79903" result="effect1_foregroundBlur_2033_7558"/>
</filter>
<filter id="filter2_f_2033_7558" x="26.648" y="48.2926" width="43.7723" height="28.5086" filterUnits="userSpaceOnUse" color-interpolation-filters="sRGB">
<feFlood flood-opacity="0" result="BackgroundImageFix"/>
<feBlend mode="normal" in="SourceGraphic" in2="BackgroundImageFix" result="shape"/>
<feGaussianBlur stdDeviation="0.79903" result="effect1_foregroundBlur_2033_7558"/>
</filter>
<filter id="filter3_f_2033_7558" x="26.7066" y="48.2916" width="43.7137" height="28.1532" filterUnits="userSpaceOnUse" color-interpolation-filters="sRGB">
<feFlood flood-opacity="0" result="BackgroundImageFix"/>
<feBlend mode="normal" in="SourceGraphic" in2="BackgroundImageFix" result="shape"/>
<feGaussianBlur stdDeviation="0.79903" result="effect1_foregroundBlur_2033_7558"/>
</filter>
<filter id="filter4_f_2033_7558" x="7.3121" y="39.0816" width="25.7684" height="16.2625" filterUnits="userSpaceOnUse" color-interpolation-filters="sRGB">
<feFlood flood-opacity="0" result="BackgroundImageFix"/>
<feBlend mode="normal" in="SourceGraphic" in2="BackgroundImageFix" result="shape"/>
<feGaussianBlur stdDeviation="0.79903" result="effect1_foregroundBlur_2033_7558"/>
</filter>
<filter id="filter5_f_2033_7558" x="7.3121" y="39.0816" width="25.7684" height="16.2625" filterUnits="userSpaceOnUse" color-interpolation-filters="sRGB">
<feFlood flood-opacity="0" result="BackgroundImageFix"/>
<feBlend mode="normal" in="SourceGraphic" in2="BackgroundImageFix" result="shape"/>
<feGaussianBlur stdDeviation="0.79903" result="effect1_foregroundBlur_2033_7558"/>
</filter>
<filter id="filter6_f_2033_7558" x="21.7371" y="42.5467" width="16.7816" height="39.6566" filterUnits="userSpaceOnUse" color-interpolation-filters="sRGB">
<feFlood flood-opacity="0" result="BackgroundImageFix"/>
<feBlend mode="normal" in="SourceGraphic" in2="BackgroundImageFix" result="shape"/>
<feGaussianBlur stdDeviation="1.41367" result="effect1_foregroundBlur_2033_7558"/>
</filter>
<filter id="filter7_f_2033_7558" x="52.1969" y="25.4742" width="17.0946" height="33.0711" filterUnits="userSpaceOnUse" color-interpolation-filters="sRGB">
<feFlood flood-opacity="0" result="BackgroundImageFix"/>
<feBlend mode="normal" in="SourceGraphic" in2="BackgroundImageFix" result="shape"/>
<feGaussianBlur stdDeviation="0.79903" result="effect1_foregroundBlur_2033_7558"/>
</filter>
<filter id="filter8_f_2033_7558" x="34.0761" y="48.9286" width="25.592" height="14.6398" filterUnits="userSpaceOnUse" color-interpolation-filters="sRGB">
<feFlood flood-opacity="0" result="BackgroundImageFix"/>
<feBlend mode="normal" in="SourceGraphic" in2="BackgroundImageFix" result="shape"/>
<feGaussianBlur stdDeviation="0.460979" result="effect1_foregroundBlur_2033_7558"/>
</filter>
<filter id="filter9_f_2033_7558" x="50.2557" y="24.8866" width="18.9203" height="38.1185" filterUnits="userSpaceOnUse" color-interpolation-filters="sRGB">
<feFlood flood-opacity="0" result="BackgroundImageFix"/>
<feBlend mode="normal" in="SourceGraphic" in2="BackgroundImageFix" result="shape"/>
<feGaussianBlur stdDeviation="0.921957" result="effect1_foregroundBlur_2033_7558"/>
</filter>
<filter id="filter10_f_2033_7558" x="8.61108" y="9.66284" width="31.0239" height="33.7271" filterUnits="userSpaceOnUse" color-interpolation-filters="sRGB">
<feFlood flood-opacity="0" result="BackgroundImageFix"/>
<feBlend mode="normal" in="SourceGraphic" in2="BackgroundImageFix" result="shape"/>
<feGaussianBlur stdDeviation="1.38294" result="effect1_foregroundBlur_2033_7558"/>
</filter>
<filter id="filter11_f_2033_7558" x="31.6287" y="9.94026" width="36.139" height="21.8812" filterUnits="userSpaceOnUse" color-interpolation-filters="sRGB">
<feFlood flood-opacity="0" result="BackgroundImageFix"/>
<feBlend mode="normal" in="SourceGraphic" in2="BackgroundImageFix" result="shape"/>
<feGaussianBlur stdDeviation="0.921957" result="effect1_foregroundBlur_2033_7558"/>
</filter>
<filter id="filter12_f_2033_7558" x="25.9804" y="49.9189" width="8.36345" height="18.6281" filterUnits="userSpaceOnUse" color-interpolation-filters="sRGB">
<feFlood flood-opacity="0" result="BackgroundImageFix"/>
<feBlend mode="normal" in="SourceGraphic" in2="BackgroundImageFix" result="shape"/>
<feGaussianBlur stdDeviation="0.460979" result="effect1_foregroundBlur_2033_7558"/>
</filter>
<filter id="filter13_f_2033_7558" x="9.1132" y="40.7226" width="4.61735" height="3.46794" filterUnits="userSpaceOnUse" color-interpolation-filters="sRGB">
<feFlood flood-opacity="0" result="BackgroundImageFix"/>
<feBlend mode="normal" in="SourceGraphic" in2="BackgroundImageFix" result="shape"/>
<feGaussianBlur stdDeviation="0.460979" result="effect1_foregroundBlur_2033_7558"/>
</filter>
<filter id="filter14_f_2033_7558" x="27.8124" y="22.579" width="3.69352" height="8.27165" filterUnits="userSpaceOnUse" color-interpolation-filters="sRGB">
<feFlood flood-opacity="0" result="BackgroundImageFix"/>
<feBlend mode="normal" in="SourceGraphic" in2="BackgroundImageFix" result="shape"/>
<feGaussianBlur stdDeviation="0.460979" result="effect1_foregroundBlur_2033_7558"/>
</filter>
<filter id="filter15_f_2033_7558" x="48.2284" y="57.9705" width="16.4945" height="6.92709" filterUnits="userSpaceOnUse" color-interpolation-filters="sRGB">
<feFlood flood-opacity="0" result="BackgroundImageFix"/>
<feBlend mode="normal" in="SourceGraphic" in2="BackgroundImageFix" result="shape"/>
<feGaussianBlur stdDeviation="0.921957" result="effect1_foregroundBlur_2033_7558"/>
</filter>
<filter id="filter16_f_2033_7558" x="25.1932" y="51.7157" width="7.31283" height="17.1986" filterUnits="userSpaceOnUse" color-interpolation-filters="sRGB">
<feFlood flood-opacity="0" result="BackgroundImageFix"/>
<feBlend mode="normal" in="SourceGraphic" in2="BackgroundImageFix" result="shape"/>
<feGaussianBlur stdDeviation="0.921957" result="effect1_foregroundBlur_2033_7558"/>
</filter>
<filter id="filter17_f_2033_7558" x="51.9738" y="31.1526" width="10.7144" height="15.0572" filterUnits="userSpaceOnUse" color-interpolation-filters="sRGB">
<feFlood flood-opacity="0" result="BackgroundImageFix"/>
<feBlend mode="normal" in="SourceGraphic" in2="BackgroundImageFix" result="shape"/>
<feGaussianBlur stdDeviation="0.614638" result="effect1_foregroundBlur_2033_7558"/>
</filter>
<filter id="filter18_f_2033_7558" x="32.5994" y="13.7176" width="18.639" height="33.3783" filterUnits="userSpaceOnUse" color-interpolation-filters="sRGB">
<feFlood flood-opacity="0" result="BackgroundImageFix"/>
<feBlend mode="normal" in="SourceGraphic" in2="BackgroundImageFix" result="shape"/>
<feGaussianBlur stdDeviation="0.921957" result="effect1_foregroundBlur_2033_7558"/>
</filter>
<filter id="filter19_f_2033_7558" x="31.6854" y="11.1561" width="8.18002" height="10.1605" filterUnits="userSpaceOnUse" color-interpolation-filters="sRGB">
<feFlood flood-opacity="0" result="BackgroundImageFix"/>
<feBlend mode="normal" in="SourceGraphic" in2="BackgroundImageFix" result="shape"/>
<feGaussianBlur stdDeviation="0.921957" result="effect1_foregroundBlur_2033_7558"/>
</filter>
<filter id="filter20_f_2033_7558" x="61.3567" y="25.7082" width="5.64996" height="6.43414" filterUnits="userSpaceOnUse" color-interpolation-filters="sRGB">
<feFlood flood-opacity="0" result="BackgroundImageFix"/>
<feBlend mode="normal" in="SourceGraphic" in2="BackgroundImageFix" result="shape"/>
<feGaussianBlur stdDeviation="0.614638" result="effect1_foregroundBlur_2033_7558"/>
</filter>
<filter id="filter21_f_2033_7558" x="36.2832" y="42.4229" width="12.7812" height="6.39446" filterUnits="userSpaceOnUse" color-interpolation-filters="sRGB">
<feFlood flood-opacity="0" result="BackgroundImageFix"/>
<feBlend mode="normal" in="SourceGraphic" in2="BackgroundImageFix" result="shape"/>
<feGaussianBlur stdDeviation="0.746075" result="effect1_foregroundBlur_2033_7558"/>
</filter>
<filter id="filter22_f_2033_7558" x="44.844" y="28.2834" width="3.58745" height="4.273" filterUnits="userSpaceOnUse" color-interpolation-filters="sRGB">
<feFlood flood-opacity="0" result="BackgroundImageFix"/>
<feBlend mode="normal" in="SourceGraphic" in2="BackgroundImageFix" result="shape"/>
<feGaussianBlur stdDeviation="0.334851" result="effect1_foregroundBlur_2033_7558"/>
</filter>
<filter id="filter23_f_2033_7558" x="45.8731" y="33.3545" width="4.65811" height="4.51162" filterUnits="userSpaceOnUse" color-interpolation-filters="sRGB">
<feFlood flood-opacity="0" result="BackgroundImageFix"/>
<feBlend mode="normal" in="SourceGraphic" in2="BackgroundImageFix" result="shape"/>
<feGaussianBlur stdDeviation="0.567358" result="effect1_foregroundBlur_2033_7558"/>
</filter>
<filter id="filter24_f_2033_7558" x="33.2795" y="31.383" width="3.58745" height="4.273" filterUnits="userSpaceOnUse" color-interpolation-filters="sRGB">
<feFlood flood-opacity="0" result="BackgroundImageFix"/>
<feBlend mode="normal" in="SourceGraphic" in2="BackgroundImageFix" result="shape"/>
<feGaussianBlur stdDeviation="0.334851" result="effect1_foregroundBlur_2033_7558"/>
</filter>
<filter id="filter25_f_2033_7558" x="34.3086" y="36.4542" width="4.65811" height="4.51162" filterUnits="userSpaceOnUse" color-interpolation-filters="sRGB">
<feFlood flood-opacity="0" result="BackgroundImageFix"/>
<feBlend mode="normal" in="SourceGraphic" in2="BackgroundImageFix" result="shape"/>
<feGaussianBlur stdDeviation="0.567358" result="effect1_foregroundBlur_2033_7558"/>
</filter>
<linearGradient id="paint0_linear_2033_7558" x1="27.0066" y1="70.9365" x2="60.6389" y2="21.3289" gradientUnits="userSpaceOnUse">
<stop stop-color="#FFD900"/>
<stop offset="1" stop-color="#FFE102"/>
</linearGradient>
<linearGradient id="paint1_linear_2033_7558" x1="24.1451" y1="43.8654" x2="53.6716" y2="34.8776" gradientUnits="userSpaceOnUse">
<stop stop-color="#FFC400"/>
<stop offset="1" stop-color="#FFE102"/>
</linearGradient>
<linearGradient id="paint2_linear_2033_7558" x1="44.7107" y1="51.0521" x2="55.6141" y2="57.1287" gradientUnits="userSpaceOnUse">
<stop stop-color="#B87409" stop-opacity="0"/>
<stop offset="1" stop-color="#E78F04"/>
</linearGradient>
<linearGradient id="paint3_linear_2033_7558" x1="44.6537" y1="51.0683" x2="25.3806" y2="78.4376" gradientUnits="userSpaceOnUse">
<stop stop-color="#C67D0A" stop-opacity="0"/>
<stop offset="1" stop-color="#E9890C"/>
</linearGradient>
<linearGradient id="paint4_linear_2033_7558" x1="56.4401" y1="68.0107" x2="43.9124" y2="44.3291" gradientUnits="userSpaceOnUse">
<stop stop-color="white" stop-opacity="0"/>
<stop offset="1" stop-color="white"/>
</linearGradient>
<linearGradient id="paint5_linear_2033_7558" x1="15.0984" y1="52.3867" x2="15.8971" y2="38.6367" gradientUnits="userSpaceOnUse">
<stop stop-color="#C67D0A" stop-opacity="0"/>
<stop offset="1" stop-color="#C67D0A"/>
</linearGradient>
<linearGradient id="paint6_linear_2033_7558" x1="22.6578" y1="49.6556" x2="33.9526" y2="56.2338" gradientUnits="userSpaceOnUse">
<stop stop-color="#C67D0A" stop-opacity="0"/>
<stop offset="1" stop-color="#C67D0A"/>
</linearGradient>
<linearGradient id="paint7_linear_2033_7558" x1="30.3395" y1="71.0684" x2="24.7044" y2="47.71" gradientUnits="userSpaceOnUse">
<stop stop-color="#C67D0A" stop-opacity="0"/>
<stop offset="1" stop-color="#C67D0A"/>
</linearGradient>
<linearGradient id="paint8_linear_2033_7558" x1="80.1809" y1="38.3162" x2="47.0293" y2="78.2724" gradientUnits="userSpaceOnUse">
<stop stop-color="#C67D0A" stop-opacity="0"/>
<stop offset="1" stop-color="#E9890C"/>
</linearGradient>
<linearGradient id="paint9_linear_2033_7558" x1="39.1767" y1="48.1009" x2="46.5013" y2="60.2979" gradientUnits="userSpaceOnUse">
<stop stop-color="white"/>
<stop offset="1" stop-color="white" stop-opacity="0"/>
</linearGradient>
<linearGradient id="paint10_linear_2033_7558" x1="40.8174" y1="73.3458" x2="65.8963" y2="22.8216" gradientUnits="userSpaceOnUse">
<stop stop-color="white" stop-opacity="0"/>
<stop offset="0.244793" stop-color="white"/>
<stop offset="0.463542" stop-color="white" stop-opacity="0.69"/>
<stop offset="0.754917" stop-color="white"/>
<stop offset="1" stop-color="white" stop-opacity="0"/>
</linearGradient>
<linearGradient id="paint11_linear_2033_7558" x1="18.0165" y1="23.9648" x2="47.4593" y2="54.6684" gradientUnits="userSpaceOnUse">
<stop stop-color="white"/>
<stop offset="1" stop-color="white" stop-opacity="0"/>
</linearGradient>
<linearGradient id="paint12_linear_2033_7558" x1="22.9572" y1="70.4245" x2="36.5802" y2="54.9433" gradientUnits="userSpaceOnUse">
<stop stop-color="white"/>
<stop offset="1" stop-color="white" stop-opacity="0"/>
</linearGradient>
<linearGradient id="paint13_linear_2033_7558" x1="28.6224" y1="68.7829" x2="28.0797" y2="54.4963" gradientUnits="userSpaceOnUse">
<stop offset="0.207636" stop-color="white"/>
<stop offset="1" stop-color="white" stop-opacity="0"/>
</linearGradient>
<linearGradient id="paint14_linear_2033_7558" x1="23.5248" y1="43.2511" x2="53.5073" y2="42.4952" gradientUnits="userSpaceOnUse">
<stop stop-color="white"/>
<stop offset="1" stop-color="white" stop-opacity="0"/>
</linearGradient>
<linearGradient id="paint15_linear_2033_7558" x1="36.7897" y1="51.2515" x2="42.6894" y2="42.8728" gradientUnits="userSpaceOnUse">
<stop stop-color="#C67D0A" stop-opacity="0"/>
<stop offset="1" stop-color="#C67D0A"/>
</linearGradient>
<linearGradient id="paint16_linear_2033_7558" x1="37.3121" y1="36.5402" x2="47.6614" y2="52.1414" gradientUnits="userSpaceOnUse">
<stop/>
<stop offset="1" stop-color="#030303"/>
</linearGradient>
</defs>
</svg>
