<svg width="134" height="133" viewBox="0 0 134 133" fill="none" xmlns="http://www.w3.org/2000/svg">
<g filter="url(#filter0_f_1863_6670)">
<path d="M60.6355 16.8405C62.3458 13.5845 66.9507 13.4301 68.8753 16.5643L84.0189 41.2257C84.6617 42.2724 85.6856 43.029 86.875 43.336L115.551 50.7381C118.936 51.6119 120.244 55.7231 117.987 58.3924L98.9864 80.8601C98.088 81.9225 97.7014 83.3259 97.9291 84.6985L102.604 112.879C103.227 116.636 99.391 119.558 95.9343 117.959L65.3959 103.833C64.1123 103.239 62.6306 103.249 61.3552 103.86L34.0358 116.953C30.4552 118.669 26.4772 115.488 27.3633 111.618L33.2505 85.9021C33.7993 83.5045 33.2488 80.9871 31.7493 79.0375L15.4128 57.798C13.2958 55.0455 14.7573 51.026 18.1478 50.2761L44.1987 44.5139C45.5622 44.2123 46.7235 43.3251 47.3729 42.0887L60.6355 16.8405Z" fill="white"/>
</g>
<mask id="mask0_1863_6670" style="mask-type:alpha" maskUnits="userSpaceOnUse" x="14" y="14" width="105" height="105">
<path d="M60.403 16.797C62.14 13.5836 66.7049 13.4578 68.6163 16.5705L83.8197 41.3292C84.4625 42.3759 85.4863 43.1325 86.6757 43.4395L115.352 50.8416C118.737 51.7154 120.045 55.8266 117.788 58.4959L98.7832 80.9683C97.8871 82.028 97.5 83.4271 97.7242 84.7967L102.34 112.993C102.954 116.749 99.1177 119.662 95.665 118.062L65.1946 103.937C63.9122 103.343 62.4315 103.351 61.1561 103.961L33.1318 117.346C29.6564 119.006 25.7564 116.051 26.4151 112.256L31.5381 82.7457C31.7595 81.4706 31.4501 80.1604 30.6818 79.119L14.9555 57.803C12.9293 55.0567 14.3801 51.1336 17.7057 50.3664L43.6674 44.3771C44.9944 44.071 46.1257 43.2092 46.7733 42.0112L60.403 16.797Z" fill="#FFD900"/>
</mask>
<g mask="url(#mask0_1863_6670)">
<path d="M60.4362 16.944C62.1466 13.688 66.7515 13.5337 68.6761 16.6678L83.8197 41.3292C84.4625 42.3759 85.4864 43.1325 86.6757 43.4395L115.352 50.8416C118.737 51.7154 120.045 55.8266 117.788 58.4959L98.7872 80.9636C97.8887 82.026 97.5022 83.4294 97.7299 84.8021L102.405 112.982C103.028 116.739 99.1917 119.662 95.7351 118.063L65.1967 103.936C63.913 103.342 62.4314 103.353 61.156 103.964L33.8365 117.057C30.256 118.773 26.278 115.592 27.1641 111.722L33.0512 86.0056C33.6001 83.608 33.0496 81.0906 31.55 79.141L15.2136 57.9015C13.0966 55.1491 14.5581 51.1295 17.9485 50.3796L43.9995 44.6174C45.363 44.3158 46.5243 43.4286 47.1737 42.1923L60.4362 16.944Z" fill="url(#paint0_linear_1863_6670)"/>
<path d="M63.3523 16.1764C65.0626 12.9204 69.6675 12.7661 71.5921 15.9002L86.7357 40.5616C87.3785 41.6084 88.4024 42.3649 89.5918 42.6719L118.268 50.074C121.653 50.9478 122.961 55.059 120.704 57.7284L101.703 80.196C100.805 81.2584 100.418 82.6618 100.646 84.0345L105.321 112.215C105.944 115.972 102.108 118.894 98.6511 117.295L68.1127 103.169C66.8291 102.575 65.3474 102.585 64.072 103.196L36.1509 116.577C32.6811 118.24 28.7796 115.297 29.4263 111.504L34.4616 81.9708C34.6783 80.6999 34.3682 79.3956 33.6028 78.3582L17.9141 57.0931C15.8769 54.3319 17.3557 50.3881 20.7061 49.6471L46.9155 43.8498C48.279 43.5482 49.4403 42.661 50.0897 41.4247L63.3523 16.1764Z" fill="url(#paint1_linear_1863_6670)"/>
<g filter="url(#filter1_f_1863_6670)">
<path d="M61.5967 83.0136C50.2659 82.9388 34.3338 107.374 28.829 116.402C30.8722 118.531 33.588 117.815 34.6904 117.191C42.0849 113.618 57.1873 106.194 59.8405 104.725C62.4329 103.29 64.7707 103.68 65.6187 104.286C73.6089 108.397 95.2325 117.562 96.6212 118.263C98.357 119.139 98.9961 118.062 100.515 117.603C101.729 117.236 102.588 116.069 102.239 115.576C93.8857 103.786 76.9472 83.1149 61.5967 83.0136Z" fill="url(#paint2_linear_1863_6670)"/>
</g>
<g filter="url(#filter2_f_1863_6670)">
<path d="M65.1253 83.0364C76.4562 83.1111 95.4431 107.9 100.828 117C98.7571 119.101 98.339 118.666 97.2449 118.027C89.8983 114.357 69.2285 106.273 66.595 104.769C64.0217 103.3 61.6789 103.659 60.823 104.254C52.7792 108.259 36.1043 116.485 34.7064 117.168C32.9592 118.022 31.7358 118.316 30.2235 117.837C29.0137 117.454 28.5945 116.648 28.9502 116.16C37.4586 104.481 49.7749 82.9351 65.1253 83.0364Z" fill="url(#paint3_linear_1863_6670)"/>
</g>
<g filter="url(#filter3_f_1863_6670)">
<path d="M65.1246 83.0377C76.4554 83.1125 100.626 116.634 100.626 116.634C100.626 116.634 97.1941 118.911 96.1 118.273C88.7533 114.603 69.2277 106.274 66.5942 104.771C64.0209 103.302 61.6782 103.661 60.8222 104.255C52.7784 108.26 36.1035 116.487 34.7057 117.169C32.9584 118.023 31.735 118.317 30.2228 117.838C29.0129 117.455 28.5937 116.65 28.9495 116.161C37.4578 104.482 49.7741 82.9364 65.1246 83.0377Z" fill="url(#paint4_linear_1863_6670)" fill-opacity="0.3"/>
</g>
<g filter="url(#filter4_f_1863_6670)">
<path d="M94.4481 80.4756C97.1779 81.0184 97.591 80.9337 98.2691 80.5008C102.924 74.938 112.461 63.5382 113.366 62.4412C114.497 61.07 122.031 52.9855 116.87 52.8826C111.709 52.7796 85.3136 64.4898 83.8391 71.0741C82.3645 77.6585 91.0359 79.797 94.4481 80.4756Z" fill="url(#paint5_linear_1863_6670)"/>
</g>
<g filter="url(#filter5_f_1863_6670)">
<path d="M94.4481 80.4756C97.1779 81.0184 97.591 80.9337 98.2691 80.5008C102.924 74.938 112.461 63.5382 113.366 62.4412C114.497 61.07 122.031 52.9855 116.87 52.8826C111.709 52.7796 85.3136 64.4898 83.8391 71.0741C82.3645 77.6585 91.0359 79.797 94.4481 80.4756Z" fill="url(#paint6_linear_1863_6670)"/>
</g>
<g filter="url(#filter6_f_1863_6670)">
<path d="M84.3054 69.4388C84.3054 69.4388 78.8634 73.707 78.5063 77.9771C77.6513 88.2003 83.038 86.3019 97.7224 116.518C112.407 146.735 95.9691 84.3786 97.9486 82.236C99.9281 80.0934 84.3054 69.4388 84.3054 69.4388Z" fill="url(#paint7_linear_1863_6670)"/>
</g>
<g filter="url(#filter7_f_1863_6670)">
<path d="M44.3057 73.9313C45.8007 77.8847 36.1165 95.5042 30.2599 103.648C30.0534 103.938 29.9625 104.081 29.9388 104.119C29.9295 104.134 29.9305 104.133 29.9388 104.119C29.9835 104.043 30.2419 103.581 30.2633 103.137C31.5419 95.6224 35.1408 82.806 35.1519 81.1298C35.1657 79.0346 21.7569 64.9006 16.893 59.2344C13.002 54.7015 16.1671 54.4337 18.2361 54.8664C27.8122 58.2297 42.0251 67.9005 44.3057 73.9313Z" fill="url(#paint8_linear_1863_6670)"/>
</g>
<g filter="url(#filter8_f_1863_6670)">
<path d="M62.7058 86.2646C56.5622 86.4861 46.2906 94.1754 41.9176 98.3662C45.681 93.0603 54.6604 82.9329 63.7045 83.323C72.7485 83.7131 82.3573 92.1745 84.4292 100.016C79.4492 95.6396 72.6683 85.9054 62.7058 86.2646Z" fill="url(#paint9_linear_1863_6670)" fill-opacity="0.87"/>
</g>
<g filter="url(#filter9_f_1863_6670)">
<path d="M33.272 110.466L46.2726 94.2358C46.2726 94.2358 35.1139 106.949 32.7955 106.542C29.8187 106.019 39.9166 88.4137 39.9166 88.4137C39.9166 88.4137 51.3014 72.7393 45.2463 70.4403C28.8583 60.6504 20.5561 54.8068 15.9922 54.2207C22.2038 57.1715 36.9926 67.4775 38.2275 72.3688C39.4624 77.2601 29.654 108.351 29.654 108.351C29.0013 110.94 31.9994 111.693 33.272 110.466Z" fill="url(#paint10_linear_1863_6670)" fill-opacity="0.78"/>
</g>
<g filter="url(#filter10_f_1863_6670)">
<path d="M62.5203 28.3908L64.4426 16.8418C64.5614 16.128 65.3349 15.7691 65.8459 16.2814C70.4581 20.9056 73.9021 36.9433 77.105 43.0818C77.9733 44.3908 81.3539 46.9867 83.5167 48.4398C85.5196 49.7855 104.134 50.6631 113.459 52.0561C113.999 52.1369 114.04 52.8614 113.519 53.0261L107.259 55.0036C105.856 55.4469 104.413 55.7169 102.953 55.8972C93.4192 57.0742 74.0869 61.1433 71.4529 51.1743C68.9963 41.8769 67.2448 31.8561 63.9629 30.2375C63.2427 29.8823 62.3885 29.1829 62.5203 28.3908Z" fill="url(#paint11_linear_1863_6670)"/>
</g>
<g filter="url(#filter11_f_1863_6670)">
<path d="M51.2813 49.8534C49.3196 52.4785 29.4244 55.9154 21.0754 54.7305C17.5284 53.4715 13.9749 51.2756 22.9083 53.2582C29.8018 54.7881 47.5838 47.8896 49.7191 47.9037C51.8544 47.9178 59.0409 27.4876 60.9714 20.7228C63.0496 13.4405 64.6631 14.7425 65.5017 17.1094C66.3402 19.4763 55.1569 44.6672 51.2813 49.8534Z" fill="white" fill-opacity="0.76"/>
</g>
<g filter="url(#filter12_f_1863_6670)">
<path d="M82.1723 79.6821C82.8132 79.6863 93.7832 82.4663 94.9927 85.7548C96.8594 90.8298 96.9424 103.263 96.9328 104.716C96.9232 106.17 95.7521 105.755 95.1677 105.366C87.7547 100.934 81.3711 79.6768 82.1723 79.6821Z" fill="url(#paint12_linear_1863_6670)"/>
</g>
<g filter="url(#filter13_f_1863_6670)">
<ellipse cx="2.44689" cy="1.26498" rx="2.44689" ry="1.26498" transform="matrix(0.842409 -0.538838 0.601955 0.79853 111.98 56.6191)" fill="white"/>
</g>
<g filter="url(#filter14_f_1863_6670)">
<ellipse cx="1.13409" cy="5.62086" rx="1.13409" ry="5.62086" transform="matrix(0.92351 -0.383574 0.440038 0.897979 74.2129 33.4746)" fill="white"/>
</g>
<g filter="url(#filter15_f_1863_6670)">
<path d="M38.3246 112.333C38.0775 112.119 38.1437 111.776 38.3205 111.441C38.6324 110.851 39.2431 110.502 39.8503 110.224L58.1923 101.835L40.5061 112.111C39.9768 112.357 38.7994 112.746 38.3246 112.333Z" fill="white"/>
</g>
<g filter="url(#filter16_f_1863_6670)">
<path d="M87.9659 83.7432C87.9796 81.802 91.7933 83.1104 92.6366 83.774C93.0512 83.7768 94.0735 84.2231 94.8466 85.9864C95.6197 87.7497 96.2412 98.2481 96.4553 103.277C96.4385 103.759 96.2946 104.754 95.853 104.871C95.4115 104.989 94.745 104.217 94.467 103.816C93.0021 98.0897 87.9522 85.6844 87.9659 83.7432Z" fill="url(#paint13_linear_1863_6670)"/>
</g>
<g filter="url(#filter17_f_1863_6670)">
<path d="M41.6828 73.8192C41.7091 69.8955 33.541 64.7848 28.8434 63.1513C27.8473 62.4324 26.4556 60.9988 28.8575 61.0146C31.8599 61.0344 44.1375 69.5653 44.7564 71.609C45.3753 73.6527 42.8593 79.6578 42.2789 79.7025C41.6985 79.7472 41.65 78.7237 41.6828 73.8192Z" fill="white"/>
</g>
<g filter="url(#filter18_f_1863_6670)">
<path d="M62.2767 74.8407C57.5675 75.186 50.4913 66.4913 49.8305 65.1853C51.3851 61.6927 61.7199 21.809 64.3575 21.8264C66.9951 21.8438 71.9501 64.6424 73.6784 67.843C72.7826 69.1388 66.9858 74.4953 62.2767 74.8407Z" fill="url(#paint14_linear_1863_6670)" fill-opacity="0.8"/>
</g>
<g filter="url(#filter19_f_1863_6670)">
<path d="M66.2688 20.6027C66.6453 23.4742 62.6715 28.6143 61.3158 29.5389C59.4349 29.7895 60.4265 22.0642 61.6855 19.0258C62.6744 16.6395 65.7982 17.0133 66.2688 20.6027Z" fill="white"/>
</g>
<g filter="url(#filter20_f_1863_6670)">
<ellipse cx="1.26014" cy="4.18452" rx="1.26014" ry="4.18452" transform="matrix(0.681508 -0.731811 0.784264 0.620427 17.2754 55.0273)" fill="white"/>
</g>
<g filter="url(#filter21_f_1863_6670)">
<path d="M66.5412 75.378C64.4942 76.8775 56.9639 74.6759 55.4599 74.3808C57.5261 75.5357 56.9425 77.7421 66.5279 77.4063C70.6628 77.2614 72.0715 72.566 71.7233 70.1794C71.1192 71.4062 68.5883 73.8785 66.5412 75.378Z" fill="url(#paint15_linear_1863_6670)"/>
</g>
<path d="M62.1676 76.7814C57.2707 76.7491 54.6802 74.2899 53.8731 71.3554C53.8448 71.2069 53.98 71.1332 54.1091 71.1434C54.3569 71.1628 54.3854 71.2828 54.4702 71.4015C58.85 77.5376 69.3503 74.4945 71.2712 70.1722C71.968 69.7829 71.944 70.3408 71.8449 70.6684C71.4379 72.7702 68.7132 76.8246 62.1676 76.7814Z" fill="url(#paint16_linear_1863_6670)" stroke="black" stroke-opacity="0.3" stroke-width="0.158083"/>
</g>
<mask id="mask1_1863_6670" style="mask-type:alpha" maskUnits="userSpaceOnUse" x="46" y="46" width="12" height="18">
<ellipse cx="52.144" cy="55.0968" rx="5.51262" ry="8.49421" transform="rotate(0.378069 52.144 55.0968)" fill="#551A03"/>
</mask>
<g mask="url(#mask1_1863_6670)">
<ellipse cx="52.144" cy="55.0968" rx="5.51262" ry="8.49421" transform="rotate(0.378069 52.144 55.0968)" fill="black"/>
<g filter="url(#filter22_f_1863_6670)">
<ellipse cx="1.62204" cy="2.72137" rx="1.62204" ry="2.72137" transform="matrix(0.969562 0.244845 -0.241362 0.970435 50.252 48.5508)" fill="white"/>
</g>
<g filter="url(#filter23_f_1863_6670)">
<path d="M51.4478 62.6068C50.1508 62.5983 48.5366 61.5103 48.5467 59.974C48.5532 58.994 49.8481 59.3292 50.168 59.9847C50.488 60.6402 51.1365 60.6445 52.4314 60.9798C53.7263 61.315 53.0692 62.6175 51.4478 62.6068Z" fill="white" fill-opacity="0.87"/>
</g>
<path d="M57.5247 55.1323C57.5094 57.4562 56.884 59.5499 55.8922 61.0563C54.8996 62.5639 53.5516 63.4688 52.0888 63.4591C50.626 63.4494 49.29 62.5268 48.3174 61.0063C47.3456 59.487 46.7478 57.3852 46.7632 55.0613C46.7785 52.7374 47.4039 50.6437 48.3957 49.1373C49.3883 47.6298 50.7363 46.7249 52.1991 46.7345C53.6619 46.7442 54.9979 47.6668 55.9705 49.1873C56.9423 50.7066 57.5401 52.8084 57.5247 55.1323Z" stroke="black" stroke-opacity="0.6" stroke-width="0.263471"/>
</g>
<mask id="mask2_1863_6670" style="mask-type:alpha" maskUnits="userSpaceOnUse" x="67" y="46" width="12" height="18">
<ellipse cx="72.6732" cy="55.2316" rx="5.51262" ry="8.49421" transform="rotate(0.378069 72.6732 55.2316)" fill="#551A03"/>
</mask>
<g mask="url(#mask2_1863_6670)">
<ellipse cx="72.6732" cy="55.2316" rx="5.51262" ry="8.49421" transform="rotate(0.378069 72.6732 55.2316)" fill="black"/>
<g filter="url(#filter24_f_1863_6670)">
<ellipse cx="1.62204" cy="2.72137" rx="1.62204" ry="2.72137" transform="matrix(0.969562 0.244845 -0.241362 0.970435 70.7812 48.6855)" fill="white"/>
</g>
<g filter="url(#filter25_f_1863_6670)">
<path d="M71.9771 62.7416C70.6801 62.733 69.0659 61.6451 69.076 60.1088C69.0825 59.1287 70.3774 59.464 70.6973 60.1195C71.0173 60.775 71.6658 60.7793 72.9607 61.1145C74.2556 61.4498 73.5985 62.7523 71.9771 62.7416Z" fill="white" fill-opacity="0.87"/>
</g>
<path d="M78.054 55.2671C78.0387 57.591 77.4133 59.6847 76.4215 61.191C75.4289 62.6986 74.0809 63.6035 72.6181 63.5939C71.1553 63.5842 69.8193 62.6616 68.8467 61.141C67.8749 59.6218 67.2771 57.5199 67.2925 55.1961C67.3078 52.8722 67.9332 50.7784 68.925 49.2721C69.9176 47.7645 71.2656 46.8596 72.7284 46.8693C74.1912 46.8789 75.5272 47.8015 76.4998 49.3221C77.4716 50.8414 78.0694 52.9432 78.054 55.2671Z" stroke="black" stroke-opacity="0.6" stroke-width="0.263471"/>
</g>
<defs>
<filter id="filter0_f_1863_6670" x="0.425781" y="0.303711" width="132.686" height="132.103" filterUnits="userSpaceOnUse" color-interpolation-filters="sRGB">
<feFlood flood-opacity="0" result="BackgroundImageFix"/>
<feBlend mode="normal" in="SourceGraphic" in2="BackgroundImageFix" result="shape"/>
<feGaussianBlur stdDeviation="7" result="effect1_foregroundBlur_1863_6670"/>
</filter>
<filter id="filter1_f_1863_6670" x="26.089" y="80.2736" width="78.969" height="41.0622" filterUnits="userSpaceOnUse" color-interpolation-filters="sRGB">
<feFlood flood-opacity="0" result="BackgroundImageFix"/>
<feBlend mode="normal" in="SourceGraphic" in2="BackgroundImageFix" result="shape"/>
<feGaussianBlur stdDeviation="1.37005" result="effect1_foregroundBlur_1863_6670"/>
</filter>
<filter id="filter2_f_1863_6670" x="26.088" y="80.296" width="77.4802" height="40.9978" filterUnits="userSpaceOnUse" color-interpolation-filters="sRGB">
<feFlood flood-opacity="0" result="BackgroundImageFix"/>
<feBlend mode="normal" in="SourceGraphic" in2="BackgroundImageFix" result="shape"/>
<feGaussianBlur stdDeviation="1.37005" result="effect1_foregroundBlur_1863_6670"/>
</filter>
<filter id="filter3_f_1863_6670" x="26.0871" y="80.297" width="77.2785" height="40.8288" filterUnits="userSpaceOnUse" color-interpolation-filters="sRGB">
<feFlood flood-opacity="0" result="BackgroundImageFix"/>
<feBlend mode="normal" in="SourceGraphic" in2="BackgroundImageFix" result="shape"/>
<feGaussianBlur stdDeviation="1.37005" result="effect1_foregroundBlur_1863_6670"/>
</filter>
<filter id="filter4_f_1863_6670" x="80.9318" y="50.1417" width="40.467" height="33.4528" filterUnits="userSpaceOnUse" color-interpolation-filters="sRGB">
<feFlood flood-opacity="0" result="BackgroundImageFix"/>
<feBlend mode="normal" in="SourceGraphic" in2="BackgroundImageFix" result="shape"/>
<feGaussianBlur stdDeviation="1.37005" result="effect1_foregroundBlur_1863_6670"/>
</filter>
<filter id="filter5_f_1863_6670" x="80.9318" y="50.1417" width="40.467" height="33.4528" filterUnits="userSpaceOnUse" color-interpolation-filters="sRGB">
<feFlood flood-opacity="0" result="BackgroundImageFix"/>
<feBlend mode="normal" in="SourceGraphic" in2="BackgroundImageFix" result="shape"/>
<feGaussianBlur stdDeviation="1.37005" result="effect1_foregroundBlur_1863_6670"/>
</filter>
<filter id="filter6_f_1863_6670" x="73.5716" y="64.5906" width="35.1596" height="65.0248" filterUnits="userSpaceOnUse" color-interpolation-filters="sRGB">
<feFlood flood-opacity="0" result="BackgroundImageFix"/>
<feBlend mode="normal" in="SourceGraphic" in2="BackgroundImageFix" result="shape"/>
<feGaussianBlur stdDeviation="2.42393" result="effect1_foregroundBlur_1863_6670"/>
</filter>
<filter id="filter7_f_1863_6670" x="12.3107" y="51.9796" width="34.8899" height="54.8903" filterUnits="userSpaceOnUse" color-interpolation-filters="sRGB">
<feFlood flood-opacity="0" result="BackgroundImageFix"/>
<feBlend mode="normal" in="SourceGraphic" in2="BackgroundImageFix" result="shape"/>
<feGaussianBlur stdDeviation="1.37005" result="effect1_foregroundBlur_1863_6670"/>
</filter>
<filter id="filter8_f_1863_6670" x="40.3367" y="81.7317" width="45.6734" height="19.8648" filterUnits="userSpaceOnUse" color-interpolation-filters="sRGB">
<feFlood flood-opacity="0" result="BackgroundImageFix"/>
<feBlend mode="normal" in="SourceGraphic" in2="BackgroundImageFix" result="shape"/>
<feGaussianBlur stdDeviation="0.790413" result="effect1_foregroundBlur_1863_6670"/>
</filter>
<filter id="filter9_f_1863_6670" x="12.8305" y="51.0591" width="37.3516" height="63.1436" filterUnits="userSpaceOnUse" color-interpolation-filters="sRGB">
<feFlood flood-opacity="0" result="BackgroundImageFix"/>
<feBlend mode="normal" in="SourceGraphic" in2="BackgroundImageFix" result="shape"/>
<feGaussianBlur stdDeviation="1.58083" result="effect1_foregroundBlur_1863_6670"/>
</filter>
<filter id="filter10_f_1863_6670" x="57.7644" y="11.2976" width="60.8663" height="51.1637" filterUnits="userSpaceOnUse" color-interpolation-filters="sRGB">
<feFlood flood-opacity="0" result="BackgroundImageFix"/>
<feBlend mode="normal" in="SourceGraphic" in2="BackgroundImageFix" result="shape"/>
<feGaussianBlur stdDeviation="2.37124" result="effect1_foregroundBlur_1863_6670"/>
</filter>
<filter id="filter11_f_1863_6670" x="14.1284" y="12.0825" width="54.5796" height="46.0508" filterUnits="userSpaceOnUse" color-interpolation-filters="sRGB">
<feFlood flood-opacity="0" result="BackgroundImageFix"/>
<feBlend mode="normal" in="SourceGraphic" in2="BackgroundImageFix" result="shape"/>
<feGaussianBlur stdDeviation="1.58083" result="effect1_foregroundBlur_1863_6670"/>
</filter>
<filter id="filter12_f_1863_6670" x="80.5232" y="78.1008" width="17.9912" height="29.2144" filterUnits="userSpaceOnUse" color-interpolation-filters="sRGB">
<feFlood flood-opacity="0" result="BackgroundImageFix"/>
<feBlend mode="normal" in="SourceGraphic" in2="BackgroundImageFix" result="shape"/>
<feGaussianBlur stdDeviation="0.790413" result="effect1_foregroundBlur_1863_6670"/>
</filter>
<filter id="filter13_f_1863_6670" x="111.024" y="53.0686" width="7.55813" height="6.48392" filterUnits="userSpaceOnUse" color-interpolation-filters="sRGB">
<feFlood flood-opacity="0" result="BackgroundImageFix"/>
<feBlend mode="normal" in="SourceGraphic" in2="BackgroundImageFix" result="shape"/>
<feGaussianBlur stdDeviation="0.790413" result="effect1_foregroundBlur_1863_6670"/>
</filter>
<filter id="filter14_f_1863_6670" x="73.466" y="31.4397" width="8.53519" height="13.2945" filterUnits="userSpaceOnUse" color-interpolation-filters="sRGB">
<feFlood flood-opacity="0" result="BackgroundImageFix"/>
<feBlend mode="normal" in="SourceGraphic" in2="BackgroundImageFix" result="shape"/>
<feGaussianBlur stdDeviation="0.790413" result="effect1_foregroundBlur_1863_6670"/>
</filter>
<filter id="filter15_f_1863_6670" x="35.0009" y="98.6733" width="26.3531" height="17.003" filterUnits="userSpaceOnUse" color-interpolation-filters="sRGB">
<feFlood flood-opacity="0" result="BackgroundImageFix"/>
<feBlend mode="normal" in="SourceGraphic" in2="BackgroundImageFix" result="shape"/>
<feGaussianBlur stdDeviation="1.58083" result="effect1_foregroundBlur_1863_6670"/>
</filter>
<filter id="filter16_f_1863_6670" x="84.8042" y="79.562" width="14.813" height="28.4825" filterUnits="userSpaceOnUse" color-interpolation-filters="sRGB">
<feFlood flood-opacity="0" result="BackgroundImageFix"/>
<feBlend mode="normal" in="SourceGraphic" in2="BackgroundImageFix" result="shape"/>
<feGaussianBlur stdDeviation="1.58083" result="effect1_foregroundBlur_1863_6670"/>
</filter>
<filter id="filter17_f_1863_6670" x="25.4196" y="58.9069" width="21.5417" height="22.905" filterUnits="userSpaceOnUse" color-interpolation-filters="sRGB">
<feFlood flood-opacity="0" result="BackgroundImageFix"/>
<feBlend mode="normal" in="SourceGraphic" in2="BackgroundImageFix" result="shape"/>
<feGaussianBlur stdDeviation="1.05388" result="effect1_foregroundBlur_1863_6670"/>
</filter>
<filter id="filter18_f_1863_6670" x="46.6689" y="18.6645" width="30.171" height="59.3477" filterUnits="userSpaceOnUse" color-interpolation-filters="sRGB">
<feFlood flood-opacity="0" result="BackgroundImageFix"/>
<feBlend mode="normal" in="SourceGraphic" in2="BackgroundImageFix" result="shape"/>
<feGaussianBlur stdDeviation="1.58083" result="effect1_foregroundBlur_1863_6670"/>
</filter>
<filter id="filter19_f_1863_6670" x="57.1093" y="14.352" width="12.3462" height="18.3546" filterUnits="userSpaceOnUse" color-interpolation-filters="sRGB">
<feFlood flood-opacity="0" result="BackgroundImageFix"/>
<feBlend mode="normal" in="SourceGraphic" in2="BackgroundImageFix" result="shape"/>
<feGaussianBlur stdDeviation="1.58083" result="effect1_foregroundBlur_1863_6670"/>
</filter>
<filter id="filter20_f_1863_6670" x="15.9152" y="51.8375" width="11.0017" height="9.72725" filterUnits="userSpaceOnUse" color-interpolation-filters="sRGB">
<feFlood flood-opacity="0" result="BackgroundImageFix"/>
<feBlend mode="normal" in="SourceGraphic" in2="BackgroundImageFix" result="shape"/>
<feGaussianBlur stdDeviation="1.05388" result="effect1_foregroundBlur_1863_6670"/>
</filter>
<filter id="filter21_f_1863_6670" x="52.9015" y="67.6212" width="21.431" height="12.3777" filterUnits="userSpaceOnUse" color-interpolation-filters="sRGB">
<feFlood flood-opacity="0" result="BackgroundImageFix"/>
<feBlend mode="normal" in="SourceGraphic" in2="BackgroundImageFix" result="shape"/>
<feGaussianBlur stdDeviation="1.27925" result="effect1_foregroundBlur_1863_6670"/>
</filter>
<filter id="filter22_f_1863_6670" x="48.3146" y="47.7697" width="5.70626" height="7.63839" filterUnits="userSpaceOnUse" color-interpolation-filters="sRGB">
<feFlood flood-opacity="0" result="BackgroundImageFix"/>
<feBlend mode="normal" in="SourceGraphic" in2="BackgroundImageFix" result="shape"/>
<feGaussianBlur stdDeviation="0.574149" result="effect1_foregroundBlur_1863_6670"/>
</filter>
<filter id="filter23_f_1863_6670" x="46.6012" y="57.4137" width="8.46157" height="7.13833" filterUnits="userSpaceOnUse" color-interpolation-filters="sRGB">
<feFlood flood-opacity="0" result="BackgroundImageFix"/>
<feBlend mode="normal" in="SourceGraphic" in2="BackgroundImageFix" result="shape"/>
<feGaussianBlur stdDeviation="0.972815" result="effect1_foregroundBlur_1863_6670"/>
</filter>
<filter id="filter24_f_1863_6670" x="68.8439" y="47.9044" width="5.70626" height="7.63839" filterUnits="userSpaceOnUse" color-interpolation-filters="sRGB">
<feFlood flood-opacity="0" result="BackgroundImageFix"/>
<feBlend mode="normal" in="SourceGraphic" in2="BackgroundImageFix" result="shape"/>
<feGaussianBlur stdDeviation="0.574149" result="effect1_foregroundBlur_1863_6670"/>
</filter>
<filter id="filter25_f_1863_6670" x="67.1305" y="57.5485" width="8.46157" height="7.13833" filterUnits="userSpaceOnUse" color-interpolation-filters="sRGB">
<feFlood flood-opacity="0" result="BackgroundImageFix"/>
<feBlend mode="normal" in="SourceGraphic" in2="BackgroundImageFix" result="shape"/>
<feGaussianBlur stdDeviation="0.972815" result="effect1_foregroundBlur_1863_6670"/>
</filter>
<linearGradient id="paint0_linear_1863_6670" x1="101.276" y1="110.309" x2="24.004" y2="42.562" gradientUnits="userSpaceOnUse">
<stop stop-color="#FFD900"/>
<stop offset="1" stop-color="#FFE102"/>
</linearGradient>
<linearGradient id="paint1_linear_1863_6670" x1="94.307" y1="64.1563" x2="41.429" y2="62.0249" gradientUnits="userSpaceOnUse">
<stop stop-color="#FFC400"/>
<stop offset="1" stop-color="#FFE102"/>
</linearGradient>
<linearGradient id="paint2_linear_1863_6670" x1="63.2967" y1="84.9835" x2="47.8371" y2="99.7847" gradientUnits="userSpaceOnUse">
<stop stop-color="#B87409" stop-opacity="0"/>
<stop offset="1" stop-color="#E78F04"/>
</linearGradient>
<linearGradient id="paint3_linear_1863_6670" x1="63.3992" y1="84.9837" x2="107.222" y2="122.05" gradientUnits="userSpaceOnUse">
<stop stop-color="#C67D0A" stop-opacity="0"/>
<stop offset="1" stop-color="#E9890C"/>
</linearGradient>
<linearGradient id="paint4_linear_1863_6670" x1="51.1774" y1="118.197" x2="61.7116" y2="73.4838" gradientUnits="userSpaceOnUse">
<stop stop-color="white" stop-opacity="0"/>
<stop offset="1" stop-color="white"/>
</linearGradient>
<linearGradient id="paint5_linear_1863_6670" x1="113.004" y1="74.3775" x2="105.728" y2="51.9106" gradientUnits="userSpaceOnUse">
<stop stop-color="#C67D0A" stop-opacity="0"/>
<stop offset="1" stop-color="#C67D0A"/>
</linearGradient>
<linearGradient id="paint6_linear_1863_6670" x1="99.2805" y1="73.1184" x2="83.3886" y2="88.9212" gradientUnits="userSpaceOnUse">
<stop stop-color="#C67D0A" stop-opacity="0"/>
<stop offset="1" stop-color="#C67D0A"/>
</linearGradient>
<linearGradient id="paint7_linear_1863_6670" x1="95.8039" y1="111.97" x2="95.0425" y2="70.7767" gradientUnits="userSpaceOnUse">
<stop stop-color="#C67D0A" stop-opacity="0"/>
<stop offset="1" stop-color="#C67D0A"/>
</linearGradient>
<linearGradient id="paint8_linear_1863_6670" x1="-1.06366" y1="79.2012" x2="71.2331" y2="131.143" gradientUnits="userSpaceOnUse">
<stop stop-color="#C67D0A" stop-opacity="0"/>
<stop offset="1" stop-color="#E9890C"/>
</linearGradient>
<linearGradient id="paint9_linear_1863_6670" x1="71.2014" y1="77.6921" x2="64.3286" y2="101.099" gradientUnits="userSpaceOnUse">
<stop stop-color="white"/>
<stop offset="1" stop-color="white" stop-opacity="0"/>
</linearGradient>
<linearGradient id="paint10_linear_1863_6670" x1="79.405" y1="120.281" x2="15.9274" y2="47.3109" gradientUnits="userSpaceOnUse">
<stop stop-color="white" stop-opacity="0"/>
<stop offset="0.244793" stop-color="white"/>
<stop offset="0.463542" stop-color="white" stop-opacity="0.69"/>
<stop offset="0.754917" stop-color="white"/>
<stop offset="1" stop-color="white" stop-opacity="0"/>
</linearGradient>
<linearGradient id="paint11_linear_1863_6670" x1="95.8615" y1="28.4827" x2="60.3027" y2="92.1674" gradientUnits="userSpaceOnUse">
<stop stop-color="white"/>
<stop offset="1" stop-color="white" stop-opacity="0"/>
</linearGradient>
<linearGradient id="paint12_linear_1863_6670" x1="107.773" y1="107.704" x2="78.4701" y2="87.9153" gradientUnits="userSpaceOnUse">
<stop stop-color="white"/>
<stop offset="1" stop-color="white" stop-opacity="0"/>
</linearGradient>
<linearGradient id="paint13_linear_1863_6670" x1="97.6657" y1="107.434" x2="92.3823" y2="83.4961" gradientUnits="userSpaceOnUse">
<stop offset="0.207636" stop-color="white"/>
<stop offset="1" stop-color="white" stop-opacity="0"/>
</linearGradient>
<linearGradient id="paint14_linear_1863_6670" x1="95.0696" y1="62.87" x2="44.9981" y2="74.5936" gradientUnits="userSpaceOnUse">
<stop stop-color="white"/>
<stop offset="1" stop-color="white" stop-opacity="0"/>
</linearGradient>
<linearGradient id="paint15_linear_1863_6670" x1="76.5246" y1="81.8849" x2="63.1097" y2="70.5373" gradientUnits="userSpaceOnUse">
<stop stop-color="#C67D0A" stop-opacity="0"/>
<stop offset="1" stop-color="#C67D0A"/>
</linearGradient>
<linearGradient id="paint16_linear_1863_6670" x1="69.2877" y1="57.7045" x2="58.8701" y2="88.0683" gradientUnits="userSpaceOnUse">
<stop/>
<stop offset="1" stop-color="#030303"/>
</linearGradient>
</defs>
</svg>
