<svg width="55" height="32" viewBox="0 0 55 32" fill="none" xmlns="http://www.w3.org/2000/svg">
<path fill-rule="evenodd" clip-rule="evenodd" d="M47.5146 22.7642L50.6258 30.6262C51.502 32.8403 54.7889 32.231 54.8131 29.8499L54.9923 12.287C54.9972 12.1504 54.9996 12.0132 54.9996 11.8754C54.9996 11.8165 54.9992 11.7576 54.9983 11.6989L55 11.5285L54.9946 11.534C54.8048 5.13346 49.2978 0.000335195 42.532 0.000334603C35.6463 0.000332094 30.0644 5.31698 30.0644 11.8754C30.0644 18.4338 35.6463 23.7505 42.532 23.7505C44.3035 23.7505 45.9886 23.3986 47.5146 22.7642Z" fill="#BAFD32"/>
<path fill-rule="evenodd" clip-rule="evenodd" d="M17.9037 22.7638L21.015 30.6262C21.8912 32.8403 25.178 32.231 25.2023 29.8499L25.3814 12.2887C25.3863 12.1514 25.3888 12.0134 25.3888 11.875C25.3888 11.8153 25.3884 11.7558 25.3875 11.6963L25.3892 11.5285L25.3838 11.5339C25.1943 5.13322 19.6871 -9.58659e-05 12.9212 -9.64574e-05C6.03556 -0.000100874 0.453616 5.31655 0.453613 11.875C0.453613 18.4334 6.03555 23.75 12.9212 23.75C14.6926 23.75 16.3777 23.3982 17.9037 22.7638Z" fill="#BAFD32"/>
</svg>
