<svg width="55" height="32" viewBox="0 0 55 32" fill="none" xmlns="http://www.w3.org/2000/svg">
<path fill-rule="evenodd" clip-rule="evenodd" d="M7.48536 9.23581L4.3742 1.37381C3.49801 -0.840343 0.211145 -0.231007 0.186861 2.15008L0.007736 19.713C0.00285073 19.8496 0.000388266 19.9868 0.000388254 20.1246C0.000388248 20.1835 0.000839172 20.2424 0.00173792 20.3011L0 20.4715L0.00544208 20.466C0.195158 26.8665 5.70221 31.9997 12.468 31.9997C19.3537 31.9997 24.9356 26.683 24.9356 20.1246C24.9356 13.5662 19.3537 8.24953 12.468 8.24953C10.6965 8.24953 9.01139 8.60142 7.48536 9.23581Z" fill="#BAFD32"/>
<path fill-rule="evenodd" clip-rule="evenodd" d="M37.0963 9.23615L33.985 1.37381C33.1088 -0.840343 29.822 -0.231007 29.7977 2.15008L29.6186 19.7113C29.6137 19.8486 29.6112 19.9866 29.6112 20.125C29.6112 20.1847 29.6116 20.2442 29.6126 20.3037L29.6108 20.4715L29.6162 20.4661C29.8057 26.8668 35.3129 32.0001 42.0788 32.0001C48.9644 32.0001 54.5464 26.6834 54.5464 20.125C54.5464 13.5666 48.9645 8.24996 42.0788 8.24996C40.3074 8.24996 38.6223 8.60182 37.0963 9.23615Z" fill="#BAFD32"/>
</svg>
