<svg width="182" height="181" viewBox="0 0 182 181" fill="none" xmlns="http://www.w3.org/2000/svg">
<g filter="url(#filter0_f_2169_8432)">
<path d="M74.3872 34.9514C75.7825 30.8298 81.1257 29.7804 83.9764 33.068L106.378 58.904C107.332 60.0038 108.674 60.6916 110.124 60.8233L145.079 63.9983C149.227 64.375 151.545 68.9677 149.385 72.5283L131.402 102.166C130.539 103.587 130.349 105.316 130.881 106.891L141.634 138.707C143.081 142.988 139.151 147.143 134.796 145.937L96.3159 135.28C94.7082 134.835 92.9859 135.125 91.6131 136.073L61.38 156.946C57.6236 159.539 52.5042 156.821 52.5489 152.256L52.8938 117.028C52.9089 115.488 52.2925 114.009 51.1881 112.935L28.8796 91.2467C25.949 88.3975 26.9342 83.4734 30.7355 81.9712L60.3244 70.2781C61.864 69.6697 63.058 68.4146 63.5889 66.8465L74.3872 34.9514Z" fill="url(#paint0_linear_2169_8432)" fill-opacity="0.9"/>
</g>
<mask id="mask0_2169_8432" style="mask-type:alpha" maskUnits="userSpaceOnUse" x="27" y="31" width="124" height="127">
<path d="M74.3209 34.7861C75.7555 30.7097 81.0571 29.7012 83.8882 32.9663L106.378 58.904C107.332 60.0038 108.674 60.6916 110.124 60.8233L145.079 63.9983C149.227 64.375 151.545 68.9677 149.385 72.5283L131.398 102.173C130.538 103.59 130.346 105.314 130.873 106.886L141.56 138.732C142.997 143.012 139.064 147.158 134.714 145.95L96.3137 135.282C94.7073 134.835 92.9858 135.124 91.6126 136.069L61.2595 156.967C57.4961 159.558 52.3761 156.825 52.4347 152.256L52.8864 117.038C52.9062 115.492 52.2895 114.006 51.1809 112.928L28.8185 91.1872C25.9035 88.3533 26.86 83.4587 30.6274 81.9306L59.8898 70.0614C61.3858 69.4546 62.5495 68.235 63.0854 66.7122L74.3209 34.7861Z" fill="#FFD900"/>
</mask>
<g mask="url(#mask0_2169_8432)">
<path d="M74.3872 34.9514C75.7825 30.8298 81.1257 29.7804 83.9764 33.068L106.378 58.904C107.332 60.0038 108.674 60.6916 110.124 60.8233L145.079 63.9983C149.227 64.375 151.545 68.9677 149.385 72.5283L131.402 102.166C130.539 103.587 130.349 105.316 130.881 106.891L141.634 138.707C143.081 142.988 139.151 147.143 134.796 145.937L96.3159 135.28C94.7082 134.835 92.9859 135.125 91.6131 136.073L61.38 156.946C57.6236 159.539 52.5042 156.821 52.5489 152.256L52.8938 117.028C52.9089 115.488 52.2925 114.009 51.1881 112.935L28.8796 91.2467C25.949 88.3975 26.9342 83.4734 30.7355 81.9712L60.3244 70.2781C61.864 69.6697 63.058 68.4146 63.5889 66.8465L74.3872 34.9514Z" fill="url(#paint1_linear_2169_8432)"/>
<path d="M77.659 33.505C79.0544 29.3834 84.3976 28.334 87.2482 31.6216L109.65 57.4576C110.604 58.5574 111.946 59.2452 113.396 59.3768L148.351 62.5519C152.499 62.9286 154.817 67.5213 152.657 71.0818L134.673 100.72C133.811 102.141 133.621 103.87 134.153 105.444L144.906 137.26C146.353 141.541 142.422 145.697 138.068 144.491L99.5877 133.834C97.9801 133.388 96.2577 133.679 94.8849 134.627L64.6518 155.499C60.8954 158.093 55.7761 155.374 55.8207 150.81L56.1657 115.582C56.1807 114.042 55.5643 112.562 54.4599 111.489L32.1515 89.8003C29.2208 86.9511 30.206 82.027 34.0073 80.5248L63.5962 68.8317C65.1359 68.2233 66.3298 66.9682 66.8607 65.4001L77.659 33.505Z" fill="url(#paint2_linear_2169_8432)"/>
<g filter="url(#filter1_f_2169_8432)">
<path d="M88.175 111.622C74.8779 113.682 60.7988 145.132 56.0444 156.68C58.8401 158.769 61.8891 157.422 63.0641 156.487C71.0602 150.929 87.3675 139.429 90.2015 137.217C92.9706 135.056 95.7845 135.067 96.8926 135.612C107.033 138.881 134.107 145.448 135.866 146.001C138.066 146.692 138.613 145.317 140.306 144.495C141.661 143.838 142.449 142.318 141.947 141.81C129.936 129.674 106.189 108.831 88.175 111.622Z" fill="url(#paint3_linear_2169_8432)"/>
</g>
<g filter="url(#filter2_f_2169_8432)">
<path d="M92.316 110.981C105.613 108.921 132.536 134.167 140.561 143.735C138.528 146.573 137.956 146.145 136.553 145.61C127.25 142.731 101.498 137.24 98.1282 135.99C94.8351 134.768 92.1563 135.63 91.2648 136.484C82.5887 142.668 64.5888 155.399 63.0786 156.458C61.1909 157.782 59.8121 158.356 57.9492 158.085C56.4588 157.869 55.8158 157.011 56.141 156.375C63.9176 141.174 74.3017 113.771 92.316 110.981Z" fill="url(#paint4_linear_2169_8432)"/>
</g>
<g filter="url(#filter3_f_2169_8432)">
<path d="M92.3143 110.981C105.611 108.921 140.253 143.346 140.253 143.346C140.253 143.346 136.659 146.646 135.256 146.11C125.953 143.231 101.497 137.24 98.1264 135.99C94.8334 134.768 92.1546 135.63 91.2631 136.484C82.587 142.668 64.5871 155.399 63.0769 156.458C61.1892 157.782 59.8104 158.356 57.9475 158.085C56.4571 157.869 55.8141 157.011 56.1393 156.375C63.9159 141.174 74.3001 113.771 92.3143 110.981Z" fill="url(#paint5_linear_2169_8432)" fill-opacity="0.3"/>
</g>
<g filter="url(#filter4_f_2169_8432)">
<path d="M126.207 102.445C129.51 102.559 129.978 102.383 130.691 101.75C135.102 94.3958 144.137 79.3247 144.991 77.8769C146.059 76.0671 153.37 65.233 147.3 66.0909C141.231 66.9489 112.491 85.5753 112.001 93.5159C111.512 101.456 122.08 102.302 126.207 102.445Z" fill="url(#paint6_linear_2169_8432)"/>
</g>
<g filter="url(#filter5_f_2169_8432)">
<path d="M126.207 102.445C129.51 102.559 129.978 102.383 130.691 101.75C135.102 94.3958 144.137 79.3247 144.991 77.8769C146.059 76.0671 153.37 65.233 147.3 66.0909C141.231 66.9489 112.491 85.5753 112.001 93.5159C111.512 101.456 122.08 102.302 126.207 102.445Z" fill="url(#paint7_linear_2169_8432)"/>
</g>
<g filter="url(#filter6_f_2169_8432)">
<path d="M112.241 91.5236C112.241 91.5236 106.664 97.521 107.049 102.557C107.971 114.614 113.928 111.385 136.828 143.762C159.728 176.138 128.725 106.697 130.642 103.829C132.56 100.961 112.241 91.5236 112.241 91.5236Z" fill="url(#paint8_linear_2169_8432)"/>
</g>
<g filter="url(#filter7_f_2169_8432)">
<path d="M66.1951 104.331C68.6915 108.648 60.6543 130.984 55.321 141.57C54.6662 142.886 54.0515 141.325 53.9544 140.46C54.0394 131.474 54.7823 115.887 54.4799 113.935C54.1019 111.494 38.0621 98.0956 31.2941 92.4242C25.8797 87.8871 29.5398 86.9759 32.0466 87.0874C43.9055 89.1865 62.3868 97.7462 66.1951 104.331Z" fill="url(#paint9_linear_2169_8432)"/>
</g>
<g filter="url(#filter8_f_2169_8432)">
<path d="M90.0856 115.194C82.9252 116.616 72.3307 127.509 67.9929 133.213C71.4063 126.327 80.0272 112.842 90.7028 111.582C101.378 110.323 114.235 118.347 118.139 127.079C111.478 122.93 101.697 112.889 90.0856 115.194Z" fill="url(#paint10_linear_2169_8432)" fill-opacity="0.87"/>
</g>
<g filter="url(#filter9_f_2169_8432)">
<path d="M60.135 148.932L72.3214 127.584C72.3214 127.584 61.6324 144.49 58.8379 144.456C55.2499 144.411 63.7749 122.014 63.7749 122.014C63.7749 122.014 74.1718 101.619 66.6409 100.091C45.5874 91.8045 34.7552 86.578 29.2947 86.7607C37.1317 89.0173 56.4077 98.207 58.7757 103.664C61.1437 109.122 55.4955 147.156 55.4955 147.156C55.2176 150.292 58.874 150.6 60.135 148.932Z" fill="url(#paint11_linear_2169_8432)" fill-opacity="0.78"/>
</g>
<g filter="url(#filter10_f_2169_8432)">
<path d="M78.9786 47.8782L79.0588 34.0935C79.0638 33.2364 79.8997 32.6693 80.5961 33.1689C86.8737 37.6727 93.9299 55.6848 98.8404 62.2213C100.105 63.5799 104.556 65.9598 107.365 67.2409C109.965 68.4265 131.928 65.9245 143.127 65.7762C143.778 65.7676 143.963 66.611 143.381 66.9021L136.419 70.3873C134.867 71.1641 133.237 71.7478 131.57 72.2307C120.621 75.4026 98.7034 83.8144 93.7372 72.7082C89.1072 62.3539 85.1678 51.0241 81.0152 49.7655C80.1033 49.4891 78.9731 48.8311 78.9786 47.8782Z" fill="url(#paint12_linear_2169_8432)"/>
</g>
<g filter="url(#filter11_f_2169_8432)">
<path d="M71.6714 76.5639C69.8658 79.9899 45.3609 86.1861 35.3505 86.3892C30.9555 85.5964 26.3766 83.7145 37.2221 84.3289C45.5912 84.8029 66.6951 74.412 69.2009 74.0238C71.7068 73.6356 74.7309 47.4977 75.7211 39.2608C76.787 30.3936 78.9236 31.6029 80.352 34.1981C81.7804 36.7932 75.2389 69.7951 71.6714 76.5639Z" fill="white" fill-opacity="0.76"/>
</g>
<g filter="url(#filter12_f_2169_8432)">
<path d="M111.667 103.847C112.419 103.731 125.802 104.887 127.839 108.484C130.982 114.036 133.419 128.487 133.681 130.179C133.943 131.872 132.492 131.612 131.734 131.27C122.21 127.517 110.727 103.993 111.667 103.847Z" fill="url(#paint13_linear_2169_8432)"/>
</g>
<g filter="url(#filter13_f_2169_8432)">
<ellipse cx="2.8993" cy="1.49512" rx="2.8993" ry="1.49512" transform="matrix(0.747881 -0.663833 0.724168 0.689623 142.272 71.3643)" fill="white"/>
</g>
<g filter="url(#filter14_f_2169_8432)">
<ellipse cx="1.34522" cy="6.63506" rx="1.34522" ry="6.63506" transform="matrix(0.85186 -0.523769 0.580142 0.814516 93.6428 51.5898)" fill="white"/>
</g>
<g filter="url(#filter15_f_2169_8432)">
<path d="M66.4097 150.147C66.0803 149.944 66.0928 149.534 66.2363 149.112C66.4909 148.363 67.1414 147.842 67.8001 147.404L87.725 134.167L68.9253 149.475C68.3511 149.862 67.044 150.537 66.4097 150.147Z" fill="white"/>
</g>
<g filter="url(#filter16_f_2169_8432)">
<path d="M119.223 107.474C118.873 105.213 123.59 106.013 124.704 106.625C125.19 106.55 126.473 106.875 127.711 108.781C128.949 110.686 131.653 122.784 132.85 128.594C132.921 129.159 132.94 130.343 132.444 130.564C131.949 130.784 131.022 130.012 130.621 129.599C127.826 123.213 119.572 109.736 119.223 107.474Z" fill="url(#paint14_linear_2169_8432)"/>
</g>
<g filter="url(#filter17_f_2169_8432)">
<path d="M63.1001 104.697C62.3926 100.126 51.8556 95.7272 46.0412 94.7165C44.7383 94.0688 42.837 92.6643 45.6557 92.2277C49.1791 91.6819 65.1773 99.2819 66.2873 101.543C67.3974 103.803 65.5779 111.267 64.9059 111.429C64.2339 111.591 63.9845 110.41 63.1001 104.697Z" fill="white"/>
</g>
<g filter="url(#filter18_f_2169_8432)">
<path d="M81.9075 38.1176C82.8892 41.3875 79.1978 48.1211 77.7826 49.4537C75.6248 50.1017 75.3336 40.9251 76.2379 37.1512C76.948 34.1872 80.6804 34.0303 81.9075 38.1176Z" fill="white"/>
</g>
<g filter="url(#filter19_f_2169_8432)">
<ellipse cx="1.4904" cy="4.95516" rx="1.4904" ry="4.95516" transform="matrix(0.55907 -0.829121 0.874984 0.484152 30.9504 87.4541)" fill="white"/>
</g>
</g>
<defs>
<filter id="filter0_f_2169_8432" x="12.1719" y="16.124" width="153.036" height="156.829" filterUnits="userSpaceOnUse" color-interpolation-filters="sRGB">
<feFlood flood-opacity="0" result="BackgroundImageFix"/>
<feBlend mode="normal" in="SourceGraphic" in2="BackgroundImageFix" result="shape"/>
<feGaussianBlur stdDeviation="7.5" result="effect1_foregroundBlur_2169_8432"/>
</filter>
<filter id="filter1_f_2169_8432" x="52.7904" y="108.114" width="92.5627" height="52.9247" filterUnits="userSpaceOnUse" color-interpolation-filters="sRGB">
<feFlood flood-opacity="0" result="BackgroundImageFix"/>
<feBlend mode="normal" in="SourceGraphic" in2="BackgroundImageFix" result="shape"/>
<feGaussianBlur stdDeviation="1.62693" result="effect1_foregroundBlur_2169_8432"/>
</filter>
<filter id="filter2_f_2169_8432" x="52.8046" y="107.607" width="91.01" height="53.7968" filterUnits="userSpaceOnUse" color-interpolation-filters="sRGB">
<feFlood flood-opacity="0" result="BackgroundImageFix"/>
<feBlend mode="normal" in="SourceGraphic" in2="BackgroundImageFix" result="shape"/>
<feGaussianBlur stdDeviation="1.62693" result="effect1_foregroundBlur_2169_8432"/>
</filter>
<filter id="filter3_f_2169_8432" x="52.8029" y="107.638" width="90.7044" height="53.7665" filterUnits="userSpaceOnUse" color-interpolation-filters="sRGB">
<feFlood flood-opacity="0" result="BackgroundImageFix"/>
<feBlend mode="normal" in="SourceGraphic" in2="BackgroundImageFix" result="shape"/>
<feGaussianBlur stdDeviation="1.62693" result="effect1_foregroundBlur_2169_8432"/>
</filter>
<filter id="filter4_f_2169_8432" x="108.731" y="62.7891" width="44.2063" height="42.9423" filterUnits="userSpaceOnUse" color-interpolation-filters="sRGB">
<feFlood flood-opacity="0" result="BackgroundImageFix"/>
<feBlend mode="normal" in="SourceGraphic" in2="BackgroundImageFix" result="shape"/>
<feGaussianBlur stdDeviation="1.62693" result="effect1_foregroundBlur_2169_8432"/>
</filter>
<filter id="filter5_f_2169_8432" x="108.731" y="62.7891" width="44.2063" height="42.9423" filterUnits="userSpaceOnUse" color-interpolation-filters="sRGB">
<feFlood flood-opacity="0" result="BackgroundImageFix"/>
<feBlend mode="normal" in="SourceGraphic" in2="BackgroundImageFix" result="shape"/>
<feGaussianBlur stdDeviation="1.62693" result="effect1_foregroundBlur_2169_8432"/>
</filter>
<filter id="filter6_f_2169_8432" x="101.273" y="85.7666" width="49.7813" height="72.335" filterUnits="userSpaceOnUse" color-interpolation-filters="sRGB">
<feFlood flood-opacity="0" result="BackgroundImageFix"/>
<feBlend mode="normal" in="SourceGraphic" in2="BackgroundImageFix" result="shape"/>
<feGaussianBlur stdDeviation="2.87842" result="effect1_foregroundBlur_2169_8432"/>
</filter>
<filter id="filter7_f_2169_8432" x="25.2377" y="83.8252" width="44.6798" height="61.5058" filterUnits="userSpaceOnUse" color-interpolation-filters="sRGB">
<feFlood flood-opacity="0" result="BackgroundImageFix"/>
<feBlend mode="normal" in="SourceGraphic" in2="BackgroundImageFix" result="shape"/>
<feGaussianBlur stdDeviation="1.62693" result="effect1_foregroundBlur_2169_8432"/>
</filter>
<filter id="filter8_f_2169_8432" x="66.1157" y="109.574" width="53.9007" height="25.5172" filterUnits="userSpaceOnUse" color-interpolation-filters="sRGB">
<feFlood flood-opacity="0" result="BackgroundImageFix"/>
<feBlend mode="normal" in="SourceGraphic" in2="BackgroundImageFix" result="shape"/>
<feGaussianBlur stdDeviation="0.938615" result="effect1_foregroundBlur_2169_8432"/>
</filter>
<filter id="filter9_f_2169_8432" x="25.5402" y="83.0014" width="50.5357" height="70.6847" filterUnits="userSpaceOnUse" color-interpolation-filters="sRGB">
<feFlood flood-opacity="0" result="BackgroundImageFix"/>
<feBlend mode="normal" in="SourceGraphic" in2="BackgroundImageFix" result="shape"/>
<feGaussianBlur stdDeviation="1.87723" result="effect1_foregroundBlur_2169_8432"/>
</filter>
<filter id="filter10_f_2169_8432" x="73.3469" y="27.3498" width="76.0156" height="56.5563" filterUnits="userSpaceOnUse" color-interpolation-filters="sRGB">
<feFlood flood-opacity="0" result="BackgroundImageFix"/>
<feBlend mode="normal" in="SourceGraphic" in2="BackgroundImageFix" result="shape"/>
<feGaussianBlur stdDeviation="2.81584" result="effect1_foregroundBlur_2169_8432"/>
</filter>
<filter id="filter11_f_2169_8432" x="26.7729" y="28.5493" width="57.5343" height="61.5949" filterUnits="userSpaceOnUse" color-interpolation-filters="sRGB">
<feFlood flood-opacity="0" result="BackgroundImageFix"/>
<feBlend mode="normal" in="SourceGraphic" in2="BackgroundImageFix" result="shape"/>
<feGaussianBlur stdDeviation="1.87723" result="effect1_foregroundBlur_2169_8432"/>
</filter>
<filter id="filter12_f_2169_8432" x="109.736" y="101.962" width="25.8541" height="31.4371" filterUnits="userSpaceOnUse" color-interpolation-filters="sRGB">
<feFlood flood-opacity="0" result="BackgroundImageFix"/>
<feBlend mode="normal" in="SourceGraphic" in2="BackgroundImageFix" result="shape"/>
<feGaussianBlur stdDeviation="0.938615" result="effect1_foregroundBlur_2169_8432"/>
</filter>
<filter id="filter13_f_2169_8432" x="141.222" y="66.4099" width="8.60273" height="8.12165" filterUnits="userSpaceOnUse" color-interpolation-filters="sRGB">
<feFlood flood-opacity="0" result="BackgroundImageFix"/>
<feBlend mode="normal" in="SourceGraphic" in2="BackgroundImageFix" result="shape"/>
<feGaussianBlur stdDeviation="0.938615" result="effect1_foregroundBlur_2169_8432"/>
</filter>
<filter id="filter14_f_2169_8432" x="92.7435" y="48.9616" width="11.789" height="14.6558" filterUnits="userSpaceOnUse" color-interpolation-filters="sRGB">
<feFlood flood-opacity="0" result="BackgroundImageFix"/>
<feBlend mode="normal" in="SourceGraphic" in2="BackgroundImageFix" result="shape"/>
<feGaussianBlur stdDeviation="0.938615" result="effect1_foregroundBlur_2169_8432"/>
</filter>
<filter id="filter15_f_2169_8432" x="62.3859" y="130.413" width="29.0935" height="23.6066" filterUnits="userSpaceOnUse" color-interpolation-filters="sRGB">
<feFlood flood-opacity="0" result="BackgroundImageFix"/>
<feBlend mode="normal" in="SourceGraphic" in2="BackgroundImageFix" result="shape"/>
<feGaussianBlur stdDeviation="1.87723" result="effect1_foregroundBlur_2169_8432"/>
</filter>
<filter id="filter16_f_2169_8432" x="115.45" y="102.217" width="21.1923" height="32.1398" filterUnits="userSpaceOnUse" color-interpolation-filters="sRGB">
<feFlood flood-opacity="0" result="BackgroundImageFix"/>
<feBlend mode="normal" in="SourceGraphic" in2="BackgroundImageFix" result="shape"/>
<feGaussianBlur stdDeviation="1.87723" result="effect1_foregroundBlur_2169_8432"/>
</filter>
<filter id="filter17_f_2169_8432" x="41.6923" y="89.6972" width="27.4488" height="24.2491" filterUnits="userSpaceOnUse" color-interpolation-filters="sRGB">
<feFlood flood-opacity="0" result="BackgroundImageFix"/>
<feBlend mode="normal" in="SourceGraphic" in2="BackgroundImageFix" result="shape"/>
<feGaussianBlur stdDeviation="1.25149" result="effect1_foregroundBlur_2169_8432"/>
</filter>
<filter id="filter18_f_2169_8432" x="72.0019" y="31.227" width="13.8239" height="22.0138" filterUnits="userSpaceOnUse" color-interpolation-filters="sRGB">
<feFlood flood-opacity="0" result="BackgroundImageFix"/>
<feBlend mode="normal" in="SourceGraphic" in2="BackgroundImageFix" result="shape"/>
<feGaussianBlur stdDeviation="1.87723" result="effect1_foregroundBlur_2169_8432"/>
</filter>
<filter id="filter19_f_2169_8432" x="29.2005" y="83.415" width="13.8376" height="10.4044" filterUnits="userSpaceOnUse" color-interpolation-filters="sRGB">
<feFlood flood-opacity="0" result="BackgroundImageFix"/>
<feBlend mode="normal" in="SourceGraphic" in2="BackgroundImageFix" result="shape"/>
<feGaussianBlur stdDeviation="1.25149" result="effect1_foregroundBlur_2169_8432"/>
</filter>
<linearGradient id="paint0_linear_2169_8432" x1="139.826" y1="135.864" x2="36.9731" y2="70.9168" gradientUnits="userSpaceOnUse">
<stop offset="1" stop-color="white"/>
</linearGradient>
<linearGradient id="paint1_linear_2169_8432" x1="139.826" y1="135.864" x2="36.9731" y2="70.9168" gradientUnits="userSpaceOnUse">
<stop stop-color="#FFD900"/>
<stop offset="1" stop-color="#FFE102"/>
</linearGradient>
<linearGradient id="paint2_linear_2169_8432" x1="122.97" y1="83.4823" x2="60.5769" y2="90.9891" gradientUnits="userSpaceOnUse">
<stop stop-color="#FFC400"/>
<stop offset="1" stop-color="#FFE102"/>
</linearGradient>
<linearGradient id="paint3_linear_2169_8432" x1="90.5385" y1="113.592" x2="75.3516" y2="133.856" gradientUnits="userSpaceOnUse">
<stop stop-color="#B87409" stop-opacity="0"/>
<stop offset="1" stop-color="#E78F04"/>
</linearGradient>
<linearGradient id="paint4_linear_2169_8432" x1="90.6589" y1="113.574" x2="148.747" y2="148.826" gradientUnits="userSpaceOnUse">
<stop stop-color="#C67D0A" stop-opacity="0"/>
<stop offset="1" stop-color="#E9890C"/>
</linearGradient>
<linearGradient id="paint5_linear_2169_8432" x1="82.5798" y1="154.532" x2="86.3404" y2="100.499" gradientUnits="userSpaceOnUse">
<stop stop-color="white" stop-opacity="0"/>
<stop offset="1" stop-color="white"/>
</linearGradient>
<linearGradient id="paint6_linear_2169_8432" x1="146.813" y1="91.8339" x2="134.166" y2="67.0146" gradientUnits="userSpaceOnUse">
<stop stop-color="#C67D0A" stop-opacity="0"/>
<stop offset="1" stop-color="#C67D0A"/>
</linearGradient>
<linearGradient id="paint7_linear_2169_8432" x1="130.488" y1="92.969" x2="114.992" y2="114.483" gradientUnits="userSpaceOnUse">
<stop stop-color="#C67D0A" stop-opacity="0"/>
<stop offset="1" stop-color="#C67D0A"/>
</linearGradient>
<linearGradient id="paint8_linear_2169_8432" x1="133.723" y1="138.832" x2="125.097" y2="91.0429" gradientUnits="userSpaceOnUse">
<stop stop-color="#C67D0A" stop-opacity="0"/>
<stop offset="1" stop-color="#C67D0A"/>
</linearGradient>
<linearGradient id="paint9_linear_2169_8432" x1="14.0007" y1="119.059" x2="108.193" y2="166.462" gradientUnits="userSpaceOnUse">
<stop stop-color="#C67D0A" stop-opacity="0"/>
<stop offset="1" stop-color="#E9890C"/>
</linearGradient>
<linearGradient id="paint10_linear_2169_8432" x1="98.4319" y1="103.61" x2="94.892" y2="132.161" gradientUnits="userSpaceOnUse">
<stop stop-color="white"/>
<stop offset="1" stop-color="white" stop-opacity="0"/>
</linearGradient>
<linearGradient id="paint11_linear_2169_8432" x1="116.063" y1="151.611" x2="28.4629" y2="78.0845" gradientUnits="userSpaceOnUse">
<stop stop-color="white" stop-opacity="0"/>
<stop offset="0.244793" stop-color="white"/>
<stop offset="0.463542" stop-color="white" stop-opacity="0.69"/>
<stop offset="0.754917" stop-color="white"/>
<stop offset="1" stop-color="white" stop-opacity="0"/>
</linearGradient>
<linearGradient id="paint12_linear_2169_8432" x1="118.081" y1="41.6808" x2="88.8898" y2="122.702" gradientUnits="userSpaceOnUse">
<stop stop-color="white"/>
<stop offset="1" stop-color="white" stop-opacity="0"/>
</linearGradient>
<linearGradient id="paint13_linear_2169_8432" x1="146.951" y1="131.602" x2="108.998" y2="113.867" gradientUnits="userSpaceOnUse">
<stop stop-color="white"/>
<stop offset="1" stop-color="white" stop-opacity="0"/>
</linearGradient>
<linearGradient id="paint14_linear_2169_8432" x1="135.051" y1="133.202" x2="124.44" y2="106.316" gradientUnits="userSpaceOnUse">
<stop offset="0.207636" stop-color="white"/>
<stop offset="1" stop-color="white" stop-opacity="0"/>
</linearGradient>
</defs>
</svg>
