<svg width="25" height="18" viewBox="0 0 25 18" fill="none" xmlns="http://www.w3.org/2000/svg">
<g clip-path="url(#clip0_1612_5215)">
<path d="M10.4035 1.90922C11.2098 1.06913 12.3323 0.54808 13.5737 0.54808C15.224 0.54808 16.6638 1.4683 17.4306 2.83439C18.0969 2.53669 18.8344 2.37108 19.6104 2.37108C22.5869 2.37108 25 4.80521 25 7.80769C25 10.8105 22.5869 13.2447 19.6104 13.2447C19.2539 13.2449 18.8983 13.2094 18.5488 13.1389C17.8736 14.3433 16.5869 15.157 15.1101 15.157C14.4918 15.157 13.9071 15.0142 13.3864 14.7603C12.7019 16.3704 11.1072 17.4993 9.24857 17.4993C7.31304 17.4993 5.66346 16.2746 5.03028 14.557C4.75358 14.6157 4.46689 14.6464 4.17272 14.6464C1.86824 14.6464 0 12.7589 0 10.4302C0 8.86968 0.839389 7.50711 2.08654 6.77814C1.82978 6.18734 1.68696 5.53527 1.68696 4.84971C1.68696 2.17165 3.86111 0.000732422 6.54274 0.000732422C8.11717 0.000732422 9.51639 0.749306 10.4035 1.90922Z" fill="#00A1E0"/>
<path d="M3.62088 9.07504C3.60522 9.11601 3.62659 9.12456 3.63157 9.13167C3.67856 9.16586 3.72631 9.19046 3.77439 9.21786C4.02937 9.35317 4.27013 9.39268 4.52191 9.39268C5.03472 9.39268 5.35309 9.11991 5.35309 8.6808V8.67226C5.35309 8.26626 4.99378 8.11883 4.65652 8.01235L4.61272 7.99811C4.35844 7.91548 4.13907 7.84428 4.13907 7.67689V7.66801C4.13907 7.52484 4.26728 7.41941 4.466 7.41941C4.6868 7.41941 4.94891 7.49278 5.1177 7.58608C5.1177 7.58608 5.1672 7.61813 5.18537 7.57006C5.19533 7.54441 5.28082 7.31435 5.28973 7.28943C5.29933 7.26235 5.28224 7.24241 5.2648 7.23172C5.07213 7.11455 4.80574 7.03442 4.53012 7.03442L4.47884 7.03477C4.00947 7.03477 3.68184 7.31826 3.68184 7.72459V7.73315C3.68184 8.16155 4.0433 8.30044 4.38199 8.39731L4.43647 8.41405C4.68327 8.4899 4.89588 8.55507 4.89588 8.72887V8.73743C4.89588 8.89626 4.75772 9.01448 4.53477 9.01448C4.44823 9.01448 4.17223 9.0127 3.87416 8.82429C3.83817 8.80327 3.81718 8.78798 3.7894 8.77124C3.77481 8.76198 3.73812 8.74594 3.72211 8.79438L3.62088 9.07504ZM11.1283 9.07504C11.1127 9.11601 11.134 9.12456 11.139 9.13167C11.186 9.16586 11.2338 9.19046 11.2818 9.21786C11.5368 9.35317 11.7776 9.39268 12.0293 9.39268C12.5422 9.39268 12.8605 9.11991 12.8605 8.6808V8.67226C12.8605 8.26626 12.5012 8.11883 12.1639 8.01235L12.1202 7.99811C11.8659 7.91548 11.6465 7.84428 11.6465 7.67689V7.66801C11.6465 7.52484 11.7747 7.41941 11.9734 7.41941C12.1942 7.41941 12.4563 7.49278 12.6251 7.58608C12.6251 7.58608 12.6746 7.61813 12.6928 7.57006C12.7027 7.54441 12.7882 7.31435 12.7971 7.28943C12.8068 7.26235 12.7897 7.24241 12.7722 7.23172C12.5795 7.11455 12.3131 7.03442 12.0375 7.03442L11.9862 7.03477C11.5169 7.03477 11.1892 7.31826 11.1892 7.72459V7.73315C11.1892 8.16155 11.5507 8.30044 11.8894 8.39731L11.9439 8.41405C12.1907 8.4899 12.4036 8.55507 12.4036 8.72887V8.73743C12.4036 8.89626 12.2651 9.01448 12.0422 9.01448C11.9556 9.01448 11.6796 9.0127 11.3816 8.82429C11.3456 8.80327 11.3242 8.78868 11.2972 8.77124C11.2879 8.76518 11.2445 8.74844 11.2295 8.79438L11.1283 9.07504ZM16.2535 8.21493C16.2535 8.46315 16.2072 8.65865 16.116 8.79684C16.0259 8.9336 15.8895 9.00019 15.6994 9.00019C15.5089 9.00019 15.3732 8.93395 15.2845 8.79684C15.1947 8.65902 15.1492 8.46315 15.1492 8.21493C15.1492 7.96708 15.1947 7.77191 15.2845 7.63515C15.3732 7.49984 15.5089 7.43395 15.6994 7.43395C15.8896 7.43395 16.0259 7.49984 16.1164 7.63515C16.2072 7.77189 16.2535 7.96706 16.2535 8.21493ZM16.6816 7.75482C16.6395 7.6127 16.574 7.48735 16.4868 7.38302C16.3995 7.27832 16.2891 7.19428 16.158 7.13302C16.0273 7.07214 15.8728 7.04116 15.6994 7.04116C15.5256 7.04116 15.371 7.07214 15.2403 7.13302C15.1093 7.19428 14.9989 7.27834 14.9113 7.38302C14.8244 7.48773 14.7588 7.61308 14.7165 7.75482C14.6748 7.89619 14.6538 8.05074 14.6538 8.21493C14.6538 8.37912 14.6748 8.53402 14.7165 8.67504C14.7588 8.81678 14.824 8.94216 14.9116 9.04684C14.9989 9.15154 15.1096 9.23522 15.2404 9.29468C15.3714 9.35417 15.5256 9.38442 15.6994 9.38442C15.8728 9.38442 16.027 9.35417 16.1581 9.29468C16.2888 9.23522 16.3995 9.15152 16.4868 9.04684C16.574 8.94248 16.6396 8.81713 16.6816 8.67504C16.7236 8.53367 16.7446 8.37874 16.7446 8.21493C16.7446 8.05112 16.7236 7.89619 16.6816 7.75482ZM20.1968 8.9339C20.1825 8.89223 20.1423 8.9079 20.1423 8.9079C20.08 8.93177 20.0137 8.95384 19.9432 8.96488C19.8716 8.97589 19.7929 8.98162 19.7085 8.98162C19.5013 8.98162 19.3367 8.92001 19.2189 8.79821C19.1006 8.67642 19.0344 8.47949 19.0351 8.2131C19.0358 7.97059 19.0942 7.78823 19.1993 7.64936C19.3036 7.5112 19.4624 7.44031 19.6743 7.44031C19.851 7.44031 19.9856 7.4606 20.1266 7.50512C20.1266 7.50512 20.1604 7.51971 20.1764 7.47557C20.2138 7.37156 20.2416 7.29714 20.2815 7.18282C20.2929 7.15042 20.2651 7.13653 20.2551 7.1326C20.1996 7.11088 20.0685 7.07564 19.9695 7.06068C19.8769 7.04644 19.7687 7.03895 19.6483 7.03895C19.4684 7.03895 19.3082 7.06958 19.1711 7.13085C19.0343 7.19173 18.9183 7.27577 18.8264 7.3805C18.7345 7.4852 18.6647 7.61053 18.6181 7.75227C18.5718 7.89363 18.5483 8.04891 18.5483 8.2131C18.5483 8.56816 18.6441 8.85517 18.8332 9.06531C19.0226 9.27614 19.3072 9.38332 19.6783 9.38332C19.8976 9.38332 20.1227 9.33883 20.2844 9.27506C20.2844 9.27506 20.3154 9.2601 20.3018 9.22416L20.1968 8.9339ZM20.9457 7.97714C20.966 7.83933 21.0041 7.72464 21.0629 7.63527C21.1516 7.49959 21.2869 7.42516 21.4771 7.42516C21.6673 7.42516 21.793 7.49994 21.8831 7.63527C21.9429 7.72464 21.9689 7.84433 21.9792 7.97714H20.9457ZM22.387 7.67406C22.3507 7.53695 22.2605 7.39841 22.2014 7.33503C22.1081 7.2346 22.017 7.16445 21.9265 7.12526C21.8083 7.07469 21.6665 7.04123 21.5113 7.04123C21.3304 7.04123 21.1662 7.07151 21.033 7.13417C20.8995 7.19686 20.7873 7.28235 20.6993 7.38883C20.6113 7.49493 20.5451 7.62136 20.5031 7.76488C20.4607 7.9077 20.4393 8.06333 20.4393 8.22747C20.4393 8.39451 20.4614 8.55014 20.5052 8.69008C20.5494 8.83112 20.6199 8.9554 20.7153 9.0583C20.8104 9.16195 20.9329 9.24316 21.0796 9.29974C21.2253 9.35602 21.4023 9.38522 21.6056 9.38485C22.0241 9.38342 22.2445 9.29013 22.3353 9.2399C22.3514 9.23102 22.3667 9.21536 22.3474 9.17049L22.2527 8.90515C22.2385 8.86563 22.1982 8.88022 22.1982 8.88022C22.0946 8.91868 21.9472 8.98778 21.6035 8.98708C21.3788 8.98673 21.2121 8.92049 21.1077 8.81683C21.0006 8.71073 20.9482 8.55472 20.9389 8.33465L22.388 8.33608C22.388 8.33608 22.4261 8.33537 22.4301 8.29831C22.4315 8.2827 22.4799 8.00064 22.387 7.67406ZM9.34075 7.97714C9.3614 7.83933 9.39916 7.72464 9.45792 7.63527C9.54658 7.49959 9.68192 7.42516 9.87208 7.42516C10.0622 7.42516 10.188 7.49994 10.2784 7.63527C10.3379 7.72464 10.3639 7.84433 10.3742 7.97714H9.34075ZM10.7816 7.67406C10.7453 7.53695 10.6556 7.39841 10.5965 7.33503C10.5031 7.2346 10.412 7.16445 10.3215 7.12526C10.2033 7.07469 10.0616 7.04123 9.90629 7.04123C9.72574 7.04123 9.5612 7.07151 9.42801 7.13417C9.29448 7.19686 9.18229 7.28235 9.09433 7.38883C9.00637 7.49493 8.94013 7.62136 8.89811 7.76488C8.85609 7.9077 8.83437 8.06333 8.83437 8.22747C8.83437 8.39451 8.85644 8.55014 8.90026 8.69008C8.94443 8.83112 9.01495 8.9554 9.11037 9.0583C9.20547 9.16195 9.32796 9.24316 9.47469 9.29974C9.62036 9.35602 9.79733 9.38522 10.0007 9.38485C10.4191 9.38342 10.6396 9.29013 10.7304 9.2399C10.7464 9.23102 10.7617 9.21536 10.7425 9.17049L10.6481 8.90515C10.6335 8.86563 10.5933 8.88022 10.5933 8.88022C10.4897 8.91868 10.3426 8.98778 9.99821 8.98708C9.77386 8.98673 9.60719 8.92049 9.50284 8.81683C9.39563 8.71073 9.3433 8.55472 9.33402 8.33465L10.7831 8.33608C10.7831 8.33608 10.8212 8.33537 10.8251 8.29831C10.8265 8.2827 10.8749 8.00064 10.7816 7.67406ZM6.20859 8.92597C6.15196 8.88072 6.14413 8.86933 6.12491 8.84013C6.09641 8.79561 6.08182 8.73222 6.08182 8.65174C6.08182 8.52424 6.12383 8.43272 6.2111 8.37111C6.21005 8.37149 6.33575 8.2625 6.63132 8.26641C6.83892 8.26926 7.02446 8.29989 7.02446 8.29989V8.95872H7.02481C7.02481 8.95872 6.8407 8.99824 6.63344 9.0107C6.33857 9.02852 6.20752 8.92562 6.20859 8.92597ZM6.78515 7.9078C6.72639 7.90352 6.65016 7.90102 6.55899 7.90102C6.43472 7.90102 6.3147 7.91668 6.20216 7.94696C6.08892 7.97722 5.98707 8.02461 5.89946 8.08725C5.81198 8.14969 5.74008 8.23147 5.68935 8.32622C5.63807 8.42166 5.61207 8.5342 5.61207 8.66028C5.61207 8.78848 5.63414 8.89994 5.67831 8.99113C5.72248 9.08265 5.78622 9.15885 5.8674 9.21763C5.94788 9.27639 6.04726 9.31946 6.16262 9.34546C6.27624 9.37146 6.40514 9.38462 6.54618 9.38462C6.69468 9.38462 6.84283 9.37254 6.98635 9.34794C7.12844 9.32371 7.30294 9.28845 7.35136 9.27744C7.38532 9.26926 7.41916 9.26059 7.45286 9.25144C7.48885 9.24256 7.486 9.20407 7.486 9.20407L7.48527 7.87894C7.48527 7.58833 7.40764 7.37286 7.25487 7.23933C7.10279 7.10615 6.87879 7.0388 6.58927 7.0388C6.48064 7.0388 6.30579 7.05379 6.20109 7.07479C6.20109 7.07479 5.8845 7.13605 5.75414 7.2379C5.75414 7.2379 5.72566 7.25572 5.74133 7.29561L5.8439 7.57126C5.85672 7.60687 5.89128 7.59476 5.89128 7.59476C5.89128 7.59476 5.90231 7.59048 5.91515 7.583C6.194 7.4313 6.54656 7.43593 6.54656 7.43593C6.70326 7.43593 6.82363 7.46726 6.90482 7.52957C6.98387 7.5901 7.02411 7.68162 7.02411 7.87464V7.9359C6.89946 7.91811 6.78515 7.9078 6.78515 7.9078ZM18.4726 7.16115C18.4836 7.12837 18.4604 7.1127 18.4508 7.10915C18.4263 7.09954 18.303 7.07354 18.2079 7.06748C18.026 7.05645 17.9249 7.08708 17.8344 7.12767C17.7446 7.16826 17.6449 7.23377 17.5893 7.30822V7.13195C17.5893 7.10737 17.5719 7.08778 17.5477 7.08778H17.1762C17.152 7.08778 17.1346 7.10735 17.1346 7.13195V9.29326C17.1346 9.31748 17.1545 9.33743 17.1787 9.33743H17.5594C17.5711 9.33736 17.5823 9.33267 17.5905 9.32439C17.5987 9.31612 17.6033 9.30492 17.6032 9.29326V8.2135C17.6032 8.06856 17.6193 7.92399 17.6513 7.83317C17.6827 7.74341 17.7254 7.67149 17.7781 7.61983C17.8312 7.56856 17.8914 7.5326 17.9572 7.5123C18.0245 7.49163 18.099 7.48487 18.1517 7.48487C18.2275 7.48487 18.3109 7.50444 18.3109 7.50444C18.3386 7.50765 18.3543 7.49056 18.3635 7.46528C18.3885 7.39904 18.459 7.20067 18.4726 7.16115Z" fill="white"/>
<path d="M14.8997 6.15926C14.8534 6.14502 14.8114 6.13538 14.7565 6.12507C14.701 6.11511 14.6347 6.11011 14.5596 6.11011C14.2975 6.11011 14.0909 6.18418 13.946 6.33018C13.8018 6.4755 13.7038 6.69664 13.6547 6.98761L13.6368 7.08553H13.3078C13.3078 7.08553 13.2679 7.08411 13.2594 7.12757L13.2056 7.4292C13.2017 7.4577 13.2142 7.47585 13.2526 7.47585H13.5728L13.248 9.28924C13.2227 9.43526 13.1935 9.55528 13.1611 9.64642C13.1294 9.73618 13.0984 9.80348 13.0599 9.85262C13.0229 9.89965 12.988 9.93453 12.9274 9.95483C12.8776 9.97157 12.8199 9.9794 12.7569 9.9794C12.7219 9.9794 12.6753 9.97367 12.6408 9.96656C12.6066 9.95978 12.5884 9.95232 12.5624 9.94126C12.5624 9.94126 12.525 9.92705 12.5101 9.96444C12.4983 9.99542 12.4128 10.2301 12.4025 10.259C12.3925 10.2878 12.4068 10.3102 12.4249 10.317C12.4677 10.332 12.4993 10.3419 12.5574 10.3558C12.6379 10.3747 12.7059 10.3757 12.7696 10.3757C12.9028 10.3757 13.0246 10.3569 13.1254 10.3206C13.2266 10.2839 13.3149 10.2201 13.3932 10.134C13.4776 10.0406 13.5307 9.94306 13.5813 9.80953C13.6315 9.67775 13.6746 9.51394 13.7088 9.32307L14.0353 7.47585H14.5125C14.5125 7.47585 14.5528 7.47727 14.561 7.43348L14.6151 7.1322C14.6187 7.10338 14.6066 7.08556 14.5677 7.08556H14.1044C14.1069 7.07525 14.1279 6.91211 14.181 6.75866C14.2038 6.69349 14.2465 6.64041 14.2825 6.60408C14.3181 6.56847 14.3591 6.54319 14.404 6.52858C14.4499 6.51361 14.5023 6.5065 14.5596 6.5065C14.603 6.5065 14.6461 6.51148 14.6785 6.51824C14.7234 6.52787 14.7408 6.53285 14.7526 6.53643C14.8 6.55067 14.8064 6.53678 14.8156 6.51401L14.9264 6.20988C14.9378 6.17705 14.9097 6.16316 14.8997 6.15926ZM8.42623 9.29317C8.42623 9.31739 8.40878 9.33698 8.38456 9.33698H8.0003C7.97608 9.33698 7.95898 9.31739 7.95898 9.29317V6.20057C7.95898 6.17637 7.97608 6.15678 8.0003 6.15678H8.38456C8.40878 6.15678 8.42623 6.17637 8.42623 6.20057V9.29317Z" fill="white"/>
</g>
<defs>
<clipPath id="clip0_1612_5215">
<rect width="25" height="17.5" fill="white"/>
</clipPath>
</defs>
</svg>
