<svg width="47" height="46" viewBox="0 0 47 46" fill="none" xmlns="http://www.w3.org/2000/svg">
<path fill-rule="evenodd" clip-rule="evenodd" d="M19.995 11.3794C21.451 9.86244 23.4784 8.92117 25.7205 8.92117C28.7008 8.92117 31.3014 10.5831 32.6857 13.0506C33.9244 12.4971 35.2662 12.2118 36.6229 12.2135C41.9986 12.2135 46.3566 16.6094 46.3566 22.0325C46.3566 27.4555 41.9986 31.8516 36.6229 31.8516C35.9665 31.8516 35.3255 31.7856 34.7053 31.6605C33.4862 33.8352 31.162 35.3048 28.4951 35.3048C27.4164 35.3063 26.3516 35.0612 25.3821 34.5883C24.1461 37.4963 21.2655 39.5351 17.9093 39.5351C14.4134 39.5351 11.434 37.3234 10.2911 34.2215C9.78175 34.329 9.26256 34.3831 8.74198 34.3828C4.57985 34.3828 1.20605 30.9737 1.20605 26.7685C1.20605 23.95 2.72167 21.4893 4.97435 20.173C4.49708 19.074 4.25147 17.8884 4.25288 16.6902C4.25288 11.8536 8.17911 7.93262 13.0222 7.93262C15.8657 7.93262 18.3927 9.28431 19.995 11.3794ZM7.78523 25.237C7.75686 25.311 7.79535 25.3265 7.80447 25.3396C7.88924 25.401 7.97534 25.4454 8.06227 25.4953C8.52263 25.739 8.95777 25.8105 9.41232 25.8105C10.3385 25.8105 10.9138 25.3182 10.9138 24.5252L10.9138 24.5096C10.9138 23.7764 10.2644 23.5099 9.65569 23.3177L9.57623 23.292C9.1172 23.143 8.72104 23.0141 8.72104 22.7117L8.72104 22.6962C8.72104 22.4373 8.95263 22.247 9.31146 22.247C9.71043 22.247 10.1832 22.3796 10.4881 22.5479C10.4881 22.5479 10.5781 22.606 10.6107 22.5192C10.6285 22.4723 10.7826 22.0572 10.799 22.0123C10.8166 21.9637 10.7858 21.927 10.7541 21.9081C10.4059 21.6959 9.92494 21.5516 9.42709 21.5516L9.33468 21.5519C8.48696 21.5519 7.89505 22.0645 7.89505 22.7981L7.89505 22.8139C7.89505 23.5869 8.54801 23.8382 9.15966 24.0129L9.25787 24.0435C9.7033 24.1802 10.088 24.2983 10.088 24.6116L10.088 24.6272C10.088 24.9142 9.83801 25.1274 9.43538 25.1274C9.27927 25.1274 8.78093 25.1247 8.24243 24.7842C8.17724 24.7462 8.14008 24.7188 8.08981 24.6881C8.06327 24.672 7.99691 24.643 7.96804 24.7299L7.78523 25.237ZM21.3438 25.237C21.3154 25.311 21.3539 25.3265 21.3634 25.3396C21.4478 25.401 21.5341 25.4454 21.6208 25.4953C22.0814 25.739 22.5165 25.8105 22.9709 25.8105C23.8971 25.8105 24.4726 25.3182 24.4726 24.5252L24.4726 24.5096C24.4726 23.7764 23.8233 23.5099 23.2144 23.3177L23.135 23.292C22.6759 23.143 22.2796 23.0141 22.2796 22.7117L22.2796 22.6962C22.2796 22.4373 22.5114 22.247 22.8704 22.247C23.2692 22.247 23.7418 22.3796 24.0467 22.5479C24.0467 22.5479 24.1366 22.606 24.1695 22.5192C24.1871 22.4723 24.3414 22.0572 24.3576 22.0123C24.3754 21.9637 24.3443 21.927 24.3128 21.9081C23.9644 21.6959 23.4837 21.5516 22.9858 21.5516L22.8933 21.5519C22.0457 21.5519 21.4538 22.0645 21.4538 22.7981L21.4538 22.8139C21.4538 23.5869 22.1066 23.8382 22.7184 24.0129L22.8164 24.0435C23.262 24.1802 23.6467 24.2983 23.6467 24.6116L23.6467 24.6272C23.6467 24.9142 23.3966 25.1274 22.9943 25.1274C22.8378 25.1274 22.3395 25.1247 21.8012 24.7842C21.736 24.7462 21.6978 24.72 21.6484 24.6881C21.6316 24.6775 21.5535 24.647 21.5268 24.7299L21.3438 25.237ZM30.5999 23.6836C30.5999 24.1315 30.5163 24.4852 30.352 24.7346C30.1888 24.9817 29.9425 25.102 29.5989 25.102C29.2553 25.102 29.0103 24.9819 28.8497 24.7349C28.6876 24.4854 28.6053 24.1315 28.6053 23.6836C28.6053 23.2361 28.6876 22.8835 28.8497 22.6367C29.0103 22.392 29.2553 22.2732 29.5989 22.2732C29.9425 22.2732 30.1888 22.3922 30.352 22.6369C30.5166 22.8835 30.5999 23.2361 30.5999 23.6836ZM31.3733 22.853C31.2971 22.596 31.1789 22.3699 31.0214 22.1813C30.8637 21.9922 30.6641 21.8401 30.4275 21.7299C30.1913 21.6196 29.9126 21.5637 29.5989 21.5637C29.2852 21.5637 29.0063 21.6196 28.7699 21.7299C28.5337 21.8401 28.3339 21.9922 28.1762 22.1816C28.0189 22.3706 27.9003 22.5964 27.8245 22.853C27.749 23.108 27.7107 23.3875 27.7107 23.6836C27.7107 23.9799 27.749 24.2596 27.8245 24.5143C27.9003 24.7707 28.0186 24.9967 28.1763 25.186C28.3341 25.3754 28.5343 25.5262 28.7702 25.6337C29.0068 25.7412 29.2855 25.7959 29.5989 25.7959C29.9124 25.7959 30.1908 25.7412 30.4272 25.6337C30.6634 25.5262 30.8633 25.3754 31.0214 25.186C31.1789 24.9973 31.2971 24.7711 31.3733 24.5143C31.4486 24.2591 31.4869 23.9796 31.4869 23.6836C31.4869 23.3878 31.4486 23.1082 31.3733 22.853ZM37.7216 24.9821C37.6962 24.9069 37.6229 24.9353 37.6229 24.9353C37.5106 24.9783 37.3911 25.0181 37.2634 25.038C37.1346 25.0582 36.9921 25.0683 36.8397 25.0683C36.4659 25.0683 36.1681 24.957 35.9556 24.7371C35.7421 24.5169 35.6222 24.1612 35.6235 23.6802C35.6247 23.2429 35.7305 22.9134 35.9203 22.6622C36.1084 22.4127 36.3958 22.2847 36.7778 22.2847C37.0968 22.2847 37.3402 22.3217 37.5952 22.4016C37.5952 22.4016 37.6557 22.428 37.6848 22.3482C37.7526 22.1602 37.8027 22.0265 37.875 21.82C37.8956 21.7611 37.8452 21.7362 37.8268 21.7291C37.7266 21.6899 37.4898 21.6257 37.3112 21.5987C37.1441 21.5732 36.9488 21.5599 36.731 21.5599C36.4064 21.5599 36.1169 21.6155 35.8694 21.7256C35.6224 21.8356 35.4128 21.9876 35.2468 22.1765C35.0807 22.3658 34.9543 22.5919 34.8707 22.8484C34.7869 23.1035 34.7446 23.3835 34.7446 23.6805C34.7446 24.3217 34.9176 24.8397 35.2589 25.2193C35.6013 25.6002 36.1149 25.7936 36.7853 25.7936C37.1813 25.7936 37.5875 25.7135 37.8802 25.5984C37.8802 25.5984 37.9359 25.5715 37.9117 25.5065L37.7216 24.9821ZM39.0743 23.2541C39.1113 23.0051 39.1795 22.7983 39.2858 22.6367C39.4462 22.392 39.6904 22.2571 40.034 22.2571C40.3777 22.2571 40.6042 22.3922 40.7674 22.6369C40.8752 22.7986 40.9224 23.0141 40.9408 23.2545L39.0743 23.2541ZM41.677 22.7072C41.6112 22.4594 41.4489 22.209 41.3422 22.0946C41.1739 21.9131 41.009 21.786 40.8452 21.7158C40.6082 21.6151 40.3534 21.5634 40.0959 21.5637C39.7692 21.5637 39.4724 21.6189 39.2317 21.7317C38.9907 21.8449 38.7881 21.9995 38.6294 22.1916C38.4703 22.3835 38.351 22.612 38.2748 22.8711C38.1985 23.1287 38.16 23.4096 38.16 23.7062C38.16 24.0078 38.2 24.289 38.2787 24.5418C38.3581 24.7968 38.4857 25.0206 38.6579 25.2069C38.8299 25.3938 39.0514 25.5405 39.316 25.6427C39.5793 25.7447 39.8991 25.7976 40.2659 25.7964C41.0221 25.7939 41.4197 25.6254 41.5839 25.5347C41.613 25.5184 41.6403 25.4904 41.6062 25.4096L41.435 24.9305C41.4088 24.859 41.3364 24.8849 41.3364 24.8849C41.1488 24.9549 40.8832 25.0798 40.2621 25.0785C39.8563 25.0778 39.5557 24.9579 39.3668 24.7706C39.1735 24.579 39.0786 24.2976 39.0625 23.9001L41.679 23.9021C41.679 23.9021 41.748 23.9015 41.7551 23.8341C41.758 23.8062 41.8449 23.2966 41.677 22.7072ZM18.1153 23.2541C18.1523 23.0051 18.2207 22.7983 18.3268 22.6367C18.4874 22.392 18.7313 22.2571 19.0752 22.2571C19.4189 22.2571 19.6454 22.3922 19.8086 22.6369C19.9163 22.7986 19.9634 23.0141 19.9818 23.2545L18.1153 23.2541ZM20.718 22.7072C20.6523 22.4594 20.4899 22.209 20.3834 22.0946C20.2151 21.9131 20.0503 21.786 19.8864 21.7158C19.6494 21.6152 19.3945 21.5634 19.1371 21.5637C18.8104 21.5637 18.5136 21.6189 18.2729 21.7317C18.0319 21.8449 17.8293 21.9995 17.6702 22.1916C17.5115 22.3835 17.3922 22.612 17.3157 22.8711C17.2396 23.1287 17.2012 23.4096 17.2012 23.7062C17.2012 24.0078 17.2409 24.289 17.32 24.5418C17.3993 24.7968 17.5271 25.0206 17.6989 25.2069C17.8711 25.3938 18.0924 25.5405 18.357 25.6427C18.6205 25.7447 18.94 25.7976 19.3071 25.7964C20.0631 25.794 20.4609 25.6254 20.6251 25.5347C20.654 25.5184 20.6815 25.4904 20.6472 25.4096L20.4762 24.9305C20.4498 24.859 20.3775 24.8849 20.3775 24.8849C20.19 24.9549 19.9244 25.0798 19.3031 25.0785C18.8975 25.0778 18.5967 24.9579 18.4078 24.7706C18.2147 24.579 18.1196 24.2976 18.1035 23.9001L20.7202 23.9021C20.7202 23.9021 20.7892 23.9015 20.7963 23.8341C20.7992 23.8062 20.8861 23.2966 20.718 22.7072ZM12.4588 24.9678C12.3561 24.8859 12.3419 24.8658 12.3078 24.8125C12.2559 24.7324 12.2294 24.6183 12.2294 24.4721C12.2294 24.2424 12.3057 24.0768 12.463 23.9657C12.4613 23.966 12.6886 23.7696 13.2219 23.7765C13.4599 23.7808 13.6972 23.801 13.9325 23.8371L13.9325 25.0265L13.9328 25.0265C13.9328 25.0265 13.6002 25.098 13.2257 25.1206C12.6936 25.1526 12.4572 24.9673 12.4588 24.9678ZM13.5001 23.1287C13.394 23.1209 13.2564 23.1171 13.0915 23.1171C12.8674 23.1171 12.6506 23.145 12.447 23.1997C12.2427 23.2548 12.0588 23.3401 11.9007 23.453C11.7427 23.5659 11.6128 23.7136 11.521 23.8847C11.4283 24.0574 11.381 24.2603 11.381 24.4877C11.381 24.7198 11.4213 24.9209 11.5009 25.0851C11.5788 25.2479 11.6961 25.3888 11.8422 25.4948C11.9877 25.6007 12.1672 25.6783 12.3754 25.7258C12.5809 25.7727 12.8138 25.7964 13.0683 25.7964C13.3371 25.7964 13.6043 25.7739 13.8633 25.7302C14.0839 25.6922 14.3036 25.6495 14.5224 25.6022C14.6096 25.5821 14.7059 25.5557 14.7059 25.5557C14.7706 25.5393 14.7656 25.4701 14.7656 25.4701L14.7641 23.077C14.7641 22.5521 14.6241 22.1632 14.3482 21.9217C14.0736 21.6813 13.6693 21.5599 13.1463 21.5599C12.9499 21.5599 12.6343 21.5864 12.4449 21.6244C12.4449 21.6244 11.8735 21.7352 11.6383 21.9195C11.6383 21.9195 11.5865 21.9514 11.6147 22.0236L11.8 22.5212C11.8231 22.5858 11.886 22.5637 11.886 22.5637C11.886 22.5637 11.9057 22.5559 11.9289 22.5421C12.4323 22.2684 13.0691 22.2765 13.0691 22.2765C13.3518 22.2765 13.5696 22.3338 13.716 22.4457C13.8588 22.5554 13.9313 22.7205 13.9313 23.0693L13.9313 23.18C13.7068 23.1475 13.5001 23.1287 13.5001 23.1287ZM34.6077 21.7805C34.6115 21.7718 34.6135 21.7624 34.6135 21.7528C34.6136 21.7433 34.6117 21.7339 34.6081 21.7251C34.6044 21.7163 34.599 21.7083 34.5922 21.7017C34.5854 21.695 34.5773 21.6898 34.5684 21.6863C34.5238 21.6694 34.3013 21.6224 34.1298 21.6118C33.8008 21.5912 33.6185 21.6466 33.4549 21.7203C33.2927 21.7935 33.113 21.9117 33.0128 22.0466L33.0125 21.7274C33.0125 21.6836 32.9815 21.6483 32.9373 21.6483L32.2665 21.6483C32.223 21.6483 32.1915 21.6836 32.1915 21.7274L32.1915 25.6312C32.1915 25.6523 32.1999 25.6725 32.2148 25.6873C32.2297 25.7022 32.2499 25.7106 32.2709 25.7107L32.9586 25.7107C32.9796 25.7106 32.9998 25.7022 33.0147 25.6873C33.0295 25.6724 33.0379 25.6523 33.0379 25.6312L33.0379 23.6811C33.0379 23.4192 33.0667 23.1583 33.1243 22.9942C33.181 22.8318 33.2582 22.7024 33.3537 22.6093C33.4443 22.5195 33.5551 22.4528 33.6769 22.4149C33.791 22.3821 33.9092 22.3655 34.0279 22.3655C34.1648 22.3655 34.3154 22.4006 34.3154 22.4006C34.3659 22.4063 34.3939 22.3754 34.411 22.33C34.4559 22.2103 34.5834 21.8519 34.6077 21.7805ZM28.1524 19.9715C28.0675 19.9458 27.9811 19.9253 27.8937 19.9101C27.7762 19.8905 27.6572 19.8813 27.538 19.8826C27.0647 19.8826 26.6917 20.0163 26.4297 20.2804C26.1696 20.5425 25.9926 20.9418 25.9038 21.4672L25.8718 21.6445L25.2777 21.6445C25.2777 21.6445 25.2052 21.6415 25.19 21.7207L25.0924 22.2648C25.0856 22.3169 25.108 22.3494 25.1777 22.3491L25.756 22.3491L25.1692 25.6243C25.1233 25.888 25.0707 26.105 25.0125 26.2694C24.9551 26.4317 24.899 26.5533 24.83 26.6415C24.7631 26.727 24.6998 26.7898 24.5904 26.8265C24.5002 26.8568 24.3963 26.8708 24.2825 26.8708C24.2192 26.8708 24.1349 26.8602 24.0727 26.8477C24.0105 26.8354 23.9781 26.8215 23.9315 26.8019C23.9315 26.8019 23.8636 26.7761 23.8369 26.8441C23.8152 26.8996 23.6611 27.3235 23.6428 27.3759C23.6243 27.4277 23.6503 27.4685 23.6831 27.4803C23.7601 27.5078 23.8174 27.5254 23.9222 27.5501C24.0679 27.5844 24.1906 27.5866 24.3056 27.5866C24.5465 27.5866 24.7659 27.5528 24.9479 27.4871C25.1311 27.4209 25.2905 27.3056 25.4315 27.1495C25.584 26.9811 25.6799 26.8048 25.7716 26.5642C25.8623 26.3258 25.9396 26.0299 26.0015 25.685L26.5911 22.3491L27.4531 22.3491C27.4531 22.3491 27.5258 22.3517 27.5409 22.2729L27.6384 21.7288C27.6452 21.6767 27.623 21.6442 27.553 21.6445L26.7164 21.6445C26.7205 21.6256 26.7585 21.3313 26.8546 21.0543C26.8955 20.936 26.9727 20.8406 27.038 20.7751C27.0991 20.7127 27.1742 20.6659 27.2572 20.6387C27.3481 20.6106 27.4429 20.5969 27.538 20.5982C27.6168 20.5982 27.6942 20.6077 27.753 20.62C27.8342 20.6372 27.8657 20.6463 27.8869 20.6526C27.9722 20.6787 27.9836 20.6535 28.0004 20.6122L28.2005 20.0627C28.221 20.0037 28.1709 19.9788 28.1524 19.9715ZM16.4611 25.6312C16.4611 25.675 16.4299 25.7107 16.3861 25.7107L15.6922 25.7107C15.6482 25.7107 15.617 25.675 15.617 25.6312L15.617 20.046C15.617 20.0023 15.6482 19.967 15.6922 19.967L16.3861 19.967C16.4299 19.967 16.4611 20.0023 16.4611 20.046L16.4611 25.6312Z" fill="#01A0EA"/>
</svg>
