<svg width="24" height="24" viewBox="0 0 24 24" fill="none" xmlns="http://www.w3.org/2000/svg">
<path d="M19.5507 4.62136C19.534 4.50016 19.4281 4.43292 19.3403 4.4256C19.2531 4.41828 17.5445 4.39232 17.5445 4.39232C17.5445 4.39232 16.1155 3.0047 15.9744 2.86354C15.8332 2.72238 15.5576 2.765 15.4504 2.79696C15.449 2.79762 15.182 2.88019 14.7326 3.01935C14.6573 2.77565 14.5468 2.47602 14.389 2.17506C13.8803 1.20426 13.1352 0.6909 12.2349 0.689572C12.2336 0.689572 12.2329 0.689572 12.2316 0.689572C12.169 0.689572 12.1071 0.695564 12.0445 0.700888C12.0179 0.668928 11.9912 0.637636 11.9633 0.607004C11.5711 0.187526 11.0684 -0.0168872 10.4658 0.00109045C9.3032 0.0343825 8.1453 0.874008 7.20644 2.36549C6.54591 3.41486 6.04318 4.73324 5.90069 5.75396C4.56565 6.16744 3.63212 6.4564 3.61148 6.46308C2.93763 6.6748 2.91633 6.69544 2.82843 7.33068C2.76318 7.81072 1 21.4445 1 21.4445L15.776 24L22.1801 22.408C22.1801 22.408 19.5673 4.74256 19.5507 4.62136ZM13.9928 3.2484C13.6526 3.3536 13.2657 3.47345 12.8462 3.60329C12.8375 3.01469 12.7676 2.1957 12.4933 1.48791C13.3756 1.65504 13.8097 2.65314 13.9928 3.2484ZM12.0731 3.84299C11.2988 4.08268 10.4538 4.34436 9.60616 4.60672C9.84453 3.69384 10.2967 2.78497 10.852 2.18904C11.0584 1.96732 11.3474 1.72029 11.6896 1.57913C12.0112 2.2503 12.0811 3.20046 12.0731 3.84299ZM10.4891 0.774796C10.7621 0.768804 10.9918 0.828732 11.1882 0.957904C10.8739 1.12104 10.5703 1.35541 10.2853 1.66103C9.54688 2.45338 8.98091 3.68319 8.75519 4.86972C8.05137 5.08744 7.36288 5.3012 6.72899 5.49696C7.1292 3.62926 8.69459 0.826732 10.4891 0.774796Z" fill="#95BF47"/>
<path d="M19.3397 4.42672C19.2525 4.4194 17.5439 4.39344 17.5439 4.39344C17.5439 4.39344 16.115 3.00581 15.9738 2.86466C15.9212 2.81205 15.85 2.78475 15.7754 2.77344L15.7761 23.9998L22.1796 22.4084C22.1796 22.4084 19.5668 4.74368 19.5501 4.62248C19.5335 4.50128 19.4269 4.43404 19.3397 4.42672Z" fill="#5E8E3E"/>
<path d="M12.2279 7.71886L11.4842 10.5014C11.4842 10.5014 10.6545 10.1239 9.67107 10.1858C8.22881 10.277 8.21349 11.1865 8.22817 11.4149C8.30673 12.6594 11.5807 12.9311 11.7645 15.8461C11.909 18.1393 10.548 19.708 8.58705 19.8318C6.23325 19.9803 4.9375 18.592 4.9375 18.592L5.43623 16.4707C5.43623 16.4707 6.74062 17.4548 7.78468 17.3889C8.46653 17.3456 8.71022 16.7909 8.68557 16.3987C8.58305 14.7754 5.91696 14.8713 5.74852 12.2039C5.60668 9.95942 7.0809 7.6849 10.3336 7.47982C11.5867 7.39926 12.2279 7.71886 12.2279 7.71886Z" fill="white"/>
</svg>
