<svg width="337" height="338" viewBox="0 0 337 338" fill="none" xmlns="http://www.w3.org/2000/svg">
<g opacity="0.6" filter="url(#filter0_f_1119_7150)">
<path d="M130.848 54.688C133.288 45.3528 145.188 42.5683 151.517 49.8518L192.873 97.4499C195.313 100.259 198.919 101.776 202.633 101.559L265.58 97.8705C275.213 97.3061 281.538 107.764 276.567 116.033L244.078 170.074C242.161 173.263 241.832 177.161 243.186 180.626L266.146 239.352C269.659 248.339 261.668 257.586 252.268 255.414L190.832 241.215C187.207 240.377 183.398 241.268 180.521 243.627L131.763 283.611C124.302 289.729 113.038 284.987 112.199 275.375L106.719 212.558C106.395 208.851 104.371 205.504 101.238 203.497L48.1446 169.482C40.0202 164.277 41.0493 152.098 49.9319 148.33L107.98 123.707C111.406 122.254 113.963 119.294 114.904 115.694L130.848 54.688Z" stroke="#DAD4F6" stroke-width="6"/>
</g>
<path opacity="0.6" d="M130.848 54.688C133.288 45.3528 145.188 42.5683 151.517 49.8518L192.873 97.4499C195.313 100.259 198.919 101.776 202.633 101.559L265.58 97.8705C275.213 97.3061 281.538 107.764 276.567 116.033L244.078 170.074C242.161 173.263 241.832 177.161 243.186 180.626L266.146 239.352C269.659 248.339 261.668 257.586 252.268 255.414L190.832 241.215C187.207 240.377 183.398 241.268 180.521 243.627L131.763 283.611C124.302 289.729 113.038 284.987 112.199 275.375L106.719 212.558C106.395 208.851 104.371 205.504 101.238 203.497L48.1446 169.482C40.0202 164.277 41.0493 152.098 49.9319 148.33L107.98 123.707C111.406 122.254 113.963 119.294 114.904 115.694L130.848 54.688Z" stroke="#DAD4F6" stroke-width="6"/>
<g opacity="0.6" filter="url(#filter1_f_1119_7150)">
<path d="M130.848 54.688C133.288 45.3528 145.188 42.5683 151.517 49.8518L192.873 97.4499C195.313 100.259 198.919 101.776 202.633 101.559L265.58 97.8705C275.213 97.3061 281.538 107.764 276.567 116.033L244.078 170.074C242.161 173.263 241.832 177.161 243.186 180.626L266.146 239.352C269.659 248.339 261.668 257.586 252.268 255.414L190.832 241.215C187.207 240.377 183.398 241.268 180.521 243.627L131.763 283.611C124.302 289.729 113.038 284.987 112.199 275.375L106.719 212.558C106.395 208.851 104.371 205.504 101.238 203.497L48.1446 169.482C40.0202 164.277 41.0493 152.098 49.9319 148.33L107.98 123.707C111.406 122.254 113.963 119.294 114.904 115.694L130.848 54.688Z" stroke="white"/>
</g>
<defs>
<filter id="filter0_f_1119_7150" x="27.6167" y="30.7139" width="265.694" height="270.639" filterUnits="userSpaceOnUse" color-interpolation-filters="sRGB">
<feFlood flood-opacity="0" result="BackgroundImageFix"/>
<feBlend mode="normal" in="SourceGraphic" in2="BackgroundImageFix" result="shape"/>
<feGaussianBlur stdDeviation="6" result="effect1_foregroundBlur_1119_7150"/>
</filter>
<filter id="filter1_f_1119_7150" x="41.1169" y="44.2148" width="238.689" height="243.634" filterUnits="userSpaceOnUse" color-interpolation-filters="sRGB">
<feFlood flood-opacity="0" result="BackgroundImageFix"/>
<feBlend mode="normal" in="SourceGraphic" in2="BackgroundImageFix" result="shape"/>
<feGaussianBlur stdDeviation="0.5" result="effect1_foregroundBlur_1119_7150"/>
</filter>
</defs>
</svg>
