<svg width="28" height="28" viewBox="0 0 28 28" fill="none" xmlns="http://www.w3.org/2000/svg">
<g clip-path="url(#clip0_2793_2091)">
<path d="M9.77342 8.75717L2.59592 9.79779L2.46879 9.82367C2.27635 9.87476 2.10091 9.976 1.9604 10.1171C1.81988 10.2581 1.71932 10.434 1.66899 10.6266C1.61865 10.8193 1.62035 11.0218 1.6739 11.2136C1.72745 11.4053 1.83094 11.5795 1.97379 11.7182L7.17354 16.7795L5.94729 23.9289L5.93267 24.0527C5.92089 24.2517 5.96222 24.4503 6.05242 24.6281C6.14263 24.8059 6.27847 24.9566 6.44604 25.0646C6.61361 25.1727 6.80689 25.2342 7.00608 25.243C7.20528 25.2518 7.40323 25.2075 7.57967 25.1147L13.9989 21.7397L20.4035 25.1147L20.516 25.1664C20.7017 25.2396 20.9035 25.262 21.1008 25.2314C21.298 25.2008 21.4835 25.1183 21.6383 24.9923C21.7931 24.8664 21.9117 24.7015 21.9817 24.5146C22.0518 24.3278 22.0709 24.1256 22.037 23.9289L20.8097 16.7795L26.0117 11.717L26.0994 11.6214C26.2248 11.467 26.307 11.2822 26.3376 11.0857C26.3683 10.8892 26.3463 10.6881 26.2739 10.5029C26.2015 10.3176 26.0813 10.1549 25.9256 10.0312C25.7698 9.90759 25.5841 9.82742 25.3873 9.79892L18.2098 8.75717L15.0013 2.25467C14.9085 2.06627 14.7647 1.90762 14.5864 1.79669C14.408 1.68575 14.2022 1.62695 13.9922 1.62695C13.7821 1.62695 13.5763 1.68575 13.398 1.79669C13.2196 1.90762 13.0759 2.06627 12.983 2.25467L9.77342 8.75717Z" fill="#FED001"/>
</g>
<defs>
<clipPath id="clip0_2793_2091">
<rect width="27" height="27" fill="white" transform="translate(0.5 0.5)"/>
</clipPath>
</defs>
</svg>
