<svg xmlns="http://www.w3.org/2000/svg" width="512.001" height="512.001" viewBox="0 0 512.001 512.001">
  <path id="tool" d="M255,401a20,20,0,1,1,20-20A20,20,0,0,1,255,401Zm20-90V284.145a83.346,83.346,0,0,0,63.938-84.117c-1.66-43.2-37.105-78.332-80.7-79.965a83.863,83.863,0,0,0-61.906,23.473A81.892,81.892,0,0,0,171,203a20,20,0,0,0,40,0,42.22,42.22,0,0,1,13.082-30.652,44.248,44.248,0,0,1,32.66-12.316c22.816.859,41.363,19.1,42.227,41.535a43.4,43.4,0,0,1-34.32,43.918A37.391,37.391,0,0,0,235,282.176V311a20,20,0,0,0,40,0ZM388.461,475.1a20,20,0,1,0-20.723-34.211A215.624,215.624,0,0,1,256,472C136.9,472,40,375.1,40,256S136.9,40,256,40s216,96.9,216,216a215.145,215.145,0,0,1-36.625,119.887,20,20,0,1,0,33.25,22.23A255.868,255.868,0,0,0,74.98,74.98,256.025,256.025,0,0,0,388.461,475.106Zm0,0" transform="translate(0.001 0)" fill="#fff"/>
</svg>
