<svg width="312" height="173" viewBox="0 0 312 173" fill="none" xmlns="http://www.w3.org/2000/svg">
<path d="M7.21204 86.1761C4.11762 56.7346 25.4761 30.3591 54.9175 27.2647L245.762 7.20618C275.203 4.11176 301.579 25.4702 304.673 54.9117L306.914 76.235C309.969 105.3 289.192 131.377 260.334 135.016C259.587 135.111 258.838 135.201 258.094 135.316C255.957 135.644 251.14 136.409 247.106 137.216C241.924 141.871 242.231 153.026 259.209 166.161C275.918 179.088 213.336 171.521 199.4 143.112C146.482 148.25 74.625 154.648 68.7498 155.171C68.4622 155.196 68.219 155.221 67.9316 155.249C38.665 158.09 12.5325 136.796 9.45321 107.499L7.21204 86.1761Z" fill="#7765E1"/>
<path d="M55.0731 82.759L52.4913 58.1945L56.193 57.8054L66.517 74.3124L73.1835 56.0197L76.8852 55.6306L79.4671 80.1951L75.6288 80.5985L73.974 64.8534L68.0889 81.391L66.4513 81.5631L57.2735 66.6086L58.9284 82.3538L55.0731 82.759ZM89.465 79.6617C88.1344 79.8016 86.9822 79.6697 86.0085 79.2661C85.0335 78.8512 84.263 78.248 83.6969 77.4567C83.1422 76.6641 82.8116 75.7618 82.7052 74.7496C82.612 73.8626 82.6762 73.051 82.8978 72.3148C83.1181 71.5672 83.5085 70.9053 84.0688 70.329C84.6279 69.7413 85.3792 69.2312 86.3226 68.7986C87.0367 68.4821 87.8783 68.1752 88.8474 67.8778C89.8278 67.5793 90.8897 67.2895 92.0329 67.0084C93.1864 66.7147 94.3898 66.4042 95.6432 66.077L94.264 67.0671C94.1415 65.7922 93.7586 64.8838 93.1152 64.342C92.4719 63.8002 91.4622 63.6017 90.0861 63.7463C89.2559 63.8336 88.4745 64.1112 87.7418 64.5791C87.0091 65.047 86.5388 65.7691 86.331 66.7453L82.4543 65.9627C82.7455 64.3569 83.4783 63.015 84.6528 61.9373C85.8387 60.8583 87.5177 60.2046 89.6898 59.9763C91.3275 59.8042 92.7942 59.9203 94.09 60.3245C95.3971 60.7275 96.416 61.5058 97.1466 62.6593C97.5446 63.2728 97.8135 63.9172 97.9535 64.5924C98.0922 65.2562 98.2034 65.9861 98.2871 66.7822L99.4758 78.0921L95.8765 78.4704L95.4569 74.4787L96.1221 75.0642C95.4317 76.482 94.5622 77.5622 93.5134 78.3049C92.4749 79.0349 91.1254 79.4872 89.465 79.6617ZM89.9396 76.3004C90.8721 76.2024 91.6508 75.9538 92.2758 75.5547C92.9007 75.1555 93.3814 74.6968 93.7179 74.1785C94.0657 73.6591 94.2858 73.1818 94.378 72.7466C94.5391 72.2008 94.5958 71.5912 94.548 70.9178C94.5104 70.2319 94.4695 69.6785 94.4252 69.2578L95.727 69.5004C94.5077 69.824 93.4624 70.1063 92.5908 70.3474C91.7193 70.5885 90.9723 70.8107 90.3498 71.0141C89.7261 71.2062 89.1781 71.4075 88.7058 71.6181C88.2461 71.8389 87.8633 72.0803 87.5574 72.3424C87.2515 72.6046 87.0231 72.893 86.8722 73.2078C86.7327 73.5214 86.6839 73.8773 86.7257 74.2753C86.7735 74.7302 86.9297 75.122 87.1942 75.4506C87.4575 75.7679 87.816 76.0062 88.2697 76.1654C88.7347 76.3235 89.2913 76.3685 89.9396 76.3004ZM103.917 77.6253L101.981 59.2019L105.614 58.82L106.086 63.3065L105.581 62.7731C105.744 62.1351 105.987 61.5462 106.31 61.0063C106.642 60.4539 107.059 59.9847 107.559 59.5987C107.981 59.2439 108.457 58.9525 108.984 58.7245C109.523 58.484 110.08 58.3162 110.656 58.2211C111.232 58.1146 111.797 58.0782 112.352 58.1118L112.756 61.95C112.193 61.8482 111.557 61.8634 110.846 61.9955C110.147 62.1265 109.531 62.3924 108.998 62.7934C108.462 63.1602 108.037 63.6016 107.723 64.1175C107.421 64.6322 107.217 65.2055 107.111 65.8376C107.003 66.4582 106.987 67.1211 107.061 67.8262L108.045 77.1914L103.917 77.6253ZM117.51 76.1967L114.962 51.6286L119.124 51.1911L120.702 66.2027L126.508 56.624L131.643 56.0843L125.463 66.0473L134.193 74.4432L128.751 75.0151L120.774 66.8851L121.706 75.7556L117.51 76.1967ZM142.979 73.9855C141.75 74.1145 140.565 73.9976 139.423 73.6348C138.281 73.2719 137.261 72.695 136.361 71.9042C135.473 71.1122 134.79 70.1376 134.312 68.9806L138.174 67.4881C138.561 68.4363 139.158 69.1382 139.964 69.5938C140.781 70.0368 141.644 70.2049 142.553 70.0979C143.36 70.013 144.063 69.7495 144.66 69.3072C145.257 68.865 145.705 68.3063 146.002 67.6312C146.297 66.9447 146.403 66.2035 146.32 65.4074C146.192 64.1905 145.693 63.2139 144.822 62.4776C143.951 61.7413 142.896 61.4382 141.656 61.5685C141.281 61.608 140.917 61.698 140.564 61.8386C140.222 61.978 139.896 62.156 139.585 62.3726L137.368 59.3287L144.882 51.3986L145.344 52.3504L133.659 53.5785L133.252 49.7062L148.315 48.123L148.724 52.0124L142.758 59.0898L142.597 57.8823C144.097 57.828 145.409 58.1098 146.532 58.7277C147.666 59.3444 148.572 60.1978 149.25 61.2878C149.939 62.3767 150.356 63.6034 150.499 64.9681C150.662 66.5148 150.427 67.9423 149.794 69.2506C149.172 70.5577 148.262 71.6364 147.064 72.4868C145.876 73.3245 144.514 73.8241 142.979 73.9855ZM166.524 71.045C165.331 71.4004 164.147 71.6226 162.972 71.7116C161.81 71.8107 160.747 71.7097 159.784 71.4085C158.82 71.0959 158.053 70.5269 157.483 69.7014C156.979 68.9495 156.672 68.1597 156.562 67.3319C156.452 66.5041 156.342 65.5671 156.232 64.5208L154.548 48.5027L158.642 48.0724L160.301 63.8517C160.379 64.5909 160.452 65.2385 160.522 65.7946C160.604 66.3495 160.771 66.7918 161.024 67.1216C161.505 67.761 162.199 68.0732 163.106 68.0584C164.013 68.0436 165.031 67.8905 166.162 67.5992L166.524 71.045ZM152.082 57.1958L151.743 53.9717L164.588 52.6216L164.927 55.8457L152.082 57.1958ZM179.393 70.2099C177.596 70.3987 176.045 70.1306 174.738 69.4056C173.432 68.6806 172.394 67.6168 171.626 66.2143C170.856 64.8004 170.375 63.178 170.183 61.347C169.988 59.4933 170.121 57.8007 170.581 56.2691C171.041 54.7375 171.818 53.4887 172.912 52.5229C174.016 51.5444 175.444 50.9632 177.196 50.7791C178.936 50.5962 180.487 50.8643 181.851 51.5834C183.224 52.2899 184.341 53.3396 185.2 54.7325C186.058 56.1141 186.585 57.7374 186.781 59.6025C186.975 61.4448 186.802 63.136 186.262 64.676C185.723 66.2159 184.867 67.4787 183.694 68.4643C182.521 69.4499 181.088 70.0318 179.393 70.2099ZM171.312 78.8204L168.515 52.2088L172.149 51.827L173.508 64.7574L174.02 64.7037L175.458 78.3847L171.312 78.8204ZM178.375 66.5915C179.444 66.4792 180.297 66.1193 180.934 65.5119C181.572 64.9045 182.008 64.1285 182.242 63.1841C182.486 62.227 182.549 61.1856 182.431 60.0597C182.314 58.9452 182.037 57.951 181.6 57.077C181.162 56.1917 180.557 55.5195 179.784 55.0603C179.01 54.5897 178.072 54.4124 176.969 54.5283C175.923 54.6383 175.096 54.9838 174.491 55.5649C173.884 56.1346 173.469 56.8911 173.246 57.8344C173.033 58.7651 172.99 59.8332 173.117 61.0386C173.243 62.2328 173.507 63.2686 173.909 64.1461C174.323 65.0224 174.893 65.6812 175.618 66.1224C176.353 66.5511 177.272 66.7075 178.375 66.5915ZM191.851 68.3831L189.215 43.3069L193.326 42.8748L195.962 67.951L191.851 68.3831ZM206.277 67.3843C204.947 67.5241 203.794 67.3922 202.821 66.9887C201.846 66.5737 201.075 65.9706 200.509 65.1792C199.954 64.3867 199.624 63.4843 199.517 62.4722C199.424 61.5851 199.488 60.7735 199.71 60.0373C199.93 59.2898 200.321 58.6279 200.881 58.0516C201.44 57.4639 202.191 56.9537 203.135 56.5211C203.849 56.2046 204.69 55.8977 205.659 55.6004C206.64 55.3019 207.702 55.012 208.845 54.7309C209.998 54.4372 211.202 54.1268 212.455 53.7996L211.076 54.7896C210.954 53.5147 210.571 52.6064 209.927 52.0646C209.284 51.5228 208.274 51.3242 206.898 51.4689C206.068 51.5561 205.287 51.8337 204.554 52.3017C203.821 52.7696 203.351 53.4917 203.143 54.4679L199.266 53.6853C199.558 52.0794 200.29 50.7376 201.465 49.6598C202.651 48.5808 204.33 47.9272 206.502 47.6989C208.14 47.5268 209.606 47.6428 210.902 48.047C212.209 48.4501 213.228 49.2283 213.959 50.3818C214.357 50.9954 214.626 51.6398 214.766 52.3149C214.904 52.9787 215.016 53.7087 215.099 54.5047L216.288 65.8147L212.689 66.193L212.269 62.2012L212.934 62.7867C212.244 64.2046 211.374 65.2848 210.326 66.0274C209.287 66.7575 207.937 67.2097 206.277 67.3843ZM206.752 64.0229C207.684 63.9249 208.463 63.6763 209.088 63.2772C209.713 62.8781 210.194 62.4194 210.53 61.9011C210.878 61.3816 211.098 60.9043 211.19 60.4692C211.351 59.9233 211.408 59.3137 211.36 58.6404C211.322 57.9544 211.282 57.4011 211.237 56.9803L212.539 57.2229C211.32 57.5465 210.274 57.8289 209.403 58.07C208.531 58.311 207.784 58.5333 207.162 58.7367C206.538 58.9287 205.99 59.13 205.518 59.3406C205.058 59.5614 204.675 59.8029 204.369 60.065C204.064 60.3271 203.835 60.6156 203.684 60.9304C203.545 61.244 203.496 61.5998 203.538 61.9979C203.586 62.4528 203.742 62.8445 204.006 63.1732C204.27 63.4904 204.628 63.7287 205.082 63.888C205.547 64.0461 206.103 64.0911 206.752 64.0229ZM228.783 65.0188C226.884 65.2184 225.219 64.9679 223.789 64.2674C222.357 63.5555 221.206 62.5037 220.336 61.1119C219.476 59.719 218.944 58.0963 218.737 56.2438C218.55 54.3547 218.744 52.6441 219.319 51.112C219.904 49.5672 220.83 48.3086 222.096 47.3362C223.361 46.3524 224.926 45.7625 226.791 45.5665C228.883 45.3465 230.707 45.6895 232.263 46.5953C233.828 47.4886 234.928 48.8217 235.563 50.5947L231.586 52.1338C231.163 51.1779 230.554 50.4658 229.757 49.9976C228.959 49.5181 228.089 49.3279 227.145 49.4271C226.076 49.5395 225.221 49.888 224.581 50.4727C223.94 51.046 223.501 51.7935 223.265 52.7152C223.028 53.6369 222.969 54.6607 223.087 55.7866C223.271 57.5379 223.813 58.9126 224.711 59.9105C225.609 60.9084 226.832 61.326 228.378 61.1635C229.47 61.0487 230.302 60.7083 230.875 60.1422C231.459 59.5748 231.861 58.8025 232.08 57.8251L236.375 58.3223C236.004 60.2585 235.161 61.8074 233.846 62.9689C232.529 64.1191 230.842 64.8024 228.783 65.0188ZM247.43 63.0072C246.202 63.1363 245.016 63.0194 243.875 62.6565C242.733 62.2936 241.712 61.7167 240.812 60.9259C239.924 60.1339 239.241 59.1594 238.763 58.0023L242.625 56.5099C243.012 57.458 243.609 58.1599 244.416 58.6155C245.233 59.0586 246.095 59.2266 247.004 59.1196C247.811 59.0347 248.514 58.7712 249.111 58.329C249.709 57.8867 250.156 57.3281 250.453 56.653C250.749 55.9665 250.855 55.2252 250.771 54.4291C250.643 53.2123 250.144 52.2357 249.273 51.4993C248.402 50.763 247.347 50.46 246.107 50.5903C245.732 50.6297 245.368 50.7197 245.015 50.8603C244.673 50.9997 244.347 51.1777 244.036 51.3944L241.819 48.3504L249.333 40.4204L249.795 41.3721L238.11 42.6003L237.703 38.7279L252.766 37.1448L253.175 41.0342L247.209 48.1116L247.048 46.904C248.549 46.8498 249.86 47.1316 250.983 47.7494C252.117 48.3661 253.023 49.2195 253.701 50.3095C254.391 51.3984 254.807 52.6252 254.95 53.9899C255.113 55.5365 254.878 56.964 254.245 58.2723C253.623 59.5794 252.713 60.6582 251.515 61.5085C250.327 62.3463 248.965 62.8458 247.43 63.0072ZM70.6403 121.343L68.0046 96.2669L72.1158 95.8348L74.7514 120.911L70.6403 121.343ZM86.9379 120.096C85.7097 120.225 84.5246 120.108 83.3826 119.745C82.2407 119.382 81.2199 118.805 80.3204 118.015C79.4323 117.223 78.7493 116.248 78.2712 115.091L82.1329 113.599C82.52 114.547 83.117 115.249 83.9237 115.704C84.7407 116.147 85.6034 116.315 86.512 116.208C87.3195 116.123 88.0219 115.86 88.6193 115.418C89.2167 114.975 89.6639 114.417 89.9609 113.742C90.2567 113.055 90.3628 112.314 90.2791 111.518C90.1512 110.301 89.6519 109.324 88.7811 108.588C87.9103 107.852 86.8552 107.549 85.6156 107.679C85.2403 107.718 84.8761 107.808 84.5229 107.949C84.1811 108.088 83.8549 108.266 83.5442 108.483L81.3271 105.439L88.8412 97.5091L89.3034 98.4608L77.6182 99.689L77.2112 95.8167L92.2741 94.2335L92.6828 98.1229L86.7176 105.2L86.5562 103.993C88.0567 103.938 89.3684 104.22 90.4911 104.838C91.6253 105.455 92.5313 106.308 93.2093 107.398C93.8986 108.487 94.315 109.714 94.4585 111.079C94.621 112.625 94.3859 114.053 93.753 115.361C93.1315 116.668 92.2216 117.747 91.0232 118.597C89.8349 119.435 88.4732 119.935 86.9379 120.096ZM107.126 118.026C105.431 118.204 103.908 117.933 102.556 117.213C101.204 116.492 100.104 115.435 99.256 114.041C98.4081 112.647 97.8873 111.029 97.6937 109.186C97.4976 107.321 97.67 105.624 98.2107 104.096C98.7616 102.555 99.6354 101.296 100.832 100.319C102.027 99.3311 103.495 98.7457 105.235 98.5628C106.987 98.3787 108.498 98.651 109.771 99.3796C111.053 100.096 112.079 101.155 112.847 102.557C113.615 103.96 114.097 105.588 114.292 107.442C114.484 109.273 114.351 110.96 113.892 112.503C113.432 114.034 112.639 115.29 111.512 116.271C110.384 117.252 108.922 117.837 107.126 118.026ZM107.369 114.275C108.473 114.159 109.333 113.815 109.952 113.245C110.58 112.661 111 111.898 111.212 110.956C111.435 110.013 111.483 108.944 111.358 107.75C111.231 106.545 110.961 105.509 110.548 104.644C110.146 103.767 109.588 103.113 108.876 102.682C108.163 102.239 107.283 102.073 106.237 102.183C105.133 102.299 104.252 102.667 103.593 103.289C102.933 103.898 102.481 104.682 102.236 105.639C101.991 106.585 101.926 107.615 102.044 108.729C102.162 109.855 102.434 110.861 102.861 111.748C103.298 112.622 103.891 113.289 104.641 113.751C105.391 114.213 106.3 114.387 107.369 114.275ZM112.326 116.962L110.967 104.031L110.455 104.085L109.232 92.4511L113.378 92.0154L115.959 116.58L112.326 116.962ZM119.44 106.97L119.101 103.746L129.336 102.67L129.675 105.894L119.44 106.97ZM143.728 122.457C142.704 122.565 141.704 122.509 140.727 122.29C139.761 122.07 138.871 121.697 138.057 121.174C137.244 120.661 136.554 120.009 135.988 119.218L139.578 116.943C140.001 117.577 140.548 118.02 141.218 118.271C141.901 118.533 142.607 118.626 143.334 118.549C144.187 118.46 144.933 118.226 145.572 117.848C146.212 117.482 146.683 116.984 146.984 116.355C147.299 115.735 147.398 114.989 147.284 114.116L146.733 108.878L147.245 108.825L145.773 94.8195L149.372 94.4412L151.402 113.752C151.451 114.218 151.475 114.664 151.474 115.089C151.485 115.525 151.467 115.952 151.419 116.371C151.271 117.594 150.851 118.627 150.158 119.471C149.466 120.325 148.565 121 147.456 121.496C146.358 121.991 145.115 122.312 143.728 122.457ZM142.509 114.307C140.815 114.485 139.291 114.214 137.939 113.494C136.587 112.773 135.487 111.716 134.639 110.322C133.792 108.928 133.271 107.31 133.077 105.467C132.881 103.602 133.053 101.905 133.594 100.377C134.145 98.8357 135.019 97.5768 136.215 96.6002C137.411 95.6122 138.879 95.0267 140.619 94.8438C142.37 94.6598 143.882 94.932 145.154 95.6607C146.437 96.3767 147.462 97.436 148.231 98.8385C148.999 100.241 149.48 101.869 149.675 103.723C149.868 105.554 149.735 107.241 149.276 108.784C148.816 110.315 148.022 111.572 146.895 112.552C145.768 113.533 144.306 114.118 142.509 114.307ZM142.753 110.556C143.856 110.44 144.717 110.096 145.335 109.526C145.964 108.942 146.384 108.179 146.595 107.237C146.818 106.294 146.867 105.225 146.741 104.031C146.614 102.826 146.345 101.791 145.932 100.926C145.529 100.048 144.972 99.3937 144.259 98.9627C143.546 98.5202 142.666 98.354 141.62 98.464C140.517 98.5799 139.636 98.9485 138.977 99.5697C138.316 100.179 137.864 100.963 137.62 101.92C137.374 102.866 137.31 103.896 137.427 105.01C137.545 106.136 137.818 107.142 138.245 108.029C138.681 108.903 139.275 109.57 140.025 110.032C140.774 110.494 141.684 110.668 142.753 110.556ZM156.092 112.362L154.156 93.9384L157.789 93.5565L158.261 98.043L157.757 97.5096C157.919 96.8716 158.162 96.2826 158.485 95.7428C158.818 95.1904 159.234 94.7212 159.734 94.3352C160.157 93.9804 160.632 93.6889 161.16 93.461C161.698 93.2205 162.255 93.0526 162.832 92.9576C163.407 92.8511 163.972 92.8147 164.528 92.8483L164.931 96.6865C164.368 96.5847 163.732 96.5998 163.021 96.732C162.322 96.863 161.706 97.1289 161.174 97.5299C160.637 97.8967 160.212 98.338 159.898 98.8539C159.596 99.3686 159.392 99.942 159.286 100.574C159.179 101.195 159.162 101.858 159.236 102.563L160.221 111.928L156.092 112.362ZM177.577 110.621C175.735 110.815 174.082 110.569 172.618 109.883C171.155 109.198 169.966 108.167 169.051 106.791C168.146 105.403 167.594 103.76 167.394 101.86C167.191 99.9271 167.4 98.192 168.02 96.655C168.64 95.1181 169.596 93.8679 170.886 92.9044C172.176 91.941 173.725 91.3642 175.533 91.1742C177.387 90.9794 179.045 91.2247 180.509 91.9103C181.972 92.5958 183.162 93.6321 184.078 95.0191C184.993 96.3947 185.55 98.032 185.75 99.9312C185.95 101.842 185.741 103.571 185.122 105.12C184.513 106.655 183.564 107.911 182.275 108.885C180.985 109.849 179.419 110.427 177.577 110.621ZM177.172 106.766C178.809 106.594 179.969 105.92 180.65 104.745C181.331 103.569 181.581 102.117 181.4 100.388C181.212 98.603 180.659 97.2238 179.74 96.2511C178.82 95.2669 177.553 94.8597 175.938 95.0295C174.835 95.1454 173.952 95.4912 173.288 96.0669C172.634 96.63 172.183 97.373 171.935 98.296C171.686 99.2075 171.622 100.243 171.744 101.403C171.932 103.189 172.486 104.574 173.406 105.558C174.336 106.529 175.591 106.932 177.172 106.766ZM193.733 108.406L186.164 90.5397L190.194 90.1507L195.035 101.594L197.443 89.3887L200.906 89.0247L205.782 100.465L208.156 88.2627L212.182 87.8396L208.489 106.855L205.282 107.192L199.771 94.9564L196.94 108.068L193.733 108.406ZM227.995 104.805C226.802 105.16 225.618 105.382 224.443 105.471C223.281 105.57 222.218 105.469 221.255 105.168C220.291 104.855 219.524 104.286 218.955 103.461C218.45 102.709 218.143 101.919 218.033 101.091C217.923 100.264 217.813 99.3266 217.703 98.2803L216.019 82.2622L220.113 81.8319L221.772 97.6112C221.85 98.3504 221.923 98.998 221.993 99.5541C222.075 100.109 222.242 100.551 222.495 100.881C222.976 101.52 223.67 101.833 224.577 101.818C225.484 101.803 226.502 101.65 227.633 101.359L227.995 104.805ZM213.553 90.9553L213.214 87.7312L226.059 86.3811L226.398 89.6052L213.553 90.9553ZM244.7 103.049L243.767 94.1783C243.706 93.5983 243.599 92.9599 243.445 92.2632C243.292 91.5665 243.033 90.9095 242.669 90.2924C242.315 89.6626 241.827 89.1679 241.202 88.8081C240.589 88.447 239.794 88.3179 238.816 88.4207C238.293 88.4757 237.784 88.6154 237.291 88.8398C236.797 89.0641 236.362 89.4088 235.985 89.8738C235.619 90.3263 235.349 90.9296 235.175 91.6837C235 92.4265 234.972 93.3608 235.09 94.4867L232.541 93.7025C232.376 92.1331 232.528 90.6798 232.997 89.3428C233.477 88.0045 234.269 86.8979 235.373 86.023C236.476 85.1368 237.892 84.6028 239.62 84.4211C240.985 84.2777 242.135 84.3868 243.07 84.7484C244.004 85.1101 244.77 85.616 245.368 86.2661C245.965 86.9162 246.43 87.6262 246.764 88.3959C247.098 89.1657 247.337 89.9052 247.48 90.6145C247.634 91.3113 247.734 91.8814 247.781 92.3249L248.862 102.611L244.7 103.049ZM231.923 104.392L229.341 79.8272L233.009 79.4417L234.368 92.3722L234.862 92.3202L236.085 103.954L231.923 104.392Z" fill="white"/>
</svg>
