<svg width="12" height="12" viewBox="0 0 12 12" fill="none" xmlns="http://www.w3.org/2000/svg">
<path d="M6.49853 0.800797C6.44787 0.713466 6.37516 0.640976 6.28767 0.590586C6.20019 0.540195 6.101 0.513672 6.00004 0.513672C5.89908 0.513672 5.79989 0.540195 5.7124 0.590586C5.62492 0.640976 5.5522 0.713466 5.50155 0.800797L3.93749 3.49669C3.88331 3.58993 3.8089 3.66982 3.71973 3.73047C3.63056 3.79111 3.52891 3.83096 3.42228 3.84708L0.490682 4.28967C-0.00147202 4.36459 -0.17436 4.98583 0.209451 5.30395L2.39302 7.11235C2.59473 7.28005 2.68981 7.54457 2.64083 7.80217L2.06972 10.8018C2.04944 10.9083 2.05963 11.0184 2.09912 11.1194C2.1386 11.2204 2.20579 11.3082 2.29294 11.3727C2.3801 11.4373 2.4837 11.4759 2.59183 11.4842C2.69995 11.4924 2.80822 11.4701 2.90419 11.4196L5.66464 9.96615C5.76806 9.91174 5.88317 9.88331 6.00004 9.88331C6.1169 9.88331 6.23201 9.91174 6.33544 9.96615L9.09588 11.4196C9.19185 11.4701 9.30012 11.4924 9.40825 11.4842C9.51638 11.4759 9.61997 11.4373 9.70713 11.3727C9.79429 11.3082 9.86147 11.2204 9.90096 11.1194C9.94045 11.0184 9.95063 10.9083 9.93035 10.8018L9.35925 7.80217C9.33504 7.67554 9.34527 7.54472 9.38885 7.42339C9.43244 7.30205 9.5078 7.19463 9.60705 7.11235L11.7912 5.30337C12.1744 4.98641 12.0015 4.36401 11.5088 4.28967L8.57837 3.84708C8.47164 3.83104 8.36988 3.79123 8.2806 3.73058C8.19133 3.66994 8.11682 3.59 8.06259 3.49669L6.49853 0.800797Z" fill="#5E48DB"/>
</svg>
